<?xml version="1.0" encoding="utf-8"?>
<!-- Generator: Adobe Illustrator 21.0.0, SVG Export Plug-In . SVG Version: 6.00 Build 0)  -->
<svg version="1.1" id="Layer_1" xmlns="http://www.w3.org/2000/svg" xmlns:xlink="http://www.w3.org/1999/xlink" x="0px" y="0px"
	 viewBox="0 0 400 400" style="enable-background:new 0 0 400 400;" xml:space="preserve">
<style type="text/css">
	.st0{display:none;fill:#FFFFFF;}
	.st1{display:none;}
	.st2{display:inline;opacity:0.85;fill:#FFFFFF;}
	.st3{display:inline;}
	.st4{fill:#000B5B;}
	.st5{display:inline;fill:url(#SVGID_1_);}
	.st6{display:inline;fill:#000B5B;}
	.st7{display:inline;fill:url(#SVGID_2_);}
	.st8{opacity:0.85;fill:#FFFFFF;}
	.st9{fill:url(#SVGID_3_);}
</style>
<rect x="192.3" y="191.3" class="st0" width="15.9" height="16"/>
<g id="_x34__2_" class="st1">
	<circle class="st2" cx="199.4" cy="199.6" r="198.9"/>
	<g class="st3">
		<polygon class="st4" points="341.9,182.8 338.6,183.5 335.6,169.1 338.8,168.5 		"/>
		<path class="st4" d="M352.1,187.9l-1.4,2c-0.1,0.2-0.4,0.3-0.6,0.1l-10.8-6.9l1.8-2.7l10.8,6.9
			C352.2,187.5,352.2,187.7,352.1,187.9z"/>
		<path class="st4" d="M333.4,193.5l-2.1-1.3c-0.2-0.1-0.3-0.4-0.1-0.6l7.1-10.5l2.8,1.8l-7.1,10.5
			C333.9,193.5,333.6,193.6,333.4,193.5z"/>
	</g>
	<linearGradient id="SVGID_1_" gradientUnits="userSpaceOnUse" x1="40.424" y1="199.6085" x2="359.2089" y2="199.6085">
		<stop  offset="0" style="stop-color:#FF1791"/>
		<stop  offset="1" style="stop-color:#FFA204"/>
	</linearGradient>
	<path class="st5" d="M326.4,184.5 M354.7,146.5C331.5,83,267.8,38.2,194,41.8c-83.1,4-150.4,70.5-153.6,151.7
		c-3.5,90.1,70.3,164.2,161.8,164.2c74.6,0,137.4-49.3,156.2-116.3l-38.4-0.2h-99.4V78.7c46.1,6.6,84.1,37.8,99.5,79.5
		c3,8.1,11.2,13.1,19.9,11.9h0C351.4,168.6,358.6,157.1,354.7,146.5z M202.2,321.8C133.1,321.8,77,267.1,77,199.6
		c0-61.4,46.4-112.2,106.8-120.9v162.4v18.7V277h115.2C276.1,304.3,241.3,321.8,202.2,321.8z"/>
	<path class="st6" d="M340.6,146.8c2-0.4,4,0.9,4.4,2.8c0.4,2-0.9,3.9-2.9,4.3c-2,0.4-4-0.9-4.4-2.8
		C337.3,149.1,338.6,147.2,340.6,146.8z"/>
</g>
<g id="_x34__4_" class="st1">
	<circle class="st2" cx="199.4" cy="199.6" r="198.8"/>
	<g class="st3">
		<polygon class="st4" points="341.8,182.8 338.6,183.5 335.5,169.1 338.8,168.5 		"/>
		<path class="st4" d="M352,187.9l-1.4,2c-0.1,0.2-0.4,0.3-0.6,0.1l-10.8-6.9l1.8-2.7l10.8,6.9C352.1,187.5,352.2,187.7,352,187.9z"
			/>
		<path class="st4" d="M333.3,193.5l-2.1-1.3c-0.2-0.1-0.3-0.4-0.1-0.6l7.1-10.5l2.8,1.8l-7.1,10.5
			C333.8,193.5,333.5,193.6,333.3,193.5z"/>
	</g>
	<linearGradient id="SVGID_2_" gradientUnits="userSpaceOnUse" x1="40.4922" y1="199.6085" x2="359.1407" y2="199.6085">
		<stop  offset="0" style="stop-color:#8A2BE2"/>
		<stop  offset="1" style="stop-color:#FF6347"/>
	</linearGradient>
	<path class="st7" d="M326.4,184.5 M354.7,146.5C331.5,83,267.8,38.3,194,41.9c-83.1,4-150.3,70.4-153.5,151.6
		c-3.5,90,70.2,164.1,161.7,164.1c74.6,0,137.4-49.2,156.1-116.2l-38.4-0.2h-99.3V78.8c46.1,6.6,84.1,37.8,99.4,79.5
		c3,8.1,11.2,13.1,19.9,11.9h0C351.3,168.6,358.5,157.2,354.7,146.5z M202.2,321.7c-69.1,0-125.1-54.7-125.1-122.1
		c0-61.4,46.4-112.1,106.8-120.8v162.3v18.7V277H299C276.1,304.3,241.2,321.7,202.2,321.7z"/>
	<path class="st6" d="M340.6,146.8c2-0.4,4,0.9,4.4,2.8c0.4,2-0.9,3.9-2.9,4.3c-2,0.4-4-0.9-4.4-2.8
		C337.3,149.2,338.6,147.2,340.6,146.8z"/>
</g>
<g id="_x34__7_">
	<ellipse class="st8" cx="200" cy="200.5" rx="198.2" ry="198"/>
	<g>
		<polygon class="st4" points="342,183.8 338.7,184.4 335.7,170.1 339,169.5 		"/>
		<path class="st4" d="M352.1,188.9l-1.3,1.9c-0.1,0.2-0.4,0.3-0.7,0.1l-10.7-6.9l1.8-2.7l10.7,6.9
			C352.2,188.4,352.3,188.6,352.1,188.9z"/>
		<path class="st4" d="M333.5,194.3l-2-1.3c-0.2-0.1-0.3-0.4-0.1-0.6l7-10.5l2.8,1.8l-7,10.5C334,194.4,333.7,194.4,333.5,194.3z"/>
	</g>
	<linearGradient id="SVGID_3_" gradientUnits="userSpaceOnUse" x1="357.2473" y1="203.144" x2="40.0258" y2="197.6246">
		<stop  offset="1.171179e-07" style="stop-color:#00CED1"/>
		<stop  offset="1" style="stop-color:#5685D6"/>
	</linearGradient>
	<path class="st9" d="M326.6,185.4 M354.8,147.6C331.7,84.4,268.2,39.8,194.7,43.4c-82.8,4-149.8,70.1-153,151
		c-3.5,89.7,70,163.4,161.2,163.4c74.3,0,136.9-49,155.6-115.7l-38.3-0.2h-99V80.2c46,6.6,83.8,37.6,99.1,79.1
		c3,8,11.2,13,19.9,11.8h0C351.5,169.5,358.7,158.2,354.8,147.6z M202.8,322.1c-68.9,0-124.7-54.4-124.7-121.6
		c0-61.1,46.2-111.7,106.4-120.3v161.6v18.6v17h114.8C276.5,304.7,241.7,322.1,202.8,322.1z"/>
	<path class="st4" d="M340.8,147.9c2-0.4,4,0.8,4.4,2.8c0.4,2-0.9,3.9-2.9,4.3c-2,0.4-4-0.8-4.4-2.8
		C337.5,150.2,338.7,148.3,340.8,147.9z"/>
</g>
</svg>
