<?xml version="1.0" standalone="no"?>
<!DOCTYPE svg PUBLIC "-//W3C//DTD SVG 1.1//EN" "http://www.w3.org/Graphics/SVG/1.1/DTD/svg11.dtd" >
<!--
2013-9-30: Created.
-->
<svg>
<metadata>
Created by iconfont
</metadata>
<defs>

<font id="iconfont" horiz-adv-x="1024" >
  <font-face
    font-family="iconfont"
    font-weight="500"
    font-stretch="normal"
    units-per-em="1024"
    ascent="896"
    descent="-128"
  />
    <missing-glyph />
    
    <glyph glyph-name="qiyong01" unicode="&#58890;" d="M499.90144-80.32896c-206.89408 0-375.2192 168.31488-375.2192 375.19872 0 206.89408 168.32512 375.2192 375.2192 375.2192 206.8736 0 375.17824-168.32512 375.17824-375.2192C875.07968 87.98592 706.77504-80.32896 499.90144-80.32896zM499.90144 664.96896c-204.07296 0-370.0992-166.02624-370.0992-370.0992 0-204.0576 166.02624-370.07872 370.0992-370.07872 204.05248 0 370.05824 166.02112 370.05824 370.07872C869.95968 498.94272 703.9488 664.96896 499.90144 664.96896zM714.28096 294.86976c0-118.41024-95.98976-214.43072-214.4-214.43072s-214.4 96.02048-214.4 214.43072 95.98976 214.44096 214.4 214.44096S714.28096 413.28 714.28096 294.86976z"  horiz-adv-x="1024" />

    
    <glyph glyph-name="iconfontmokuai" unicode="&#58942;" d="M733.909 547.2c0 0-175.415-8.442-237.668-11.239-38.476-1.757-59.403 30.891-25.462 64.632 26.082 25.861 35.579 33.163 31.126 81.455-5.106 55.3-60.796 73.275-106.505 72.761-47.812-0.565-100.148-25.702-115.563-71.297-10.138-29.901-9.843-60.045 16.38-79.244 14.307-10.491 45.973-25.963 10.453-54.269-19.168-15.289-212.173 2.847-212.173 2.847s-8.503-164.668-2.452-211.576c3.459-26.954 37.042-39.567 59.047-10.413 33.943 44.928 127.788 15.614 132.536-72.587 4.992-92.534-94.373-106.795-115.584-70.702-19.798 33.731-76.355 42.122-78.806-0.898-3.794-66.985 27.769-280.124 27.769-280.124s126.861-29.781 184.038-20.622c26.561 4.301 38.754 49.846 14.135 71.235-22.646 19.652-27.395 124.709 90.793 112.642 92.472-9.443 77.027-89.605 53.497-104.249-22.634-14.037-21.557-57.783 25.483-70.214 64.365-17.056 259.611 25.003 259.611 25.003s-25.797 157.256-17.164 208.215c9.223 54.562 72.207 21.64 80.076 11.219 50.935-67.429 156.563-30.57 156.563 82.616 0 164.839-150.839 136.815-165.034 97.218-15.689-43.604-67.61-32.427-73.252-5.635-13.261 62.582 8.156 233.228 8.156 233.228z"  horiz-adv-x="1024" />

    
    <glyph glyph-name="xiangqing" unicode="&#58967;" d="M511.936 779.158c-264.265 0-478.493-214.575-478.493-479.261 0-264.69 214.228-479.261 478.493-479.261s478.493 214.572 478.493 479.261C990.428 564.583 776.201 779.158 511.936 779.158zM510.628 18.455c-18.317-10.483-33.297-15.726-44.921-15.726-10.182 0-18.25 3.208-24.205 9.608-5.962 6.406-8.941 15.292-8.941 26.65 0 36.398 21.807 125.368 65.42 266.901 2.032 6.697 3.053 12.669 3.053 17.908 0 5.821-2.616 8.735-7.85 8.735-5.818 0-12.428-2.332-19.841-6.988-7.417-4.662-23.921-19.516-49.502-44.559l-19.191 14.854c29.038 32.031 55.54 54.824 79.497 68.365 23.963 13.541 44.356 20.311 61.202 20.311 9.296 0 16.409-2.042 21.344-6.115 4.932-4.08 7.407-9.608 7.407-16.598 0-8.451-9.423-44.271-28.273-107.46-30.735-103.383-46.101-165.709-46.101-186.963 0-4.08 1.014-7.502 3.053-10.266 2.032-2.77 4.211-4.147 6.543-4.147 9.302 0 33.144 18.052 71.522 54.166l17.012-16.598C558.014 52.965 528.944 28.938 510.628 18.455zM612.901 504.423c-8.874-9.761-18.83-14.63-29.877-14.63-8.721 0-15.994 3.055-21.807 9.173-5.818 6.112-8.721 14.119-8.721 24.024 0 13.103 4.211 24.244 12.648 33.417 8.428 9.173 18.46 13.758 30.094 13.758 9.008 0 16.422-2.987 22.24-8.953 5.812-5.975 8.721-13.617 8.721-22.934C626.2 525.46 621.766 514.181 612.901 504.423z"  horiz-adv-x="1024" />

    
    <glyph glyph-name="shibai" unicode="&#59125;" d="M875.2384 746.0864C778.368 842.752 649.6512 896 512.6656 896 375.7312 896 246.9888 842.752 150.1952 746.0864 53.3504 649.3696 0.0256 520.7808 0.0256 384 0 247.1936 53.2736 118.6304 150.0928 21.9136 246.912-74.752 375.6544-128 512.5632-128 649.5744-128 778.368-74.7008 875.2384 21.9648 1075.0976 221.568 1075.1232 546.4064 875.2384 746.0864 875.2384 746.0864 875.2384 746.0864 875.2384 746.0864ZM828.3392 69.2224C744.064-14.8992 631.9616-61.312 512.7936-61.312 393.6512-61.312 281.6256-14.9504 197.4016 69.12 113.1776 153.2672 66.7904 265.1648 66.816 384.2048 66.816 503.2448 113.2032 615.168 197.4528 699.264 281.728 783.3856 393.7024 829.696 512.8704 829.696 632.0384 829.696 744.064 783.3856 828.3392 699.264 1002.2144 525.5424 1002.2144 242.8928 828.3392 69.2224 828.3392 69.2224 828.3392 69.2224 828.3392 69.2224ZM685.9008 550.2976C652.7744 550.2976 625.8688 523.52 625.8688 490.496 625.8688 457.5232 652.7744 430.72 685.9008 430.72 719.104 430.72 745.9584 457.5232 745.9584 490.496 745.9584 523.52 719.104 550.2976 685.9008 550.2976 685.9008 550.2976 685.9008 550.2976 685.9008 550.2976ZM366.3104 430.72C399.5136 430.72 426.368 457.5232 426.368 490.496 426.368 523.52 399.5136 550.2976 366.3104 550.2976 333.2352 550.2976 306.2272 523.52 306.2272 490.496 306.2272 457.5232 333.2096 430.72 366.3104 430.72 366.3104 430.72 366.3104 430.72 366.3104 430.72ZM513.1776 297.6C429.3376 297.6 355.3792 253.696 311.4752 186.4704 297.9584 165.7856 312.7808 137.9584 337.1264 137.9584 337.1264 137.9584 339.5072 137.9584 339.5072 137.9584 349.2864 137.9584 358.7584 142.592 364.288 150.912 397.0816 200.0384 451.5328 232.1664 513.1776 232.1664 575.1552 232.1664 629.9136 200.4992 662.6304 150.9888 668.1344 142.6688 677.6576 137.984 687.488 137.984 687.9744 137.984 688.4864 137.984 688.9728 137.984 713.3184 137.9328 728.1408 165.8112 714.5984 186.4704 670.6176 253.568 596.8128 297.6 513.1776 297.6 513.1776 297.6 513.1776 297.6 513.1776 297.6Z"  horiz-adv-x="1050" />

    
    <glyph glyph-name="dashboard" unicode="&#58966;" d="M1297.066667 213.333333c0 339.319467-275.080533 614.4-614.4 614.4C343.3472 827.733333 68.266667 552.6528 68.266667 213.333333l0-273.066667L0-59.733333c0 0 0 56.354133 0 273.066667C0 590.370133 305.664 896 682.666667 896c377.0368 0 682.666667-305.629867 682.666667-682.666667 0-176.093867 0-247.227733 0-273.066667l-68.266667 0L1297.066667 213.333333zM341.333333 145.066667l0-68.266667L204.8 76.8l0 68.266667L341.333333 145.066667zM648.533333 691.2l68.266667 0 0-136.533333-68.266667 0L648.533333 691.2zM979.6608 476.433067l0.750933-0.750933c13.141333-13.2096 13.141333-34.645333 0-47.8208L709.597867 155.306667c-13.141333-13.2096-34.440533-13.2096-47.581867 0l-0.750933 0.750933c-13.141333 13.2096-13.141333 34.645333 0 47.8208l270.813867 272.554667C945.220267 489.6768 966.519467 489.6768 979.6608 476.433067zM1160.533333 145.066667l0-68.266667-136.533333 0 0 68.266667L1160.533333 145.066667zM1297.066667-59.733333l68.266667 0c0-37.6832-30.583467-68.266667-68.266667-68.266667L68.266667-128c-37.717333 0-68.266667 30.583467-68.266667 68.266667l68.266667 0L1297.066667-59.733333z"  horiz-adv-x="1366" />

    
    <glyph glyph-name="result" unicode="&#58903;" d="M65.090461 768.415206l0-768.82939 893.819079 0L958.909539 768.415206 65.090461 768.415206zM908.126946 51.342598 115.9058 51.342598l0 655.048997L908.126946 706.391594 908.126946 51.342598zM301.136501 465.803097l-101.551884 0 0 99.100042 101.551884 0L301.136501 465.803097zM834.209446 503.824039 334.880023 503.824039l0 20.400632 499.329423 0L834.209446 503.824039zM301.136501 309.889095l-101.551884 0 0 99.100042 101.551884 0L301.136501 309.889095zM834.209446 348.017484 334.880023 348.017484l0 20.273742 499.329423 0L834.209446 348.017484zM301.136501 153.997606l-101.551884 0 0 99.141998 101.551884 0L301.136501 153.997606zM834.209446 192.104505 334.880023 192.104505l0 20.314675 499.329423 0L834.209446 192.104505z"  horiz-adv-x="1024" />

    
    <glyph glyph-name="bianji" unicode="&#58904;" d="M255.091304 768.92072l376.715851 0c-8.953929-10.316973-16.863063-21.427008-23.7581-33.429367L273.764596 735.491353c-96.176456 0-174.86768-79.660294-174.86768-177.074951l0-366.55135c0-97.515964 78.691223-177.173189 174.86768-177.173189l349.7108 0c96.226598 0 174.917822 79.657224 174.917822 177.173189L798.393217 414.078039c12.721743 0.298805 25.195845 1.784646 37.300534 4.26514l0-243.442498c0-106.539478-87.050612-193.640232-193.543018-193.640232L255.091304-18.739551c-106.444311 0-193.5686 87.100754-193.5686 193.640232L61.522704 575.379749C61.523727 681.921273 148.648017 768.92072 255.091304 768.92072L255.091304 768.92072zM365.22668 451.77357 258.412956 231.845625l229.750661 54.06536L365.22668 451.77357 365.22668 451.77357zM939.358763 747.296213c-31.027667 42.160215-85.266989 56.542784-157.184949 12.994965l123.109876-167.054737C968.275349 648.98821 970.533786 704.936453 939.358763 747.296213L939.358763 747.296213 939.358763 747.296213zM867.264794 563.87267 742.839971 732.614839 383.433344 467.647095 507.830539 298.805666 867.264794 563.87267z"  horiz-adv-x="1024" />

    
    <glyph glyph-name="daochu" unicode="&#58892;" d="M1024 403.854222l-226.304-226.304L797.696 346.965333l-568.888889 0 0 113.777778 568.888889 0L797.696 630.215111 1024 403.854222zM570.140444 688.298667l-455.111111 0 0-568.888889 455.111111 0 0 113.777778 113.777778 0 0-113.777778c0-62.862222-50.915556-113.777778-113.777778-113.777778l-455.111111 0c-62.862222 0-113.777778 50.915556-113.777778 113.777778l0 568.888889c0 62.862222 50.915556 113.777778 113.777778 113.777778l455.111111 0c62.862222 0 113.777778-50.915556 113.777778-113.777778l0-113.777778-113.777778 0L570.140444 688.298667z"  horiz-adv-x="1024" />

    
    <glyph glyph-name="jihuarenwu" unicode="&#59008;" d="M665.6 768 627.2 896 332.8 896 294.4 768 0 768l0-896 960 0L960 768 665.6 768zM896-64 64-64 64 704l211.2 0L256 640l448 0-19.2 64L896 704 896-64zM480 576C320 576 192 448 192 288S320 0 480 0 768 128 768 288 640 576 480 576zM480 64C358.4 64 256 166.4 256 288S358.4 512 480 512 704 409.6 704 288 601.6 64 480 64zM512 448 448 448 448 256 640 256 640 320 512 320Z"  horiz-adv-x="1024" />

    
    <glyph glyph-name="bianji1" unicode="&#58891;" d="M768 320l0-256L256 64 256 704l256 0c35.328 0 64 28.672 64 64l0 0c0 35.328-28.672 64-64 64L256 832C185.28 832 128 774.72 128 704l0-640c0-70.72 57.28-128 128-128l512 0c70.72 0 128 57.28 128 128L896 320c0 35.328-28.672 64-64 64l0 0C796.672 384 768 355.328 768 320zM914.752 696.256 507.456 288.96c-25.024-25.024-65.536-25.024-90.496 0l0 0c-25.024 25.024-25.024 65.536 0 90.496l407.296 407.296c25.024 25.024 65.536 25.024 90.496 0l0 0C939.712 761.728 939.712 721.216 914.752 696.256z"  horiz-adv-x="1024" />

    
    <glyph glyph-name="shop2" unicode="&#58933;" d="M774.360871 817.042717 246.68382 817.042717 63.367725 553.107489c0 0 0-90.524736 0-105.564267 0-28.135804 53.80851-87.87028 70.451562-108.202351l0-296.829406c0-58.311057 44.291762-103.832833 105.58064-103.832833l552.640606 0c61.288878 0 95.962585 45.520753 95.962585 103.832833L888.003118 346.235908c18.844184 21.757536 70.582545 66.210981 70.582545 101.307314 0 28.89612 0 105.564267 0 105.564267L774.360871 817.042717zM281.844621 754.635365l458.131115 0 119.827109-179.965791L161.986813 574.669574 281.844621 754.635365zM831.602573 56.368054c0-29.173436-32.765241-55.397704-63.424518-55.397704L253.645372 0.97035c-30.661324 0-63.425541 26.224268-63.425541 55.397704l0 83.046415 641.382743 0L831.602573 56.368054zM831.602573 194.776358 190.219831 194.776358 190.219831 318.554452c0 0 32.69975 0 35.226293 0 28.879748 0 67.99051 22.307052 87.352487 60.980863 21.756513-37.606503 47.917336-63.959707 86.704734-63.959707 40.98853 0 86.122473 23.924899 101.177354 58.472739 15.087627-33.703613 58.180074-55.492872 98.328469-55.492872 39.824007 0 82.173534 25.706475 103.022375 64.962547 24.410969-39.612183 44.163849-67.942415 95.090728-67.942415 0.550539 0 34.481326 9.908674 34.481326 9.908674L831.603597 194.776358zM880.943328 450.067718c-0.38681-36.439934-46.327118-55.347562-83.822081-55.31584-43.255153 0.032746-82.204234 37.896098-82.204234 64.979944l-25.447579 0c0-26.629497-48.176233-64.979944-89.683579-64.979944-39.759539 0-86.058005 39.176254-86.058005 64.979944l-26.094308 0c0-26.629497-47.077202-64.979944-86.835717-64.979944-41.507346 0-74.337055 30.936593-74.337055 64.979944L300.947701 459.731822c0-26.548656-36.359093-65.804728-76.214822-65.804728-40.503483 0-83.856873 12.771885-83.856873 49.228191l0 62.293765 740.066299 0L880.942305 450.067718z"  horiz-adv-x="1024" />

    
    <glyph glyph-name="yunxingzhong" unicode="&#58946;" d="M236 183.2c-26.4 0-52.8-11.2-71.2-29.6-18.4-18.4-29.6-44.8-29.6-71.2 0-26.4 11.2-52.8 29.6-71.2 18.4-18.4 44.8-29.6 71.2-29.6 26.4 0 52.8 11.2 71.2 29.6 18.4 18.4 29.6 44.8 29.6 71.2 0 26.4-11.2 52.8-29.6 71.2C288 172.8 262.4 183.2 236 183.2zM826.4 672.8m-50.4 0a6.3 6.3 0 1 0 100.8 0 6.3 6.3 0 1 0-100.8 0ZM236 773.6c-26.4 0-52.8-11.2-71.2-29.6-18.4-18.4-29.6-44.8-29.6-71.2 0-26.4 11.2-52.8 29.6-71.2 18.4-18.4 44.8-29.6 71.2-29.6 26.4 0 52.8 11.2 71.2 29.6 18.4 18.4 29.6 44.8 29.6 71.2 0 26.4-11.2 52.8-29.6 71.2C288 763.2 262.4 773.6 236 773.6zM214.4 377.6c0 26.4-11.2 52.8-29.6 71.2-18.4 18.4-44.8 29.6-71.2 29.6-26.4 0-52.8-11.2-71.2-29.6-18.4-18.4-29.6-44.8-29.6-71.2 0-26.4 11.2-52.8 29.6-71.2 18.4-18.4 44.8-29.6 71.2-29.6 26.4 0 52.8 11.2 71.2 29.6C203.2 324.8 214.4 351.2 214.4 377.6zM531.2 48.8c-23.2 0-46.4-9.6-62.4-25.6-16-16-25.6-39.2-25.6-62.4 0-23.2 9.6-46.4 25.6-62.4 16-16 39.2-25.6 62.4-25.6 23.2 0 46.4 9.6 62.4 25.6 16 16 25.6 39.2 25.6 62.4 0 23.2-9.6 46.4-25.6 62.4C576.8 39.2 554.4 48.8 531.2 48.8zM948 377.6m-63.2 0a7.9 7.9 0 1 0 126.4 0 7.9 7.9 0 1 0-126.4 0ZM826.4 158.4c-20 0-39.2-8-53.6-22.4-14.4-14.4-22.4-33.6-22.4-53.6 0-20 8-39.2 22.4-53.6 14.4-14.4 33.6-22.4 53.6-22.4 20 0 39.2 8 53.6 22.4 14.4 14.4 22.4 33.6 22.4 53.6 0 20-8 39.2-22.4 53.6C865.6 150.4 845.6 158.4 826.4 158.4zM531.2 896c-26.4 0-52.8-11.2-71.2-29.6-18.4-18.4-29.6-44.8-29.6-71.2 0-26.4 11.2-52.8 29.6-71.2 18.4-18.4 44.8-29.6 71.2-29.6 26.4 0 52.8 11.2 71.2 29.6 18.4 18.4 29.6 44.8 29.6 71.2 0 26.4-11.2 52.8-29.6 71.2C583.2 884.8 557.6 896 531.2 896z"  horiz-adv-x="1024" />

    
    <glyph glyph-name="tingzhi" unicode="&#58901;" d="M511.872598 792.975579c-226.062666 0-409.322479-183.259814-409.322479-409.322479s183.259814-409.322479 409.322479-409.322479c226.062666 0 409.322479 183.259814 409.322479 409.322479S737.934241 792.975579 511.872598 792.975579zM766.574534 128.951163c-33.095769-33.096792-71.623247-59.075467-114.51001-77.214593-44.375673-18.769482-91.543949-28.28623-140.192949-28.28623-48.649 0-95.816253 9.516748-140.192949 28.28623-42.886763 18.139126-81.414241 44.118823-114.51001 77.214593-33.096792 33.095769-59.075467 71.623247-77.214593 114.51001-18.769482 44.375673-28.28623 91.543949-28.28623 140.192949s9.516748 95.816253 28.28623 140.192949c18.140149 42.886763 44.118823 81.414241 77.214593 114.51001 33.095769 33.096792 71.623247 59.075467 114.51001 77.214593 44.376697 18.769482 91.543949 28.28623 140.192949 28.28623 48.649 0 95.816253-9.516748 140.192949-28.28623 42.886763-18.140149 81.414241-44.118823 114.51001-77.214593 33.096792-33.095769 59.075467-71.623247 77.214593-114.51001 18.769482-44.376697 28.28623-91.543949 28.28623-140.192949s-9.516748-95.816253-28.28623-140.192949C825.650001 200.573387 799.671327 162.046932 766.574534 128.951163zM421.390841 542.483524c-17.675568 0-32.054043-14.378475-32.054043-32.054043l0-253.55174c0-17.676591 14.378475-32.055067 32.054043-32.055067 17.676591 0 32.055067 14.378475 32.055067 32.055067L453.445908 510.429481C453.445908 528.100956 439.067432 542.483524 421.390841 542.483524zM601.957313 542.483524c-17.676591 0-32.05916-14.378475-32.05916-32.054043l0-253.55174c0-17.676591 14.382569-32.055067 32.05916-32.055067 17.671475 0 32.054043 14.378475 32.054043 32.055067L634.011356 510.429481C634.011356 528.100956 619.628788 542.483524 601.957313 542.483524z"  horiz-adv-x="1024" />

    
    <glyph glyph-name="data" unicode="&#58929;" d="M853.59 127.806h-68.316c-18.791 0-34.16 15.371-34.16 34.16v444.076c0 18.791 15.371 34.16 34.16 34.16h68.316c18.791 0 34.16-15.371 34.16-34.16v-444.076c0-18.791-15.371-34.16-34.16-34.16zM648.643 127.806h-68.316c-18.791 0-34.16 15.371-34.16 34.16v307.438c0 18.791 15.371 34.16 34.16 34.16h68.316c18.791 0 34.16-15.371 34.16-34.16v-307.438c0-18.791-15.371-34.16-34.16-34.16zM443.684 127.806h-68.316c-18.791 0-34.16 15.371-34.16 34.16v375.757c0 18.791 15.371 34.16 34.16 34.16h68.316c18.791 0 34.16-15.371 34.16-34.16v-375.757c0-18.791-15.371-34.16-34.16-34.16zM238.722 127.806h-68.316c-18.791 0-34.16 15.371-34.16 34.16v170.8c0 18.791 15.371 34.16 34.16 34.16h68.316c18.791 0 34.16-15.371 34.16-34.16v-170.8c0-18.791-15.371-34.16-34.16-34.16z"  horiz-adv-x="1024" />

    
    <glyph glyph-name="shouquan" unicode="&#58964;" d="M512 853.333333 128 682.666667l0-256c0-236.8 163.84-458.24 384-512 220.16 53.76 384 275.2 384 512L896 682.666667 512 853.333333zM426.666667 170.666667l-170.666667 170.666667 60.16 60.16L426.666667 291.413333l281.173333 281.173333L768 512 426.666667 170.666667z"  horiz-adv-x="1024" />

    
    <glyph glyph-name="yingyong-copy" unicode="&#58894;" d="M373.542 724.281h-144.514c-47.887 0-86.78-38.939-86.78-86.946v-144.931c0-48.006 29.451-88.364 77.337-88.364h154.673c47.936 0 88.385 40.38 88.385 88.385v143.625c0 48.006-41.165 88.233-89.101 88.233zM429.498 492.424c0 0-12.939-55.24-55.24-55.24h-154.673c-15.911 0-44.192 39.289-44.192 55.24v143.625c0 35.663 23.79 55.24 55.24 55.24h143.625c36.325 0 55.24-20.937 55.24-55.24v-143.625zM373.542 337.6h-144.514c-47.887 0-86.78-38.939-86.78-86.946v-144.931c0-48.006 29.451-88.364 77.337-88.364h154.673c47.936 0 88.385 40.38 88.385 88.385v143.624c0 48.007-41.165 88.234-89.101 88.234zM429.498 105.742c0 0-12.939-55.24-55.24-55.24h-154.673c-15.911 0-44.192 39.289-44.192 55.24v143.625c0 35.663 23.79 55.24 55.24 55.24h143.625c36.325 0 55.24-20.937 55.24-55.24v-143.625zM760.223 337.6h-144.513c-47.887 0-86.78-38.939-86.78-86.946v-144.931c0-48.006 29.451-88.364 77.337-88.364h154.673c47.936 0 88.385 40.38 88.385 88.385v143.624c-0.001 48.007-41.166 88.234-89.101 88.234zM816.179 105.742c0 0-12.939-55.24-55.24-55.24h-154.673c-15.912 0-44.192 39.289-44.192 55.24v143.625c0 35.663 23.79 55.24 55.24 55.24h143.625c36.325 0 55.24-20.937 55.24-55.24v-143.625zM853.182 626.733l-101.558 101.557c-33.946 33.946-91.497 33.283-125.394-0.612l-102.187-102.188c-33.861-33.861-33.828-88.897 0.118-122.842l102.481-102.482c33.944-33.944 83.309-41.659 117.169-7.798l109.37 109.369c33.897 33.898 33.945 91.051 0.001 124.996zM829.745 525.175l-109.371-109.37c-11.251-11.252-59.029-3.468-70.308 7.811l-101.558 101.558c-25.217 25.217-22.239 55.882 0 78.12l101.558 101.558c25.686 25.686 53.866 24.255 78.12 0l101.558-101.557c0.001-0.001 29.912-48.21 0.001-78.121z"  horiz-adv-x="1024" />

    
    <glyph glyph-name="renwu" unicode="&#59809;" d="M1003.161721 896 20.838279 896C9.332076 896 0 886.667924 0 875.161721l0-982.323441c0-11.506203 9.332076-20.838279 20.838279-20.838279l834.993332 0c11.506203 0 20.838279 9.332076 20.838279 20.838279s-9.332076 20.838279-20.838279 20.838279L41.676559-86.323441 41.676559 854.323441l940.646882 0 0-961.485162c0-11.506203 9.332076-20.838279 20.838279-20.838279s20.838279 9.332076 20.838279 20.838279L1024 875.161721C1024 886.667924 1014.667924 896 1003.161721 896zM228.578561 679.208959c-44.04865 0-79.880071-35.831422-79.880071-79.880071s35.831422-79.880071 79.880071-79.880071 79.880071 35.831422 79.880071 79.880071S272.627211 679.208959 228.578561 679.208959zM228.578561 561.125376c-21.064028 0-38.203512 17.139485-38.203512 38.203512s17.139485 38.203512 38.203512 38.203512 38.203512-17.139485 38.203512-38.203512S249.646061 561.125376 228.578561 561.125376zM857.199992 620.167167l-486.226521 0c-11.506203 0-20.838279-9.332076-20.838279-20.838279s9.332076-20.838279 20.838279-20.838279l486.226521 0c11.506203 0 20.838279 9.332076 20.838279 20.838279S868.709668 620.167167 857.199992 620.167167zM228.578561 463.880071c-11.506203 0-20.838279-9.332076-20.838279-20.838279s9.332076-20.838279 20.838279-20.838279c21.064028 0 38.203512-17.139485 38.203512-38.203512s-17.139485-38.203512-38.203512-38.203512-38.203512 17.139485-38.203512 38.203512c0 11.506203-9.332076 20.838279-20.838279 20.838279s-20.838279-9.332076-20.838279-20.838279c0-44.04865 35.831422-79.880071 79.880071-79.880071s79.880071 35.831422 79.880071 79.880071S272.627211 463.880071 228.578561 463.880071zM857.199992 404.838279l-486.226521 0c-11.506203 0-20.838279-9.332076-20.838279-20.838279s9.332076-20.838279 20.838279-20.838279l486.226521 0c11.506203 0 20.838279 9.332076 20.838279 20.838279S868.709668 404.838279 857.199992 404.838279zM228.578561 248.551183c-44.04865 0-79.880071-35.831422-79.880071-79.880071s35.831422-79.880071 79.880071-79.880071 79.880071 35.831422 79.880071 79.880071S272.627211 248.551183 228.578561 248.551183zM228.578561 130.4676c-21.064028 0-38.203512 17.139485-38.203512 38.203512s17.139485 38.203512 38.203512 38.203512 38.203512-17.139485 38.203512-38.203512S249.646061 130.4676 228.578561 130.4676zM857.199992 189.509391l-486.226521 0c-11.506203 0-20.838279-9.332076-20.838279-20.838279s9.332076-20.838279 20.838279-20.838279l486.226521 0c11.506203 0 20.838279 9.332076 20.838279 20.838279S868.709668 189.509391 857.199992 189.509391z"  horiz-adv-x="1024" />

    
    <glyph glyph-name="chenggong" unicode="&#59003;" d="M50.176 291.328c0 0 157.696 88.064 237.568 143.36l115.712-222.208c0 0 218.112 478.208 485.376 606.208 0 0-36.864-250.88 15.36-315.392 0 0-284.672-166.912-485.376-513.024C418.816-9.728 92.16 278.016 50.176 291.328z"  horiz-adv-x="1024" />

    
    <glyph glyph-name="bofang" unicode="&#58926;" d="M1010.838398 384.033432C1010.838398 659.109105 787.746368 882.09576 512.540702 882.09576 237.335039 882.09576 14.243009 659.109105 14.243009 384.033432 14.243009 108.957757 237.335039-114.028898 512.540702-114.028898 622.830592-114.028898 727.722258-78.0854 813.699371-12.797731 824.1221-4.870238 826.156812 10.009376 818.246338 20.427178 810.315101 30.865735 795.428457 32.89949 785.005729 24.971997 707.209003-34.110647 612.366342-66.588462 512.540702-66.588462 263.557955-66.588462 61.685102 135.168288 61.685102 384.033432 61.685102 632.919327 263.537193 834.676076 512.540702 834.676076 761.523449 834.676076 963.375541 632.919327 963.375541 384.033432 963.375541 291.871149 935.657732 203.92164 884.665269 129.544333 877.25309 118.73223 880.014488 103.977134 890.810941 96.568456 901.607391 89.15978 916.39022 91.919875 923.8024 102.711227 980.172327 184.933016 1010.838398 282.221189 1010.838398 384.033432L1010.838398 384.033432 1010.838398 384.033432ZM728.490466 399.514868C729.071812 409.787403 722.157933 421.554126 711.859781 424.314221 669.898962 451.375608 448.488686 577.987202 441.221845 577.987202 434.307966 577.987202 428.369917 574.625283 424.321248 569.665411 421.601374 566.988327 418.092527 559.392876 417.012883 555.42913 415.787902 550.988075 416.244672 247.211559 417.635754 243.185556 420.791639 231.356574 436.425731 222.059412 448.260301 225.234559 451.042462 226.168425 453.492426 227.579602 455.672478 229.468088L712.565702 376.873785C722.863854 379.63388 729.05105 389.283837 728.490466 399.514868L728.490466 399.514868ZM660.327493 398.33197C654.950032 391.940171 502.429411 311.793642 468.358307 289.754383 466.240542 287.388586 461.236802 288.239444 461.236802 292.348458L461.236802 502.717534C460.593169 512.03545 464.994797 512.429748 468.503643 510.458252 499.148952 493.171338 641.745142 413.626634 657.939819 406.902792 659.559286 406.238709 660.369018 404.86904 660.555881 403.457863 661.531714 401.984426 661.739337 400.01293 660.327493 398.33197L660.327493 398.33197ZM712.046642 424.189706C715.991499 421.637137 718.379174 419.956177 718.732136 419.395855L712.046642 424.189706 712.046642 424.189706Z"  horiz-adv-x="1024" />

    
    <glyph glyph-name="lishibanben" unicode="&#59213;" d="M947.484326 473.573061c-5.843078 28.554336-14.561647 56.644091-25.915229 83.483366-10.824533 25.592888-24.167422 50.288337-39.640836 73.467245l49.628304 49.626257L773.276678 680.14993l0-158.27784 61.869093 61.868069c10.272971-16.58984 19.299555-33.971719 26.870997-51.871391 9.689686-22.910802 17.130146-46.883797 22.118763-71.25895 5.121648-25.02393 7.716752-50.792826 7.716752-76.587306 0-25.796526-2.595105-51.561329-7.716752-76.587306-4.986571-24.373107-12.429077-48.347125-22.118763-71.25895-9.517771-22.499433-21.299095-44.204781-35.017538-64.509223-13.5936-20.122293-29.204136-39.042201-46.400796-56.238862-17.196661-17.196661-36.118616-32.809243-56.240909-46.400796-20.302395-13.718443-42.007743-25.499767-64.509223-35.017538-22.908756-9.688663-46.883797-17.130146-71.25895-22.118763-50.049906-10.243295-103.124705-10.243295-153.173588 0-24.373107 4.988618-48.348148 12.431124-71.257927 22.118763-22.502503 9.517771-44.207851 21.299095-64.510246 35.017538-20.122293 13.591553-39.041178 29.204136-56.240909 46.400796-17.193591 17.195637-32.806173 36.116569-46.400796 56.238862-13.716396 20.302395-25.497721 42.005696-35.015491 64.509223-9.689686 22.911826-17.132192 46.885843-22.118763 71.25895-5.121648 25.027-7.718799 50.795896-7.718799 76.587306 0 25.791409 2.597151 51.560306 7.718799 76.589352 4.987594 24.373107 12.429077 48.347125 22.118763 71.255881 9.517771 22.50148 21.299095 44.206828 35.015491 64.510246 13.591553 20.12127 29.204136 39.041178 46.400796 56.238862 17.198707 17.196661 36.119639 32.809243 56.240909 46.40182 20.302395 13.716396 42.007743 25.499767 64.510246 35.015491 22.908756 9.689686 46.882773 17.132192 71.257927 22.118763 50.04786 10.243295 103.123682 10.243295 153.173588 0l12.963243 63.34777c-58.56279 11.984962-120.53933 11.984962-179.099051 0-28.556383-5.843078-56.644091-14.561647-83.486436-25.913183-26.346041-11.146874-51.754734-24.935925-75.517951-40.990576-23.529903-15.898085-45.656853-34.153868-65.764819-54.257741-20.107967-20.110013-38.364773-42.234917-54.259788-65.766866-16.054651-23.762193-29.845749-49.169863-40.98853-75.517951-11.353582-26.841322-20.073174-54.930053-25.915229-83.48439-5.991458-29.284977-9.031701-59.413158-9.031701-89.550549 0-30.136368 3.039219-60.264549 9.031701-89.548502 5.842055-28.553313 14.561647-56.642045 25.915229-83.48439 11.144828-26.350135 24.935925-51.755758 40.98853-75.519997 15.900132-23.532973 34.156938-45.659923 54.259788-65.763796 20.107967-20.107967 42.233893-38.364773 65.764819-54.258765 23.762193-16.055674 49.169863-29.846772 75.519997-40.9916 26.841322-11.351536 54.928007-20.070104 83.48132-25.913183 29.281907-5.993504 59.411111-9.031701 89.550549-9.031701 30.140461 0 60.268642 3.039219 89.550549 9.031701 28.556383 5.843078 56.644091 14.563694 83.48439 25.913183 26.348088 11.144828 51.755758 24.935925 75.517951 40.990576 23.530926 15.897062 45.657876 34.151821 65.763796 54.259788 20.106943 20.104897 38.363749 42.230824 54.259788 65.763796 16.054651 23.765263 29.845749 49.171909 40.990576 75.519997 11.351536 26.842345 20.072151 54.931077 25.913183 83.482343 5.992481 29.281907 9.029654 59.410088 9.029654 89.549525C956.515003 414.162974 953.475783 444.293201 947.484326 473.573061L947.484326 473.573061zM451.633121 641.767761 451.633121 294.789189 471.117894 294.789189 516.293793 294.789189 769.915118 294.789189 769.915118 359.450884 516.293793 359.450884 516.293793 641.767761 451.633121 641.767761Z"  horiz-adv-x="1024" />

    
    <glyph glyph-name="05wangluoliuliang" unicode="&#58902;" d="M512 896a512 512 0 1 1 0-1024A512 512 0 0 1 512 896z m192.256-507.818667l-1.28-0.853333-58.624 162.474667-174.421333-302.165334-49.92-80.981333L292.949333 384H85.333333V469.333333h256v-0.341333L341.930667 469.333333l78.933333-136.618666 186.88 318.976-0.170667 0.341333 47.104 74.666667L750.848 469.333333H938.666667v-81.152H704.256z"  horiz-adv-x="1024" />

    
    <glyph glyph-name="tingzhi4" unicode="&#59279;" d="M512 0a384 384 0 1 1 0 768 384 384 0 0 1 0-768z m0-128C229.248-128 0 101.248 0 384S229.248 896 512 896s512-229.248 512-512-229.248-512-512-512zM341.333333 469.418667C341.333333 516.48 379.178667 554.666667 426.581333 554.666667h170.837334C644.48 554.666667 682.666667 516.821333 682.666667 469.418667v-170.837334A85.034667 85.034667 0 0 0 597.418667 213.333333H426.581333A85.034667 85.034667 0 0 0 341.333333 298.581333V469.418667z"  horiz-adv-x="1024" />

    
    <glyph glyph-name="zhongxinkaishi" unicode="&#58922;" d="M576 762.55744V832l-256-160 256-160V632.25856c128-29.25056 224-143.488 224-280.25856 0-158.78144-129.21344-288-288-288s-288 129.21856-288 288c0 35.39456-28.60544 64-64 64s-64-28.60544-64-64c0-229.38112 186.624-416 416-416s416 186.61888 416 416c0 207.55456-153.02656 379.648-352 410.55744z"  horiz-adv-x="1024" />

    
    <glyph glyph-name="icon-jiarugouwuchechenggong" unicode="&#58941;" d="M728.7808 543.6928a26.4704 26.4704 0 0 1-18.8416-7.8336l-247.1936-247.2448-97.28 97.28a26.6752 26.6752 0 0 1-37.7856-37.4784l116.3264-116.2752a26.624 26.624 0 0 1 37.6832 0l266.24 266.24a26.6752 26.6752 0 0 1-18.8416 45.5168zM537.6 19.0976A364.9024 364.9024 0 1 0 902.5024 384 364.9024 364.9024 0 0 0 537.6 19.0976z m0 680.96A316.2624 316.2624 0 1 1 853.8624 384 316.2624 316.2624 0 0 1 537.6 700.2624z"  horiz-adv-x="1024" />

    
    <glyph glyph-name="tingzhi1" unicode="&#58899;" d="M744.727273 849.454545H279.272727C150.737455 849.454545 46.545455 745.262545 46.545455 616.727273v-465.454546c0-128.512 104.192-232.727273 232.727272-232.727272h465.454546c128.512 0 232.727273 104.215273 232.727272 232.727272V616.727273c0 128.535273-104.215273 232.727273-232.727272 232.727272z m139.636363-698.181818a139.636364 139.636364 0 0 0-139.636363-139.636363H279.272727a139.636364 139.636364 0 0 0-139.636363 139.636363V616.727273a139.636364 139.636364 0 0 0 139.636363 139.636363h465.454546a139.636364 139.636364 0 0 0 139.636363-139.636363v-465.454546zM698.181818 616.727273H325.818182a46.545455 46.545455 0 0 1-46.545455-46.545455v-372.363636a46.545455 46.545455 0 0 1 46.545455-46.545455h372.363636a46.545455 46.545455 0 0 1 46.545455 46.545455V570.181818a46.545455 46.545455 0 0 1-46.545455 46.545455z"  horiz-adv-x="1024" />

    
    <glyph glyph-name="xitongpeizhi" unicode="&#58969;" d="M543.3 510.3V799.8c0 17.7-14.3 32-32 32s-32-14.3-32-32v-289.9c-54.6-14.6-95-64.8-95-124.2s40.4-109.5 95-124.2v-292.7c0-17.7 14.3-32 32-32s32 14.3 32 32V261c55.6 13.9 97 64.6 97 124.7s-41.3 110.7-97 124.6z m0-181c-9.2-5.2-19.8-8.1-31-8.1-12.1 0-23.4 3.4-33 9.3-18.6 11.3-31 31.8-31 55.2 0 23.4 12.4 43.9 31 55.2 9.6 5.9 20.9 9.3 33 9.3 11.2 0 21.8-2.9 31-8.1 19.7-11 33-32.2 33-56.4 0-24.3-13.3-45.4-33-56.4zM223 349.3V799.8c0 17.7-14.3 32-32 32s-32-14.3-32-32v-450.9c-54.6-14.6-95-64.8-95-124.2s40.4-109.5 95-124.2v-131.7c0-17.7 14.3-32 32-32s32 14.3 32 32V100c55.6 13.9 97 64.6 97 124.7s-41.3 110.7-97 124.6z m0-181c-9.2-5.2-19.8-8.1-31-8.1-12.1 0-23.4 3.4-33 9.3-18.6 11.3-31 31.8-31 55.2s12.4 43.9 31 55.2c9.6 5.9 20.9 9.3 33 9.3 11.2 0 21.8-2.9 31-8.1 19.7-11 33-32.2 33-56.4s-13.3-45.4-33-56.4zM863.2 669.3V799.8c0 17.7-14.3 32-32 32s-32-14.3-32-32v-130.9c-54.6-14.6-95-64.8-95-124.2s40.4-109.5 95-124.2v-451.7c0-17.7 14.3-32 32-32s32 14.3 32 32V420c55.6 13.9 97 64.6 97 124.7s-41.4 110.7-97 124.6z m0-181c-9.2-5.2-19.8-8.1-31-8.1-12.1 0-23.4 3.4-33 9.3-18.6 11.3-31 31.8-31 55.2s12.4 43.9 31 55.2c9.6 5.9 20.9 9.3 33 9.3 11.2 0 21.8-2.9 31-8.1 19.7-11 33-32.2 33-56.4s-13.4-45.4-33-56.4z"  horiz-adv-x="1024" />

    
    <glyph glyph-name="yingyongguanli" unicode="&#58916;" d="M623.421192 896H255.838858c-28.897982 0-52.522083-23.6241-52.522082-52.522083v-367.582334c0-28.897982 23.6241-52.522083 52.522082-52.522082h367.582334c28.897982 0 52.522083 23.6241 52.522083 52.522082v367.582334c0 28.897982-23.6241 52.522083-52.522083 52.522083zM1174.794693 896H807.212359c-28.897982 0-52.522083-23.6241-52.522083-52.522083v-367.582334c0-28.897982 23.6241-52.522083 52.522083-52.522082H1174.794693c28.897982 0 52.522083 23.6241 52.522083 52.522082v367.582334c0 28.897982-23.6241 52.522083-52.522083 52.522083z m-10.547764-409.628898H817.687878v346.559052h346.559051v-346.559052zM623.421192 344.626499H255.838858c-28.897982 0-52.522083-23.6241-52.522082-52.522082v-367.582334c0-28.897982 23.6241-52.522083 52.522082-52.522083h367.582334c28.897982 0 52.522083 23.6241 52.522083 52.522083V292.104417c0 28.897982-23.6241 52.522083-52.522083 52.522082z m-10.475518-409.556653h-346.559052V281.628898h346.559052v-346.559052zM1174.794693 344.626499H807.212359c-28.897982 0-52.522083-23.6241-52.522083-52.522082v-367.582334c0-28.897982 23.6241-52.522083 52.522083-52.522083H1174.794693c28.897982 0 52.522083 23.6241 52.522083 52.522083V292.104417c0 28.897982-23.6241 52.522083-52.522083 52.522082z m-10.547764-409.556653H817.687878V281.628898h346.559051v-346.559052z"  horiz-adv-x="1723" />

    
    <glyph glyph-name="daochu1" unicode="&#58883;" d="M573.952 465.408c0 22.016-17.92 39.936-39.936 39.936s-39.936-17.92-39.936-39.936v-152.576l-61.952 61.952c-14.336 14.336-37.376 14.336-51.712 0s-14.336-37.376 0-51.712L501.76 201.728c3.584-4.608 8.192-8.704 13.824-11.776 5.632-3.072 11.776-4.608 17.92-4.608h1.024c7.68 0 15.36 2.048 21.504 6.656 0.512 0.512 1.024 0.512 1.536 1.024 0 0 0.512 0 0.512 0.512 2.56 2.048 4.608 4.096 6.656 6.656l122.88 122.88c14.336 14.336 14.336 37.376 0 51.712s-37.376 14.336-51.712 0l-61.952-61.952V465.408zM653.824 665.6H293.888c-44.032 0-79.872-35.84-79.872-79.872v-479.744c0-44.032 35.84-79.872 79.872-79.872h479.744c44.032 0 79.872 35.84 79.872 79.872V465.408l-199.68 200.192z m119.808-560.128H293.888V585.728h320l159.744-159.744v-320.512z"  horiz-adv-x="1024" />

    
    <glyph glyph-name="banbenguanli" unicode="&#58943;" d="M198.4 704c83.2 83.2 198.4 128 313.6 128 249.6 0 448-204.8 448-448s-198.4-448-448-448-448 198.4-448 448c0 25.6 19.2 44.8 44.8 44.8s44.8-19.2 44.8-44.8c0-198.4 160-358.4 358.4-358.4s358.4 160 358.4 358.4-160 358.4-358.4 358.4c-89.6 0-172.8-32-236.8-89.6h57.6c25.6 0 44.8-19.2 44.8-44.8s-19.2-44.8-44.8-44.8h-179.2c-25.6 0-44.8 19.2-44.8 44.8v179.2c0 25.6 19.2 44.8 44.8 44.8s44.8-19.2 44.8-44.8v-83.2zM486.4 345.6c-12.8 6.4-19.2 19.2-19.2 38.4v224c0 25.6 19.2 44.8 44.8 44.8s44.8-19.2 44.8-44.8v-204.8l121.6-121.6c19.2-19.2 19.2-44.8 0-64-6.4-6.4-19.2-12.8-32-12.8s-25.6 6.4-32 12.8l-128 128z"  horiz-adv-x="1024" />

    
    <glyph glyph-name="zonglan" unicode="&#58923;" d="M813.906-128h-603.81C94.239-128 0-33.724 0 82.172V685.925C0 801.726 94.239 896 210.097 896h603.81C929.761 896 1024 801.726 1024 685.925v-603.753C1024-33.724 929.761-128 813.906-128zM210.097 847.245c-88.953 0-161.333-72.375-161.333-161.32v-603.753c0-88.946 72.381-161.412 161.333-161.412h603.81c88.95 0 161.331 72.466 161.331 161.412V685.925c0 88.944-72.381 161.32-161.331 161.32h-603.81zM405.504 396.639h-92.219c-51.609 0-93.622 42.013-93.622 93.623V589.97c0 51.61 42.013 93.623 93.622 93.623h92.219c51.61 0 93.623-42.013 93.623-93.623v-99.708c0-51.61-42.013-93.623-93.623-93.623z m-92.219 240.142c-25.863 0-46.811-20.948-46.811-46.811v-99.708c0-25.864 20.948-46.812 46.811-46.812h92.219c25.863 0 46.811 20.948 46.811 46.812V589.97c0 25.863-20.948 46.811-46.811 46.811h-92.219z m92.219-552.374h-92.219c-51.609 0-93.622 42.012-93.622 93.621v99.709c0 51.609 42.013 93.623 93.622 93.623h92.219c51.61 0 93.623-42.014 93.623-93.623v-99.709c0-51.609-42.013-93.621-93.623-93.621z m-92.219 240.141c-25.863 0-46.811-20.947-46.811-46.811v-99.709c0-25.863 20.948-46.811 46.811-46.811h92.219c25.863 0 46.811 20.947 46.811 46.811v99.709c0 25.863-20.948 46.811-46.811 46.811h-92.219z m397.431-240.141h-92.221c-51.609 0-93.623 42.012-93.623 93.621v33.705c0 51.609 42.014 93.623 93.623 93.623h92.221c51.607 0 93.621-42.014 93.621-93.623v-33.705c0-51.609-42.014-93.621-93.621-93.621z m-92.221 174.137c-25.861 0-46.811-20.947-46.811-46.811v-33.705c0-25.863 20.949-46.811 46.811-46.811h92.221c25.861 0 46.811 20.947 46.811 46.811v33.705c0 25.863-20.949 46.811-46.811 46.811h-92.221z m92.221 67.644h-92.221c-51.609 0-93.623 42.012-93.623 93.622V589.97c0 51.61 42.014 93.623 93.623 93.623h92.221c51.607 0 93.621-42.013 93.621-93.623v-170.043c0-51.727-42.014-93.739-93.621-93.739z m-92.221 310.593c-25.861 0-46.811-20.948-46.811-46.811v-170.043c0-25.863 20.949-46.811 46.811-46.811h92.221c25.861 0 46.811 20.947 46.811 46.811V589.97c0 25.863-20.949 46.811-46.811 46.811h-92.221z"  horiz-adv-x="1024" />

    
    <glyph glyph-name="cloud-node" unicode="&#58934;" d="M648.386 656.831c-59.443 16.935-121.214-14.938-143.132-79.043-8.638-28.894-4.982-61.105 10.293-88.672 2.322-4.321 5.314-9.295 8.964-12.95l-63.764-142.133c-28.559 6.311-57.451 1.328-80.696-12.95l-89.003 99.629c3.652 7.303 7.638 14.612 10.293 22.252 20.927 60.779-10.962 125.863-71.405 146.783-60.779 20.927-126.196-11.959-146.783-71.73-21.917-60.442 9.63-125.537 70.404-146.45 29.888-10.293 61.437-7.638 87.007 5.976l92.652-103.617c-3.319-6.311-6.975-13.615-9.295-20.257-8.638-29.224-4.982-61.106 10.293-88.674 15.274-27.567 39.525-46.824 69.745-54.798 59.443-16.935 121.214 14.94 141.142 73.725l1.991 5.641c8.638 29.224 4.981 61.106-10.293 88.674-5.314 9.294-10.293 16.935-17.596 24.576l61.105 134.505c2.322-0.669 3.318-0.989 5.642-1.991 22.252-6.643 46.159-5.978 66.748 0.329l75.717-84.018c-0.988-3.319-2.321-6.643-3.318-9.961-20.927-60.779 10.962-125.862 71.405-146.782 60.779-20.929 126.196 11.958 146.783 71.729 20.928 60.779-10.962 125.863-71.405 146.783-34.205 11.621-70.732 5.641-98.966-11.622l-64.094 71.405c8.298 9.63 14.938 21.917 19.591 35.205l1.991 5.642c8.638 28.894 4.982 61.105-10.292 88.672-17.263 26.568-41.848 44.831-71.73 54.137l0.006-0.015zM144.264 496.765c8.638 25.242 36.87 39.186 62.106 30.553 25.237-8.633 39.187-36.87 30.219-62.43-8.638-25.24-36.87-39.186-62.106-30.219-24.91 8.639-38.855 36.872-30.219 62.107v-0.011zM478.024 245.040c5.642-11.959 7.303-24.91 4.321-37.192l-0.669-2.322c-8.639-25.241-35.535-38.522-60.111-31.218-12.618 2.992-23.254 11.621-28.894 23.576-5.642 11.959-7.64 24.91-3.653 39.525 8.299 24.242 35.535 38.522 60.111 31.219 12.285-4.321 21.917-12.618 28.894-23.576l0.001-0.012zM878.86 288.541c-8.638-25.242-36.87-39.187-62.107-30.553-25.574 8.638-39.186 36.87-30.553 62.429 8.638 25.242 36.87 39.187 62.43 30.219 25.241-8.638 39.186-36.87 30.219-62.106l0.011 0.011zM660.009 568.834c5.978-11.959 7.64-24.91 4.321-37.192l-0.669-2.322c-8.638-25.575-34.205-38.855-60.11-31.219-12.618 2.993-23.254 11.622-28.894 23.576-5.642 11.959-7.303 24.91-3.652 39.527 8.298 24.241 35.534 38.522 60.109 31.218 12.285-2.992 21.918-11.288 28.895-23.576v-0.012z"  horiz-adv-x="1024" />

    
    <glyph glyph-name="shibai1" unicode="&#58918;" d="M512 790.528C286.72 790.528 105.472 609.28 105.472 384S286.72-22.528 512-22.528s409.6 184.32 406.528 406.528c0 225.28-181.248 406.528-406.528 406.528zM362.496 578.56c31.744 0 56.832-25.6 56.832-56.832 0-31.744-25.6-56.832-56.832-56.832s-56.832 25.6-56.832 56.832S330.752 578.56 362.496 578.56z m307.2-392.704h-1.536c-9.728 0-18.432 4.608-24.064 12.288-31.232 47.104-83.456 77.312-142.336 77.312s-110.592-30.72-141.824-77.312c-5.12-7.68-14.336-12.288-23.552-12.288h-2.56c-23.04 0-36.864 26.624-24.576 46.08 41.984 64 112.128 105.984 192 105.984s150.016-41.984 192-105.984c14.336-19.968 0-46.08-23.552-46.08z m-2.56 278.528c-31.232 0-56.832 25.6-56.832 56.832 0 31.744 25.6 56.832 56.832 56.832s56.832-25.6 56.832-56.832-25.088-56.832-56.832-56.832z"  horiz-adv-x="1024" />

    
    <glyph glyph-name="zongshu" unicode="&#58910;" d="M472.808727-127.441455A469.178182 469.178182 0 0 0 139.170909 10.705455 468.945455 468.945455 0 0 0 0.930909 344.436364 469.178182 469.178182 0 0 0 139.170909 678.027636a468.386909 468.386909 0 0 0 333.637818 138.146909h32.116364v-439.714909h439.714909v-32.116363a469.178182 469.178182 0 0 0-138.146909-333.684364 468.945455 468.945455 0 0 0-333.684364-138.146909z m-32.116363 878.312728c-209.780364-16.430545-375.482182-192.418909-375.482182-406.341818 0-224.814545 182.830545-407.598545 407.598545-407.598546 213.969455 0 389.911273 165.701818 406.341818 375.482182h-438.458181v438.458182zM1023.301818 416.488727L544.581818 417.326545V895.162182h32.116364c119.296 0 231.330909-46.405818 315.671273-130.746182a443.578182 443.578182 0 0 0 130.746181-315.671273v-32.256h0.139637z m-414.347636 64.930909l348.811636-0.744727c-15.546182 185.250909-163.560727 333.405091-348.811636 348.811636v-348.066909z"  horiz-adv-x="1024" />

    
    <glyph glyph-name="zhongxinkaishi1" unicode="&#58896;" d="M631.338346 800.221353V876.75188L349.08391 700.439098 631.338346 523.972331v132.581052c141.050226-32.182857 246.99188-158.142556 246.99188-309.047819 0-175.080902-142.43609-317.516992-317.516993-317.516993S243.296241 172.578647 243.296241 347.505564c0 38.958195-31.566917 70.525113-70.525113 70.525113-38.958195 0-70.525113-31.566917-70.525113-70.525113C102.09203 94.662256 307.969925-111.061654 560.813233-111.061654S1019.380451 94.662256 1019.380451 347.505564c0 228.821654-168.613534 418.685113-388.042105 452.715789z"  horiz-adv-x="1122" />

    
    <glyph glyph-name="qiyong" unicode="&#59433;" d="M447.232-10.24L557.056 139.008 447.232 169.984v-180.224zM61.44 341.76L371.2 248.832l385.792 323.84-298.496-349.184 332.288-101.376L962.56 778.24 61.44 341.76z"  horiz-adv-x="1024" />

    
    <glyph glyph-name="shouquan1" unicode="&#58884;" d="M460.8 241.152c-7.168 0-13.824 3.072-18.944 8.192l-134.656 137.728c-5.12 5.12-7.68 11.776-7.68 18.944 0 7.168 3.072 13.824 8.192 18.944s11.776 7.68 18.432 7.68c7.168 0 13.824-3.072 18.944-8.192l116.224-118.784 238.08 235.008c5.12 5.12 11.776 7.68 18.944 7.68 7.168 0 13.824-2.56 18.944-7.68 10.24-10.24 10.24-27.648 0-37.888l-257.024-253.952c-5.632-5.12-12.288-7.68-19.456-7.68zM512-56.832c-3.072 0-6.656 0.512-9.728 1.536-14.848 5.632-360.96 139.776-370.688 356.352v375.808c0 11.264 7.168 21.504 17.92 25.088l353.28 121.856c2.56 1.024 5.632 1.536 8.704 1.536 3.072 0 6.144-0.512 8.704-1.536l353.28-121.856c10.752-3.584 17.92-13.824 17.92-25.088v-374.272c-9.728-217.6-355.84-351.744-370.688-357.376-2.048-1.536-5.632-2.048-8.704-2.048z m-326.656 714.752v-355.328c6.144-137.728 206.848-254.976 324.608-303.104l2.048-1.024 2.048 1.024c52.736 22.016 317.44 140.8 324.608 304.128v354.304l-326.656 112.64-326.656-112.64z"  horiz-adv-x="1024" />

    
    <glyph glyph-name="daochu2" unicode="&#58885;" d="M504.037889 90.053536a45.283229 45.283229 0 0 0-33.336648 13.539458L85.566244 476.155637a45.22634 45.22634 0 0 0-13.596346 33.222871 45.397005 45.397005 0 0 0 46.819217 46.876106c13.198127 0 24.29138-4.551078 33.336649-13.539458l305.036019-292.861885V849.173387c0 12.913685 4.551078 23.893161 13.710123 33.109094A45.169452 45.169452 0 0 0 503.981 895.992604c12.970573 0 24.006938-4.551078 33.109094-13.710123 9.159045-9.159045 13.767012-20.19541 13.767012-33.109094v-599.263227l330.180727 292.861884a46.876106 46.876106 0 0 0 33.336648 13.539458c12.913685 0 23.893161-4.551078 33.109094-13.767011 9.102156-9.102156 13.710123-20.19541 13.710123-33.109095 0-12.686131-4.49419-23.779384-13.482569-33.279759l-410.393481-372.619531a45.22634 45.22634 0 0 0-33.279759-13.539458zM901.574573 196.264325c11.093253 0 20.593629-3.982193 28.444239-11.832804a38.797942 38.797942 0 0 0 11.832804-28.444239v-160.880616c0-33.507314-11.662138-61.894664-34.872637-85.162051a115.824941 115.824941 0 0 0-84.87761-35.49841H177.554913a118.328034 118.328034 0 0 0-85.446494 35.270856A118.328034 118.328034 0 0 0 56.894451-4.950222v160.880616c0 11.150142 3.925305 20.593629 11.775915 28.444239a38.797942 38.797942 0 0 0 28.444239 11.832803c11.093253 0 20.593629-3.982193 28.444239-11.832803a38.797942 38.797942 0 0 0 11.832804-28.444239v-160.880616c0-11.093253 3.925305-20.593629 11.775915-28.444239a38.741054 38.741054 0 0 1 28.444239-11.775915h644.546456a37.37573 37.37573 0 0 1 27.818466 11.775915 39.366827 39.366827 0 0 1 11.434584 28.444239v160.880616c0 11.150142 3.982193 20.593629 11.832803 28.444239a38.797942 38.797942 0 0 0 28.444239 11.832803h-0.113777z"  horiz-adv-x="1024" />

    
    <glyph glyph-name="dashboard1" unicode="&#58983;" d="M512-128a512 512 0 1 0 0 1024 512 512 0 0 0 0-1024z m-286.72 219.648a509.44 509.44 0 0 0 573.44 0 409.6 409.6 0 1 1-573.44 0z m313.344 391.168l154.624 154.624 72.192-72.192-154.624-154.624a102.4 102.4 0 1 0-72.192 72.192z"  horiz-adv-x="1024" />

    
    <glyph glyph-name="configuration" unicode="&#58905;" d="M871.664 324.79200000000003l35.096 35.096-61.424 61.4-35.08-35.088c-21.936 17.544-48.256 26.312-78.952 30.696v48.256H643.584v-48.256c-26.328-4.384-52.64-17.544-78.96-30.696l-35.088 35.088-61.4-61.4 35.088-35.096c-13.16-21.936-26.32-48.24-30.696-78.952h-48.256v-87.728h48.256c4.384-26.312 17.544-52.624 30.696-78.936l-35.088-30.704 61.4-61.424 35.088 35.104c21.928-17.552 48.248-26.32 78.96-30.704v-48.256h87.72v43.856c26.312 4.392 52.632 17.544 78.952 30.712l35.08-35.096 61.424 61.4-35.096 35.112c13.168 21.92 26.32 48.232 30.704 78.936h48.24V245.832h-48.24c-4.384 30.712-17.536 57.016-30.704 78.96z m-184.216-254.4c-70.184 0-131.584 61.408-131.584 131.576 0 74.576 61.4 131.592 131.584 131.592 74.56 0 131.576-57.016 131.576-131.592 0-70.168-57.016-131.576-131.576-131.576zM424.28 737.08L380.416 824.808H73.384v-877.232h350.888v87.736H161.112V561.648h701.792V473.92h87.712V737.08H424.28z"  horiz-adv-x="1024" />

    
    <glyph glyph-name="yunhangzhong" unicode="&#58932;" d="M336-70.4c-31.2 0-60.8 12.8-83.2 34.4-21.6 21.6-34.4 52-34.4 83.2 0 31.2 12.8 60.8 34.4 83.2 21.6 21.6 52 34.4 83.2 34.4 31.2 0 60.8-12.8 83.2-34.4 21.6-21.6 34.4-52 34.4-83.2 0-31.2-12.8-60.8-34.4-83.2-22.4-22.4-52.8-34.4-83.2-34.4z m0 194.4c-20 0-40.8-8.8-54.4-22.4-14.4-14.4-22.4-34.4-22.4-54.4s8.8-40.8 22.4-54.4c14.4-14.4 34.4-22.4 54.4-22.4s40.8 8.8 54.4 22.4c14.4 14.4 22.4 34.4 22.4 54.4s-8.8 40.8-22.4 54.4c-14.4 13.6-34.4 22.4-54.4 22.4zM344 604.8c-31.2 0-60.8 12.8-83.2 34.4-21.6 21.6-34.4 52-34.4 83.2 0 31.2 12.8 60.8 34.4 83.2C282.4 827.2 312.8 840 344 840c31.2 0 60.8-12.8 83.2-34.4 21.6-21.6 34.4-52 34.4-83.2 0-31.2-12.8-60.8-34.4-83.2-22.4-21.6-52.8-34.4-83.2-34.4zM344 800c-20 0-40.8-8.8-54.4-22.4-14.4-14.4-22.4-34.4-22.4-54.4s8.8-40.8 22.4-54.4c14.4-14.4 34.4-22.4 54.4-22.4s40.8 8.8 54.4 22.4c14.4 14.4 22.4 34.4 22.4 54.4s-8.8 40.8-22.4 54.4C384 791.2 364 800 344 800zM149.6 232c-39.2 0-76.8 16-104 43.2-27.2 27.2-43.2 65.6-43.2 104 0 39.2 16 76.8 43.2 104 27.2 27.2 65.6 43.2 104 43.2s76.8-16 104-43.2c27.2-27.2 43.2-65.6 43.2-104 0-39.2-16-76.8-43.2-104-27.2-28-65.6-43.2-104-43.2z m0 255.2c-28 0-56-12-76-31.2-20-20-31.2-48-31.2-76s12-56 31.2-76c20-20 48-31.2 76-31.2s56 12 76 31.2c20 20 31.2 48 31.2 76s-12 56-31.2 76c-20 19.2-48.8 31.2-76 31.2zM740-46.4c-24.8 0-48.8 9.6-65.6 27.2-17.6 17.6-27.2 41.6-27.2 65.6 0 24.8 9.6 48.8 27.2 65.6 17.6 17.6 41.6 27.2 65.6 27.2s48.8-9.6 65.6-27.2c17.6-17.6 27.2-41.6 27.2-65.6 0-24.8-9.6-48.8-27.2-65.6-16.8-16.8-40.8-27.2-65.6-27.2z m0 146.4c-13.6 0-28-5.6-37.6-15.2-9.6-9.6-15.2-24-15.2-37.6 0-13.6 5.6-28 15.2-37.6 9.6-9.6 24-15.2 37.6-15.2 13.6 0 28 5.6 37.6 15.2 9.6 9.6 15.2 24 15.2 37.6s-5.6 28-15.2 37.6c-9.6 8.8-24 15.2-37.6 15.2zM942.4 300.8c-22.4 0-44 8.8-60 24.8s-24.8 37.6-24.8 60 8.8 44 24.8 60 37.6 24.8 60 24.8 44-8.8 60-24.8 24.8-37.6 24.8-60-8.8-44-24.8-60-37.6-24.8-60-24.8z m0 129.6c-12 0-23.2-4.8-32-12.8-8-8-12.8-20-12.8-32s4.8-23.2 12.8-32c8-8 20-12.8 32-12.8s23.2 4.8 32 12.8c8 8 12.8 20 12.8 32s-4.8 23.2-12.8 32c-8.8 8-20.8 12.8-32 12.8zM743.2 661.6c-18.4 0-36.8 7.2-49.6 20.8-12.8 12.8-20.8 31.2-20.8 49.6 0 18.4 7.2 36.8 20.8 49.6 12.8 12.8 31.2 20.8 49.6 20.8 18.4 0 36.8-7.2 49.6-20.8 12.8-12.8 20.8-31.2 20.8-49.6 0-18.4-7.2-36.8-20.8-49.6-13.6-13.6-31.2-20.8-49.6-20.8z m0 100c-8 0-16-3.2-21.6-8.8-5.6-5.6-8.8-13.6-8.8-21.6 0-8 3.2-16 8.8-21.6 5.6-5.6 13.6-8.8 21.6-8.8s16 3.2 21.6 8.8c5.6 5.6 8.8 13.6 8.8 21.6 0 8-3.2 16-8.8 21.6-6.4 5.6-14.4 8.8-21.6 8.8z"  horiz-adv-x="1027" />

    
    <glyph glyph-name="jiedian-" unicode="&#58952;" d="M648.386 656.831c-59.443 16.935-121.214-14.938-143.132-79.043-8.638-28.894-4.982-61.105 10.293-88.672 2.322-4.321 5.314-9.295 8.964-12.95l-63.764-142.133c-28.559 6.311-57.451 1.328-80.696-12.95l-89.003 99.629c3.652 7.303 7.638 14.612 10.293 22.252 20.927 60.779-10.962 125.863-71.405 146.783-60.779 20.927-126.196-11.959-146.783-71.73-21.917-60.442 9.63-125.537 70.404-146.45 29.888-10.293 61.437-7.638 87.007 5.976l92.652-103.617c-3.319-6.311-6.975-13.615-9.295-20.257-8.638-29.224-4.982-61.106 10.293-88.674 15.274-27.567 39.525-46.824 69.745-54.798 59.443-16.935 121.214 14.94 141.142 73.725l1.991 5.641c8.638 29.224 4.981 61.106-10.293 88.674-5.314 9.294-10.293 16.935-17.596 24.576l61.105 134.505c2.322-0.669 3.318-0.989 5.642-1.991 22.252-6.643 46.159-5.978 66.748 0.329l75.717-84.018c-0.988-3.319-2.321-6.643-3.318-9.961-20.927-60.779 10.962-125.862 71.405-146.782 60.779-20.929 126.196 11.958 146.783 71.729 20.928 60.779-10.962 125.863-71.405 146.783-34.205 11.621-70.732 5.641-98.966-11.622L708.82 473.19c8.298 9.63 14.938 21.917 19.591 35.205l1.991 5.642c8.638 28.894 4.982 61.105-10.292 88.672-17.263 26.568-41.848 44.831-71.73 54.137l0.006-0.015zM144.264 496.765c8.638 25.242 36.87 39.186 62.106 30.553 25.237-8.633 39.187-36.87 30.219-62.43-8.638-25.24-36.87-39.186-62.106-30.219-24.91 8.639-38.855 36.872-30.219 62.107v-0.011z m333.76-251.725c5.642-11.959 7.303-24.91 4.321-37.192l-0.669-2.322c-8.639-25.241-35.535-38.522-60.111-31.218-12.618 2.992-23.254 11.621-28.894 23.576-5.642 11.959-7.64 24.91-3.653 39.525 8.299 24.242 35.535 38.522 60.111 31.219 12.285-4.321 21.917-12.618 28.894-23.576l0.001-0.012z m400.836 43.501c-8.638-25.242-36.87-39.187-62.107-30.553-25.574 8.638-39.186 36.87-30.553 62.429 8.638 25.242 36.87 39.187 62.43 30.219 25.241-8.638 39.186-36.87 30.219-62.106l0.011 0.011zM660.009 568.834c5.978-11.959 7.64-24.91 4.321-37.192l-0.669-2.322c-8.638-25.575-34.205-38.855-60.11-31.219-12.618 2.993-23.254 11.622-28.894 23.576-5.642 11.959-7.303 24.91-3.652 39.527 8.298 24.241 35.534 38.522 60.109 31.218 12.285-2.992 21.918-11.288 28.895-23.576v-0.012z"  horiz-adv-x="1024" />

    
    <glyph glyph-name="wangluoliuliangx" unicode="&#59249;" d="M962.56 266.24l-281.6-322.56-5.12-5.12c-5.12-5.12-5.12-5.12-10.24-5.12h-5.12c-5.12 0-10.24-5.12-15.36-5.12h-5.12c-5.12 0-10.24 0-15.36 5.12h-5.12c-5.12 0-5.12 5.12-10.24 5.12l-5.12 5.12-10.24 10.24v5.12c0 5.12-5.12 10.24-5.12 20.48V793.6c0 30.72 20.48 51.2 51.2 51.2s51.2-20.48 51.2-51.2v-445.44H921.6c46.08 0 71.68-51.2 40.96-81.92zM102.4 419.84h230.4V-25.6c0-30.72 20.48-51.2 51.2-51.2s51.2 20.48 51.2 51.2V793.6c0 5.12 0 10.24-5.12 20.48v5.12c0 5.12-5.12 10.24-10.24 10.24l-5.12 5.12s-5.12 0-5.12 5.12h-5.12C399.36 844.8 389.12 844.8 384 844.8h-5.12c-5.12 0-5.12 0-10.24-5.12h-5.12c-5.12 0-10.24-5.12-10.24-5.12s-5.12 0-5.12-5.12L61.44 501.76c-30.72-30.72-5.12-81.92 40.96-81.92z"  horiz-adv-x="1024" />

    
    <glyph glyph-name="guanliyuanpeizhi" unicode="&#58897;" d="M322.064516 385.651613c-89.187097 44.593548-150.296774 133.780645-150.296774 241.135484C171.767742 773.780645 292.335484 894.348387 439.329032 894.348387s267.56129-120.567742 267.561291-267.56129c0-145.341935-113.96129-262.606452-259.303226-267.561291H445.935484c-221.316129 0-401.341935-180.025806-401.341936-401.341935 0-13.212903-8.258065-23.122581-23.12258-23.122581S0-55.329032 0-42.116129c0 203.148387 137.083871 374.916129 322.064516 427.767742z m118.916129 18.167742c122.219355 0 222.967742 100.748387 222.967742 222.967742S563.2 849.754839 440.980645 849.754839s-224.619355-99.096774-224.619355-222.967742 100.748387-222.967742 224.619355-222.967742z m611.096774-146.993549l4.954839-11.56129-52.851613-64.412903c-8.258065-11.56129-8.258065-29.729032 0-39.63871l52.851613-62.76129-4.954839-11.56129c-11.56129-31.380645-26.425806-62.76129-49.548387-87.535484l-8.258064-8.258065-82.580645 13.212903c-13.212903 1.651613-29.729032-6.606452-33.032258-19.819354l-29.729033-80.929033-11.56129-1.651613c-42.941935-8.258065-84.232258-8.258065-127.174194 0l-13.212903 1.651613-26.425806 77.625807c-4.954839 13.212903-19.819355 23.122581-33.032258 19.819355l-84.232258-13.212904-8.258065 8.258065c-11.56129 11.56129-19.819355 24.774194-26.425806 37.987097-8.258065 14.864516-18.167742 33.032258-23.122581 51.2l-4.954839 11.56129 56.154839 62.76129c8.258065 11.56129 8.258065 29.729032 0 37.987097l-52.851613 64.412903 4.954839 11.561291c11.56129 33.032258 29.729032 62.76129 51.2 89.187096l8.258064 8.258065 80.929033-13.212903c13.212903-1.651613 29.729032 6.606452 36.335483 19.819355l29.729033 77.625806 11.56129 1.651613c39.63871 8.258065 82.580645 8.258065 125.522581 0l13.212903-1.651613 26.425806-75.974194c4.954839-13.212903 19.819355-24.774194 36.335484-23.12258l82.580645 11.56129 8.258065-8.258064c11.56129-13.212903 19.819355-24.774194 26.425806-39.63871 3.303226-9.909677 9.909677-28.077419 16.516129-42.941936z m-62.76129 26.425807c-4.954839 8.258065-8.258065 14.864516-14.864516 24.774193l-59.458065-6.606451c-36.335484-4.954839-71.019355 18.167742-82.580645 51.2l-18.167742 51.2c-26.425806 4.954839-52.851613 4.954839-80.929032 0L715.148387 350.967742c-11.56129-33.032258-49.548387-56.154839-84.232258-49.548387l-56.154839 8.258064c-13.212903-14.864516-23.122581-36.335484-31.380645-52.851613l37.987097-44.593548c23.122581-26.425806 23.122581-69.367742 0-95.793548l-37.987097-44.593549c4.954839-11.56129 8.258065-19.819355 14.864516-31.380645 4.954839-8.258065 8.258065-14.864516 14.864516-23.122581l59.458065 8.258065c36.335484 4.954839 71.019355-18.167742 82.580645-51.2l18.167742-52.851613c26.425806-4.954839 56.154839-4.954839 82.580645 0l19.819355 56.154839c11.56129 33.032258 49.548387 56.154839 82.580645 49.548387l56.154839-8.258065c11.56129 14.864516 23.122581 33.032258 29.729032 52.851613l-36.335484 42.941936c-23.122581 26.425806-24.774194 69.367742-1.651613 95.793548l37.987097 44.593549c-3.303226 8.258065-8.258065 16.516129-14.864516 28.077419z m-214.709677-222.967742c-56.154839 0-100.748387 44.593548-100.748387 100.748387 0 56.154839 44.593548 100.748387 100.748387 100.748387 56.154839 0 100.748387-44.593548 100.748387-100.748387 0-56.154839-46.245161-100.748387-100.748387-100.748387z m0 44.593548c31.380645 0 56.154839 24.774194 56.154838 56.154839s-24.774194 56.154839-56.154838 56.154839-56.154839-24.774194-56.154839-56.154839 24.774194-56.154839 56.154839-56.154839z"  horiz-adv-x="1057" />

    
    <glyph glyph-name="lvzhou_zongshu" unicode="&#58936;" d="M967.89390222 407.59864889C967.89162667 652.16625778 770.27555555 851.32515555 524.51555555 851.62439111V385.13777778h443.60476445c0.34247111 7.96444445-0.22641778 15.22232889-0.22641778 22.46087111zM506.50453333-30.440106669999977c-218.42944-0.00910222-395.63832889 176.74695111-395.63036444 395.17525334C110.86848 565.44369778 260.55111111 730.87772445 453.97333333 756.45155555v56.32455112C228.69333333 786.86776889 54.96718222 596.02488889 54.96718222 364.40746666999996c0-249.30417778 202.17059555-450.76138667 451.46908445-450.76593778C734.9248-86.35278222 923.79022222 83.62666666999996 953.72288 304.35555554999996H897.21742222c-29.47299555-190.00888889-193.15029333-334.80021333-390.71288889-334.79566222z"  horiz-adv-x="1024" />

    
    <glyph glyph-name="jiedianguanli" unicode="&#58886;" d="M947.2 179.2V128l-58.3-19.4c-2.9-9.3-6.4-18.4-11-26.9l27.4-54.8-36.2-36.2-55.6 27.8c-8.3-4.3-16.8-8.2-25.9-11L768-51.2h-51.2l-19.6 58.7c-9.1 2.8-17.6 6.6-25.9 11l-55.6-27.8-36.2 36.2 27.4 54.8c-4.6 8.5-8.1 17.5-11 26.9L537.6 128v51.2l58.3 19.4c2.9 9.3 6.4 18.4 11 26.9l-27.4 54.8 36.2 36.2 55.6-27.8c8.3 4.3 16.8 8.1 25.9 11l19.6 58.7H768l19.6-58.7c9.1-2.8 17.6-6.6 25.9-11l55.6 27.8 36.2-36.2-27.4-54.8c4.6-8.5 8.1-17.5 11-26.9l58.3-19.4z m-204.8 51.2c-42.4 0-76.8-34.4-76.8-76.8s34.4-76.8 76.8-76.8 76.8 34.4 76.8 76.8-34.4 76.8-76.8 76.8zM768 409.6h-88.1l-11.7-35-4.1-12.2c-35.1 9.7-62.6 37.4-71.7 72.8H307.2l146.4-146.4c16.6 11.5 36.6 18.4 58.4 18.4 6.8 0 13.5-0.7 20-2l-14.8-14.8 16.5-33 11-21.9-23.2-7.7-35-11.7V106c-44.1 11.4-76.8 51.1-76.8 98.8 0 15 3.4 29.2 9.2 42l-156 155.9c-18.4-26.7-48.9-44.3-83.7-44.3-56.6 0-102.4 45.8-102.4 102.4s45.8 102.4 102.4 102.4c34.9 0 65.3-17.6 83.7-44.3l155.9 155.9c-5.8 12.8-9.2 27-9.2 42 0 56.6 45.8 102.4 102.4 102.4s102.4-45.8 102.4-102.4S568.6 614.4 512 614.4c-21.7 0-41.8 6.9-58.4 18.4L307.2 486.4h285.2c11.4 44.1 51.1 76.8 98.8 76.8 56.6 0 102.4-45.8 102.4-102.4 0-18.7-5.4-36.1-14.2-51.2H768z"  horiz-adv-x="1024" />

    
    <glyph glyph-name="shibai2" unicode="&#58978;" d="M647.744 610.24L512 474.496 376.256 610.24 285.696 519.744 421.44 384l-135.744-135.744 90.56-90.496L512 293.504l135.744-135.744 90.496 90.496L602.496 384l135.744 135.744-90.496 90.496zM512 832a448 448 0 1 1 0-896A448 448 0 0 1 512 832z m0-832A384 384 0 0 0 512 768a384 384 0 0 0 0-768z"  horiz-adv-x="1024" />

    
    <glyph glyph-name="daochu3" unicode="&#58898;" d="M576 512v-320H448V512H256l256 256 256-256H576zM128 448l64 0 0-448-64 0 0 448ZM832 448l64 0 0-448-64 0 0 448ZM896 64l0-64-768 0 0 64 768 0Z"  horiz-adv-x="1024" />

    
    <glyph glyph-name="shanchu" unicode="&#58915;" d="M731.918 715.466H293.285c-40.383 0-73.106-32.72-73.106-73.103v-24.368h584.844v24.368c0.001 40.383-32.72 73.103-73.105 73.103m-127.696 48.735l10.756-76.91H410.225l10.756 76.91h183.24m5.855 48.735H415.128c-20.108 0-38.813-16.277-41.621-36.218L359.252 674.75c-2.784-19.917 11.4-36.194 31.508-36.194h243.685c20.108 0 34.293 16.276 31.484 36.217l-14.255 101.969c-2.786 19.917-21.49 36.194-41.598 36.194m134.026-243.675H281.1c-26.795 0-46.761-21.845-44.334-48.544l39.933-438.996c2.403-26.7 26.344-48.544 53.14-48.544h365.527c26.795 0 50.736 21.845 53.14 48.544l39.932 438.996c2.426 26.699-17.54 48.544-44.336 48.544M415.128 130.647h-73.106L317.653 471.79h97.474v-341.144z m146.211 0h-97.474V471.79h97.474v-341.144z m121.842 0h-73.106V471.79h97.474l-24.368-341.144z"  horiz-adv-x="1024" />

    
    <glyph glyph-name="jinyong" unicode="&#59046;" d="M510.683429-125.44A510.610286 510.610286 0 0 0 0 385.243429a510.683429 510.683429 0 1 0 1021.366857 0.073142 510.683429 510.683429 0 0 0-510.683428-510.756571zM95.670857 385.316571a415.012571 415.012571 0 0 1 414.939429-415.012571 412.745143 412.745143 0 0 1 257.389714 89.892571L185.563429 642.706286A413.257143 413.257143 0 0 1 95.670857 385.316571zM510.683429 800.182857a413.257143 413.257143 0 0 1-257.462858-89.892571l582.509715-582.436572a412.16 412.16 0 0 1 89.892571 257.389715A414.939429 414.939429 0 0 1 510.683429 800.182857z m0 0"  horiz-adv-x="1034" />

    
    <glyph glyph-name="jihuarenwu1" unicode="&#58914;" d="M511.437588-54.659874c-241.449605 0-437.892718 196.494256-437.892718 437.943862s196.391969 437.943862 437.892718 437.943861c241.449605 0 437.943862-196.494256 437.943861-437.943861 0-241.398462-196.494256-437.943862-437.943861-437.943862m0 949.227849C229.533282 894.567975 0.1536 665.239437 0.1536 383.283988s229.379682-511.283988 511.283988-511.283988c281.955449 0 511.283988 229.328539 511.283987 511.283988S793.393037 894.567975 511.437588 894.567975M694.020746 383.283988h-182.583158V638.849266a36.516632 36.516632 0 1 1-73.033264 0v-292.08191c0-20.252922 16.314854-36.516632 36.516632-36.516632h219.09979a36.516632 36.516632 0 1 1 0 73.033264"  horiz-adv-x="1024" />

    
    <glyph glyph-name="xitongshezhixianxing" unicode="&#58895;" d="M623.650133 683.9424a319.031467 319.031467 0 0 0 20.650667-8.5888l44.48 25.2928a360.448 360.448 0 0 1-78.656 32.477867l13.525333-49.181867zM379.6992 675.3536a317.636267 317.636267 0 0 0 20.650667 8.5888l13.525333 49.1776a360.238933 360.238933 0 0 1-78.656-32.477867l44.48-25.288533zM220.6464 516.296533l-25.2928 44.48a360.277333 360.277333 0 0 1-32.4736-78.651733l49.1776 13.525333a316.535467 316.535467 0 0 0 8.5888 20.6464zM803.3536 251.6992l25.2928-44.48a360.448 360.448 0 0 1 32.477867 78.656l-49.1776-13.525333a320.0768 320.0768 0 0 0-8.593067-20.650667zM400.349867 84.0576a317.636267 317.636267 0 0 0-20.650667 8.5888l-44.48-25.2928a360.448 360.448 0 0 1 78.656-32.477867l-13.525333 49.181867zM803.3536 516.3008a316.6464 316.6464 0 0 0 8.5888-20.650667l49.1776-13.525333a360.238933 360.238933 0 0 1-32.477867 78.656l-25.288533-44.48zM212.0576 272.349867l-49.1776 13.525333a360.238933 360.238933 0 0 1 32.477867-78.656l25.2928 44.48a315.310933 315.310933 0 0 0-8.593067 20.650667zM644.296533 92.6464a317.521067 317.521067 0 0 0-20.6464-8.5888l-13.525333-49.1776a360.277333 360.277333 0 0 1 78.651733 32.4736l-44.48 25.2928zM691.204267 649.143467l58.282666 34.9696a8.533333 8.533333 0 0 0 10.423467-1.284267l50.9184-50.9184a8.533333 8.533333 0 0 0 1.284267-10.423467l-34.9696-58.282666a319.223467 319.223467 0 0 0 26.210133-46.907734l63.278933 111.2832a8.5376 8.5376 0 0 1-1.3824 10.2528l-99.413333 99.413334a8.533333 8.533333 0 0 1-10.2528 1.3824l-111.2832-63.278934a318.762667 318.762667 0 0 0 46.903467-26.205866zM220.6464 516.296533a319.445333 319.445333 0 0 0 26.210133 46.907734l-34.9696 58.282666a8.533333 8.533333 0 0 0 1.284267 10.423467l50.9184 50.9184a8.533333 8.533333 0 0 0 10.423467 1.284267l58.282666-34.9696a319.3984 319.3984 0 0 0 46.903467 26.210133L268.416 738.632533a8.5376 8.5376 0 0 1-10.2528-1.3824l-99.413333-99.413333a8.533333 8.533333 0 0 1-1.3824-10.2528l63.278933-111.287467zM197.717333 323.904l-63.253333 15.812267a8.5376 8.5376 0 0 0-6.464 8.277333v72.008533a8.533333 8.533333 0 0 0 6.464 8.277334l63.253333 15.812266a317.678933 317.678933 0 0 0 14.340267 51.554134l-120.452267-33.1264a8.533333 8.533333 0 0 1-6.272-8.226134v-140.5952a8.533333 8.533333 0 0 1 6.272-8.226133l120.452267-33.1264a317.4144 317.4144 0 0 0-14.340267 51.5584zM451.904 698.282667l15.812267 63.253333a8.5376 8.5376 0 0 0 8.277333 6.464h72.008533a8.533333 8.533333 0 0 0 8.277334-6.464l15.812266-63.253333a317.678933 317.678933 0 0 0 51.554134-14.340267l-33.1264 120.452267a8.533333 8.533333 0 0 1-8.226134 6.272h-140.5952a8.533333 8.533333 0 0 1-8.226133-6.272l-33.1264-120.452267a317.4144 317.4144 0 0 0 51.5584 14.340267zM803.3536 251.6992a319.445333 319.445333 0 0 0-26.210133-46.907733l34.9696-58.282667a8.533333 8.533333 0 0 0-1.284267-10.423467l-50.9184-50.9184a8.533333 8.533333 0 0 0-10.423467-1.284266l-58.282666 34.9696a319.223467 319.223467 0 0 0-46.907734-26.210134l111.2832-63.278933a8.5376 8.5376 0 0 1 10.2528 1.3824l99.413334 99.413333a8.533333 8.533333 0 0 1 1.3824 10.2528l-63.274667 111.287467zM932.394667 462.523733l-120.452267 33.1264a317.678933 317.678933 0 0 0 14.340267-51.554133l63.253333-15.812267a8.5376 8.5376 0 0 0 6.464-8.277333v-72.008533a8.533333 8.533333 0 0 0-6.464-8.277334l-63.253333-15.812266a317.678933 317.678933 0 0 0-14.340267-51.554134l120.452267 33.1264a8.533333 8.533333 0 0 1 6.272 8.226134v140.5952a8.533333 8.533333 0 0 1-6.272 8.221866zM572.096 69.717333l-15.812267-63.253333a8.5376 8.5376 0 0 0-8.277333-6.464h-72.008533a8.533333 8.533333 0 0 0-8.277334 6.464l-15.812266 63.253333a317.678933 317.678933 0 0 0-51.554134 14.340267l33.122134-120.452267a8.533333 8.533333 0 0 1 8.226133-6.272h140.5952a8.533333 8.533333 0 0 1 8.226133 6.272l33.1264 120.452267a317.248 317.248 0 0 0-51.554133-14.340267zM332.795733 118.856533l-58.282666-34.9696a8.533333 8.533333 0 0 0-10.423467 1.284267l-50.9184 50.9184a8.533333 8.533333 0 0 0-1.284267 10.423467l34.9696 58.282666a319.445333 319.445333 0 0 0-26.210133 46.907734L157.367467 140.416a8.5376 8.5376 0 0 1 1.3824-10.2528l99.413333-99.413333a8.533333 8.533333 0 0 1 10.2528-1.3824l111.2832 63.278933a319.3984 319.3984 0 0 0-46.903467 26.210133zM512 576c-106.039467 0-192-85.960533-192-192s85.960533-192 192-192 192 85.960533 192 192-85.960533 192-192 192z m0-341.333333c-82.474667 0-149.333333 66.858667-149.333333 149.333333s66.858667 149.333333 149.333333 149.333333 149.333333-66.858667 149.333333-149.333333-66.858667-149.333333-149.333333-149.333333z"  horiz-adv-x="1024" />

    
    <glyph glyph-name="youxiangpeizhi" unicode="&#58900;" d="M960 646v-502.6c0-5-0.6-10-1.6-14.9v-0.1c-0.1-0.3-0.1-0.5-0.2-0.8-7.2-34.2-37.4-58.6-72.3-58.6H152.5c-25.7 0-50.4 10.7-67.4 29.9-0.5 0.5-1 1.1-1.4 1.7-1.2 1.4-2.3 2.8-3.4 4.2-10.8 14.4-16.3 32-16.3 50V632.3c0 28.4 18.4 53.6 45.6 62 0.2 0.1 0.4 0.1 0.7 0.2l0.2 0.1c10.4 3.1 21.2 4.6 32.1 4.6h772.9c1.2-0.4 2.3-1.1 3.6-1.3 22.3-3.8 35.5-16.7 39.6-38.9 0.7-4.5 1.3-8.7 1.3-13zM512 321.6l394.6 332.1c-57.9 3.4-777.3 1.4-785.5-2.2C251.4 541.6 381.5 431.8 512 321.6z m117.1 39.5c-33.6-28.3-66.7-56.2-99.8-84.1-12-10.1-22.4-10.2-34.3-0.2-14.1 11.9-28.2 23.8-42.2 35.7-18.5 15.7-37.1 31.3-55.9 47.2l-262-242.8c0.3-0.7 0.6-1.4 0.9-2H900L629.1 361.1z m-266.7 27.8C277.7 460.4 194 531.2 109.2 602.8v-448.5l253.2 234.6z m301.3 1.4L914.9 162V601.9L663.7 390.3z"  horiz-adv-x="1024" />

    
    <glyph glyph-name="jiedian" unicode="&#59018;" d="M875.748504 536.651852c-69.025185 0-123.828148-54.423704-140.705185-118.518519H308.376652l221.108148 205.17926a147.531852 147.531852 0 0 1 85.902222-27.306667 150.016 150.016 0 1 1-135.395555 86.660741L270.829985 475.211852a149.921185 149.921185 0 1 1 0.948148-175.976296l210.678519-208.971852a146.223407 146.223407 0 0 1-16.497778-68.077037v-0.18963a149.333333 149.333333 0 1 1 149.428148 149.997037 147.911111 147.911111 0 0 1-81.540741-24.272593L308.376652 349.866667h426.666667a147.228444 147.228444 0 0 1 140.705185-113.398519 150.091852 150.091852 0 0 1 0 300.183704zM624.109985 844.61037a93.866667 93.866667 0 1 0-93.677037-93.866666 93.923556 93.923556 0 0 0 93.677037 93.866666zM154.587022 298.666667a85.333333 85.333333 0 1 0 85.522963 85.143703 85.466074 85.466074 0 0 0-85.522963-85.143703z m546.133334-272.877037a85.143704 85.143704 0 1 0-85.143704 85.333333 85.333333 85.333333 0 0 0 85.143704-85.333333zM871.576652 298.666667a85.333333 85.333333 0 1 0 85.522963 85.143703 85.504 85.504 0 0 0-85.522963-85.143703z m0 0"  horiz-adv-x="1025" />

    
    <glyph glyph-name="Administratorconfig" unicode="&#58911;" d="M981.333333 140.8v85.333333h-81.066666a189.866667 189.866667 0 0 1-25.6 59.733334l57.6 55.466666-59.733334 59.733334-55.466666-55.466667a189.866667 189.866667 0 0 1-57.6 23.466667V448h-85.333334v-78.933333a189.866667 189.866667 0 0 1-57.6-23.466667l-46.933333 46.933333a273.066667 273.066667 0 0 1 81.066667 196.266667A266.666667 266.666667 0 0 1 388.266667 855.466667 266.666667 266.666667 0 0 1 125.866667 586.666667 273.066667 273.066667 0 0 1 241.066667 362.666667C121.6 294.4 42.666667 145.066667 42.666667-42.666667v-42.666666h531.2L490.666667 0H130.133333c12.8 172.8 100.266667 296.533333 226.133334 313.6h32a253.866667 253.866667 0 0 1 74.666666 10.666667h4.266667l29.866667 12.8 57.6-53.333334a189.866667 189.866667 0 0 1-23.466667-57.6h-81.066667v-85.333333h81.066667a189.866667 189.866667 0 0 1 23.466667-57.6l-57.6-57.6 59.733333-59.733333 57.6 55.466666a189.866667 189.866667 0 0 1 59.733333-25.6V-85.333333h85.333334v83.2a189.866667 189.866667 0 0 1 57.6 23.466666l57.6-57.6 59.733333 59.733334-57.6 57.6a189.866667 189.866667 0 0 1 23.466667 57.6z m-371.2 42.666667a104.533333 104.533333 0 1 0 104.533334-104.533334 104.533333 104.533333 0 0 0-104.533334 104.533334zM211.2 586.666667a181.333333 181.333333 0 0 0 177.066667 185.6 181.333333 181.333333 0 0 0 177.066666-185.6 181.333333 181.333333 0 0 0-177.066666-185.6 181.333333 181.333333 0 0 0-177.066667 185.6z"  horiz-adv-x="1024" />

    
    <glyph glyph-name="nodejiedian" unicode="&#59160;" d="M875.52 460.8c-30.72 0-61.44-10.24-87.04-30.72l-40.96 40.96c20.48 25.6 30.72 56.32 30.72 92.16 0 81.92-66.56 148.48-148.48 148.48s-153.6-71.68-153.6-153.6c0-56.32 30.72-107.52 76.8-133.12l-61.44-87.04c-20.48 10.24-40.96 15.36-66.56 15.36s-51.2-10.24-71.68-20.48L286.72 419.84c5.12 20.48 15.36 40.96 15.36 66.56 0 81.92-66.56 148.48-148.48 148.48S0 568.32 0 486.4s66.56-153.6 148.48-153.6c40.96 0 76.8 15.36 107.52 40.96l56.32-71.68c-20.48-25.6-35.84-61.44-35.84-97.28 0-81.92 66.56-148.48 148.48-148.48s148.48 66.56 148.48 148.48c0 40.96-15.36 76.8-40.96 102.4l71.68 97.28h20.48c30.72 0 56.32 10.24 81.92 25.6l46.08-40.96c-15.36-25.6-25.6-51.2-25.6-87.04 0-81.92 66.56-148.48 148.48-148.48 81.92 0 148.48 66.56 148.48 148.48s-66.56 158.72-148.48 158.72zM148.48 384c-56.32 0-102.4 46.08-102.4 102.4s46.08 102.4 102.4 102.4 102.4-46.08 102.4-102.4-46.08-102.4-102.4-102.4z m276.48-276.48c-56.32 0-102.4 46.08-102.4 102.4s46.08 102.4 102.4 102.4 102.4-46.08 102.4-102.4-46.08-102.4-102.4-102.4z m97.28 450.56c0 56.32 46.08 102.4 102.4 102.4s102.4-46.08 102.4-102.4-46.08-102.4-102.4-102.4-102.4 46.08-102.4 102.4z m353.28-348.16c-56.32 0-102.4 46.08-102.4 102.4s46.08 102.4 102.4 102.4 102.4-46.08 102.4-102.4-51.2-102.4-102.4-102.4z"  horiz-adv-x="1024" />

    
    <glyph glyph-name="xiangqing1" unicode="&#58881;" d="M512-62.016C266.08-62.016 65.984 138.048 65.984 384 65.984 629.92 266.08 830.016 512 830.016c245.952 0 446.016-200.064 446.016-446.016 0-245.952-200.064-446.016-446.016-446.016z m0 828.032c-210.656 0-382.016-171.36-382.016-382.016 0-210.624 171.36-382.016 382.016-382.016 210.624 0 382.016 171.36 382.016 382.016S722.624 766.016 512 766.016zM464 592a1.5 1.5 0 1 1 96 0 1.5 1.5 0 1 1-96 0z m48-464c-17.664 0-32 14.304-32 32V448c0 17.664 14.336 32 32 32s32-14.336 32-32v-288c0-17.696-14.336-32-32-32z"  horiz-adv-x="1024" />

    
    <glyph glyph-name="qiyong1" unicode="&#58989;" d="M512-128C229.226667-128 0 101.226667 0 384S229.226667 896 512 896s512-229.226667 512-512-229.226667-512-512-512z m0 68.266667c245.066667 0 443.733333 198.666667 443.733333 443.733333S757.066667 827.733333 512 827.733333 68.266667 629.066667 68.266667 384s198.666667-443.733333 443.733333-443.733333z m0 0M238.933333 384c0-150.813333 122.253333-273.066667 273.066667-273.066667S785.066667 233.186667 785.066667 384 662.813333 657.066667 512 657.066667 238.933333 534.813333 238.933333 384z m0 0"  horiz-adv-x="1024" />

    
    <glyph glyph-name="zonglan1" unicode="&#58924;" d="M416 761.6c-19.2 0-38.4 19.2-38.4 38.4s19.2 38.4 38.4 38.4H960c19.2 0 38.4-19.2 38.4-38.4s-19.2-38.4-38.4-38.4H416zM25.6 876.8h236.8c12.8 0 25.6-12.8 25.6-25.6v-236.8c0-12.8-12.8-25.6-25.6-25.6H25.6c-12.8 0-25.6 6.4-25.6 19.2V851.2C0 864 12.8 876.8 25.6 876.8z m211.2-51.2h-192v-192h192v192zM25.6 518.4h236.8c12.8 0 25.6-12.8 25.6-25.6V256c0-12.8-12.8-25.6-25.6-25.6H25.6c-12.8 0-25.6 12.8-25.6 25.6V492.8c0 12.8 12.8 25.6 25.6 25.6z m211.2-51.2h-192v-192h192v192zM25.6 160h236.8c12.8 0 25.6-12.8 25.6-25.6v-236.8c0-12.8-12.8-25.6-25.6-25.6H25.6c-12.8 0-25.6 12.8-25.6 25.6v236.8c0 12.8 12.8 25.6 25.6 25.6z m211.2-44.8h-192v-192h192v192z m179.2 505.6c-25.6 0-38.4 19.2-38.4 38.4s19.2 38.4 38.4 38.4H960c19.2 0 38.4-19.2 38.4-38.4s-19.2-38.4-38.4-38.4H416z m0-217.6c-25.6 0-38.4 19.2-38.4 44.8 0 19.2 19.2 38.4 38.4 38.4H960c19.2 0 38.4-19.2 38.4-38.4s-19.2-38.4-38.4-38.4H416v-6.4z m0-140.8c-19.2 0-38.4 19.2-38.4 38.4s19.2 38.4 38.4 38.4H960c19.2 0 38.4-19.2 38.4-38.4s-19.2-38.4-38.4-38.4H416z m0-217.6c-19.2 0-38.4 19.2-38.4 38.4s19.2 38.4 38.4 38.4H960c19.2 0 38.4-19.2 38.4-38.4s-19.2-38.4-38.4-38.4H416z m0-140.8c-19.2 0-38.4 19.2-38.4 38.4s19.2 38.4 38.4 38.4H960c19.2 0 38.4-19.2 38.4-38.4s-19.2-38.4-38.4-38.4H416z"  horiz-adv-x="1024" />

    
    <glyph glyph-name="chongxi" unicode="&#58906;" d="M804.522667 25.64266699999996a21.333333 21.333333 0 0 0 24.32-35.072 482.901333 482.901333 0 0 0-276.053334-86.101334c-267.904 0-485.077333 217.173333-485.077333 485.12 0 99.968 30.336 195.498667 86.101333 275.968a21.333333 21.333333 0 0 0 35.072-24.32 440.234667 440.234667 0 0 1-78.506666-251.690666c0-244.352 198.101333-442.453333 442.453333-442.453334 91.221333 0 178.304 27.733333 251.690667 78.549334zM356.778667 786.346667a21.333333 21.333333 0 0 0-18.944 38.186666A483.157333 483.157333 0 0 0 552.832 874.666667c267.904 0 485.12-217.173333 485.12-485.12 0-75.52-17.365333-148.693333-50.176-214.954667a21.333333 21.333333 0 1 0-38.229333 18.944 440.490667 440.490667 0 0 1 45.696 196.010667c0 244.352-198.101333 442.453333-442.453334 442.453333-68.949333 0-135.594667-15.786667-196.010666-45.653333zM178.304 688.853333a21.333333 21.333333 0 1 0 6.997333-42.069333l-139.093333-23.210667a21.333333 21.333333 0 0 0-7.04 42.112l139.093333 23.168zM160.768 664.3199999999999a21.333333 21.333333 0 0 0 42.069333 6.997333l23.210667-139.093333a21.333333 21.333333 0 0 0-42.112-7.04L160.768 664.3199999999999zM902.912 292.60799999999995a21.333333 21.333333 0 0 0 41.813333 8.405333l23.210667-115.968a21.333333 21.333333 0 1 0-41.813333-8.362666l-23.210667 115.925333zM1082.624 225.109333a21.333333 21.333333 0 1 0 7.04-42.112l-139.136-23.168a21.333333 21.333333 0 1 0-7.04 42.069334l139.136 23.210666z"  horiz-adv-x="1109" />

    
    <glyph glyph-name="youxiangpeizhi1" unicode="&#58944;" d="M353.7 466.9h331.8v43.3H353.7V466.9z m181.8 129.9H353.7v-43.3h181.8v43.3z m302.9-144.3l-69.2 60.6V726.6c0 8.7-5.8 14.4-14.4 14.4H270.1c-8.7 0-14.4-5.8-14.4-14.4v-219.3l-69.2-54.8c-2.9-2.9-5.8-8.7-5.8-14.4V91.89999999999998c0-2.9 0-2.9 2.9-5.8 0 0 0-2.9 2.9-2.9 0-2.9 2.9-2.9 2.9-2.9l2.9-2.9 2.9-2.9s2.9 0 2.9-2.9c-5.8 5.8-2.9 5.8-2.9 5.8H827c2.9 0 2.9 0 5.8 2.9 0 0 2.9 0 2.9 2.9 2.9 0 2.9 2.9 2.9 2.9l2.9 2.9 2.9 2.9s0 2.9 2.9 2.9c0 2.9 2.9 2.9 2.9 5.8V446.7c-8.9-2.8-8.9 2.9-11.8 5.8z m-60.6 0l37.5-28.9-37.5-23.1v52z m-530.8 0v-51.9l-31.7 23.1 31.7 28.8z m-31.7-314.5V394.8l199.1-121.2-199.1-135.6z m227.9 170.3L296 412.1v300h429.9v-300L578.8 308.29999999999995H443.2z m369.3-170.3L613.4 273.6l199.1 121.2v-256.8z m0 0"  horiz-adv-x="1024" />

    
    <glyph glyph-name="tingzhi2" unicode="&#58931;" d="M511.694 864a479.694 479.694 0 1 1 479.694-479.694A480.306 480.306 0 0 1 511.694 864z m0-907.992a428.298 428.298 0 1 0 428.298 428.298 428.298 428.298 0 0 0-428.298-428.298zM378.31 517.69h266.768v-266.768H378.31V517.69z"  horiz-adv-x="1024" />

    
    <glyph glyph-name="To-grant-authorization" unicode="&#58949;" d="M699.1 541.5L458.5 303.79999999999995 341.3 423.7c-10.6 10.8-27.9 11-38.8 0.4-10.8-10.6-11-28-0.4-38.8l136.4-139.7c5.2-5.3 13.9-9.4 19.6-8.2 7.2 0 14.2 2.8 19.2 7.9l260.2 257.1c10.8 10.7 10.9 28 0.2 38.8-10.4 10.8-27.8 11-38.6 0.3z m0 0M876.6 705L518.8 828.4c-5.8 1.9-12.1 1.9-17.9 0L143 705c-11-3.8-18.5-14.3-18.5-25.9v-380.4c9.9-219.8 360.6-355.4 375.5-361 3.1-1.2 6.4-1.8 9.7-1.8 3.3 0 6.6 0.5 9.7 1.8C534.4-56.700000000000045 885 79 895.1 300V679.2c0.1 11.6-7.4 22.1-18.5 25.8zM509.9-7.2000000000000455c-54.9 22.8-323 142.4-330.5 307.1V659.6l330.5 113.9 330.5-113.9v-358.4c-7.5-165.9-275.7-285.6-330.5-308.4z m0 0"  horiz-adv-x="1024" />

    
    <glyph glyph-name="play" unicode="&#58920;" d="M512-128C794.769792-128 1024 101.23020799999995 1024 384 1024 666.769792 794.769792 896 512 896 229.230208 896 0 666.769792 0 384 0 101.23020799999995 229.230208-128 512-128ZM384 153.60000000000002L384 614.4 742.4 384 384 153.60000000000002Z"  horiz-adv-x="1024" />

    
    <glyph glyph-name="shanchu1" unicode="&#59380;" d="M519.68 896C415.232 896 330.24 813.056 326.656 709.12H82.944c-27.136 0-49.152-22.016-49.152-49.152s22.016-49.152 49.152-49.152h54.272v-550.912C137.216-43.52 207.36-128 293.888-128h441.344c86.528 0 156.672 83.968 156.672 187.904v550.4h49.152c27.136 0 49.152 22.016 49.152 49.152s-22.016 49.152-49.152 49.152H712.192C709.12 813.056 624.128 896 519.68 896zM418.816 709.12c3.584 53.248 47.104 94.72 100.864 94.72s97.28-41.472 100.352-94.72H418.816zM293.888-35.84c-30.72 0-64.512 39.424-64.512 95.744v550.4h570.368v-550.912c0-56.32-33.792-95.744-64.512-95.744H293.888v0.512zM359.936 82.432c22.528 0 40.96 22.528 40.96 50.688V422.4c0 28.16-18.432 50.688-40.96 50.688s-40.96-22.528-40.96-50.688v-289.28c0-28.16 17.92-50.688 40.96-50.688z m148.48 0c22.528 0 40.96 22.528 40.96 50.688V422.4c0 28.16-18.432 50.688-40.96 50.688s-40.96-22.528-40.96-50.688v-289.28c0-28.16 18.432-50.688 40.96-50.688z m156.16 0c22.528 0 40.96 22.528 40.96 50.688V422.4c0 28.16-18.432 50.688-40.96 50.688s-40.96-22.528-40.96-50.688v-289.28c0-28.16 17.92-50.688 40.96-50.688z"  horiz-adv-x="1024" />

    
    <glyph glyph-name="bianji2" unicode="&#58882;" d="M869.475 456.156v-443.277c0-18.798-15.285-34.133-34.08-34.133h-703.34c-18.823 0-34.107 15.337-34.107 34.133v703.34c0 18.798 15.31 34.107 34.107 34.107H591.42V827.468H132.055c-61.349 0-111.277-49.9-111.277-111.248v-703.314c0-61.429 49.926-111.277 111.277-111.277h703.34c61.375 0 111.223 49.846 111.223 111.277V456.158h-77.142zM549.618 788.908c0-21.311 17.275-38.583 38.583-38.583s38.583 17.275 38.583 38.583c0 21.311-17.275 38.583-38.583 38.583-21.311 0-38.583-17.275-38.583-38.583zM869.475 452.935c0-21.311 17.275-38.583 38.583-38.583s38.583 17.275 38.583 38.583c0 21.311-17.275 38.583-38.583 38.583-21.311 0-38.583-17.275-38.583-38.583zM402.736 333.778l530.823 532.62 69.686-69.876L472.368 263.93l-87.061-17.537 17.428 87.383z"  horiz-adv-x="1024" />

    
    <glyph glyph-name="xiugai" unicode="&#58907;" d="M723.339 485.875l-146.443 142.79-312.97-312.636-54.548-199.535v-0.33l199.199 55.415z m-23.866 265.107l-78.44-78.311 146.912-142.259 76.114 76.05c39.952 39.885 39.952 104.632 0 144.518-39.884 39.886-104.701 39.886-144.586 0.002zM155.243 81.84000000000003h718.78v-94.737h-718.78z"  horiz-adv-x="1024" />

    
    <glyph glyph-name="daochu4" unicode="&#58908;" d="M835.7 596.9c-1.1 6-4.8 10.8-9.7 14.2l-139 98c-10.4 7.1-25 5.2-32.8-4.5-3.7-4.8-5.2-10.8-4.5-16.8 1.1-6 4.1-11.2 9.3-14.5l93.5-65.2c-181-29.1-360.2-232.9-396.4-393.9-0.4-1.9-0.7-3.7-0.7-5.6 0-10.1 6.3-18.6 16.8-20.9 6.3-1.5 13.4-0.7 18.6 2.6 4.8 3 7.8 7.1 8.9 12.3C433.3 351.7 597.6 539.5 763.1 566l-74.5-99.1c-3.7-4.8-5.2-10.8-4.1-16.4 1.1-6 4.5-11.2 10.1-14.9 10.4-7.1 25-4.8 32.4 5.6l105 139.3c2.2 3 3.7 6.3 4.5 10.8 0 0.7-0.8 5.6-0.8 5.6z m0 0M836.5 64.8H187.4c-11.8 0-21.3 9.5-21.3 21.3V313.9c0 11.8 9.5 21.3 21.3 21.3s21.3-9.5 21.3-21.3v-206.4h606.4V313.9c0 11.8 9.5 21.3 21.3 21.3s21.3-9.5 21.3-21.3v-227.7c0.1-11.8-9.5-21.4-21.2-21.4z"  horiz-adv-x="1024" />

    
    <glyph glyph-name="zongshu1" unicode="&#59221;" d="M511.994889 896C229.232065 896 0 666.767935 0 384.005111c0-282.773046 229.232065-512 511.994889-512 282.773046 0 512 229.232065 512 512C1024 666.767935 794.767935 896 511.994889 896z m-12.941839-848.278247c-177.796945-0.005111-321.987022 144.154298-321.987022 321.987022 0 167.942338 128.636358 305.697275 292.719656 320.509853v-320.520076a29.272477 29.272477 0 0 1 29.267366-29.277588h320.509853c-14.797245-164.098632-152.572627-292.699211-320.509853-292.699211z m28.551782 348.872517v348.02915c184.548987-16.667984 331.356055-163.475052 348.024039-348.024039h-348.024039z"  horiz-adv-x="1025" />

    
    <glyph glyph-name="renwu1" unicode="&#58887;" d="M349.4 782.6h327.9c30.2 0 54.7-19.6 54.7-43.7v-43.7H294.7v43.7c0 24.2 24.5 43.7 54.7 43.7zM882.6 695.2H772.9V644H253.8v51.2H144.2c-25.5 0-46.1-21.3-46.1-47.6v-622.1c0-26.3 20.7-47.6 46.1-47.6h738.4c25.5 0 46.1 21.3 46.1 47.6V647.6c0 26.3-20.7 47.6-46.1 47.6z m-140.8-305L535.1 183.6c-12.3-12.3-31.9-13.1-45.1-2.3-1.2 0.9-2.3 1.9-3.4 3l-143.1 143c-13.2 13.2-13.2 34.5 0 47.7 13.2 13.2 34.5 13.2 47.7 0l120-120 182.9 182.9c13.2 13.2 34.5 13.2 47.7 0 13.1-13.2 13.1-34.5 0-47.7z"  horiz-adv-x="1024" />

    
    <glyph glyph-name="zhongxinkaishi2" unicode="&#59009;" d="M716.810604 401.454068L480.530757 623.034983a42.926732 42.926732 0 0 1-41.391023-1.681968 41.391022 41.391022 0 0 1-20.110479-35.540701v-429.998607a41.683538 41.683538 0 0 1 42.414829-41.683539c6.508482 0 13.163223 1.46258 19.013544 4.387741l236.352976 208.417692c13.016965 12.285674 23.328156 21.573059 23.328155 37.295798 0 15.795867-8.702353 24.351962-23.328155 37.14954zM887.420595 586.470475a426.561544 426.561544 0 1 1 43.365506-283.740577 42.634216 42.634216 0 0 0 83.805851-16.088384A512.049362 512.049362 0 0 0 0 383.903104a511.903104 511.903104 0 0 0 938.464648 283.155546v56.309341a42.634216 42.634216 0 0 0 85.34156 0V484.089854a42.561087 42.561087 0 0 0-12.57819-30.275412 42.634216 42.634216 0 0 0-52.067859-7.312901l-208.417692 120.370358a42.634216 42.634216 0 1 0 42.634215 73.860305l94.043913-54.261729z"  horiz-adv-x="1024" />

    
    <glyph glyph-name="daochu5" unicode="&#58909;" d="M370.1 632.5c-4.9-6.2-0.5-15.5 7.6-15.5h88.7v-405.9c0-5.3 4.3-9.6 9.6-9.6h72c5.3 0 9.6 4.3 9.6 9.6v406h88.9c8 0 12.5 9.2 7.6 15.5l-134.4 170c-3.8 4.9-11.3 4.9-15.1 0L370.1 632.5zM504.4 802.7M951.1 247.2h-72c-5.3 0-9.6-4.3-9.6-9.6v-184.8H154.4V237.6c0 5.3-4.3 9.6-9.6 9.6h-72c-5.3 0-9.6-4.3-9.6-9.6V0c0-21.2 17.2-38.4 38.4-38.4h820.7c21.2 0 38.4 17.2 38.4 38.4V237.6c0 5.3-4.3 9.6-9.6 9.6z m0 0"  horiz-adv-x="1024" />

    
    <glyph glyph-name="bofang1" unicode="&#58921;" d="M1102.44409 320.744442c0.563838 0.563838 1.198155 0.810517 1.973433 0.810517 0.775277 0 1.444834-0.281919 1.973432-0.810517 0.563838-0.563838 0.810517-1.198155 0.810517-1.973432 0-0.775277-0.281919-1.444834-0.810517-1.973433-0.563838-0.563838-1.198155-0.810517-1.973432-0.810517-0.775277 0-1.444834 0.281919-1.973433 0.810517-0.563838 0.563838-0.810517 1.198155-0.810517 1.973433 0 0.775277 0.281919 1.444834 0.810517 1.973432z m2.008673 0.599078c-0.458118 0-0.916236-0.10572-1.303875-0.352399s-0.704797-0.528598-0.951477-0.951476c-0.246679-0.387639-0.352399-0.845757-0.352398-1.303875 0-0.704797 0.246679-1.303875 0.740037-1.832473 0.493358-0.493358 1.127676-0.740037 1.832473-0.740037s1.303875 0.246679 1.832473 0.740037c0.493358 0.493358 0.740037 1.127676 0.740037 1.832473s-0.246679 1.303875-0.740037 1.832473-1.092436 0.775277-1.797233 0.775277z m0 0M1104.206084 317.784293c0-0.03524-0.03524-0.10572-0.10572-0.105719h-0.352399c-0.03524 0-0.10572 0.03524-0.105719 0.105719v1.938193c0 0.03524 0.03524 0.10572 0.105719 0.10572h0.352399c0.03524 0 0.10572-0.03524 0.10572-0.10572v-1.938193z m0 0M1105.22804 317.784293c0-0.03524-0.03524-0.10572-0.10572-0.105719h-0.352399c-0.03524 0-0.10572 0.03524-0.105719 0.105719v1.938193c0 0.03524 0.03524 0.10572 0.105719 0.10572h0.352399c0.03524 0 0.10572-0.03524 0.10572-0.10572v-1.938193z m0 0M674.13877 435.274004c42.323078-28.297612 42.323078-74.144676 0-102.407048l-231.772593-154.843967c-42.323078-28.297612-76.646707-9.867162-76.646706 41.054442V549.028288c0 50.956845 34.358868 69.352055 76.646706 41.089683l231.772593-154.843967z m0 0M1113.685607 323.775071c0.03524 0 0.07048 0 0.07048-0.03524s0.03524-0.03524 0.03524-0.07048 0-0.07048-0.03524-0.07048l-0.317159-0.317159c-0.03524-0.03524-0.03524-0.03524-0.07048-0.035239s-0.07048 0-0.070479 0.035239c-0.03524 0.03524-0.03524 0.03524-0.03524 0.07048s0 0.07048 0.03524 0.07048l0.317158 0.317159c0 0.03524 0.03524 0.03524 0.07048 0.03524z m-0.775277 0.317158c0.03524 0 0.07048 0 0.07048-0.03524 0.03524-0.03524 0.03524-0.03524 0.03524-0.070479v-0.422879c0-0.03524 0-0.07048-0.03524-0.070479-0.03524-0.03524-0.03524-0.03524-0.07048-0.03524s-0.07048 0-0.07048 0.03524c-0.03524 0.03524-0.03524 0.03524-0.035239 0.070479v0.422879c0 0.03524 0 0.07048 0.035239 0.070479 0 0.03524 0.03524 0.03524 0.07048 0.03524z m0.634318-1.092435h0.422878c0.03524 0 0.07048 0 0.07048-0.03524 0.03524-0.03524 0.03524-0.03524 0.03524-0.07048s0-0.07048-0.03524-0.07048c-0.03524-0.03524-0.03524-0.03524-0.07048-0.03524h-0.422878c-0.03524 0-0.07048 0-0.07048 0.03524-0.03524 0.03524-0.03524 0.03524-0.03524 0.07048s0 0.07048 0.03524 0.07048c0.03524 0.03524 0.03524 0.03524 0.07048 0.03524z m-1.409595 0.775277c0.03524 0 0.07048 0 0.07048-0.03524l0.317159-0.317159c0.03524-0.03524 0.03524-0.03524 0.03524-0.07048s0-0.07048-0.03524-0.07048c-0.03524-0.03524-0.03524-0.03524-0.07048-0.035239s-0.07048 0-0.07048 0.035239l-0.317159 0.317159c-0.03524 0.03524-0.03524 0.03524-0.035239 0.07048s0 0.07048 0.035239 0.07048c0 0.03524 0.03524 0.03524 0.07048 0.03524z m0.775277-1.409595c0.03524 0 0.07048 0 0.07048-0.03524 0.03524-0.03524 0.03524-0.03524 0.03524-0.07048v-0.422878c0-0.03524 0-0.07048-0.03524-0.07048-0.03524-0.03524-0.03524-0.03524-0.07048-0.03524s-0.07048 0-0.07048 0.03524c-0.03524 0.03524-0.03524 0.03524-0.035239 0.07048v0.422878c0 0.03524 0 0.07048 0.035239 0.07048 0 0 0.03524 0.03524 0.07048 0.03524z m-1.092436 0.634318h0.422879c0.03524 0 0.07048 0 0.070479-0.03524 0.03524-0.03524 0.03524-0.03524 0.03524-0.07048s0-0.07048-0.03524-0.07048c-0.03524-0.03524-0.03524-0.03524-0.070479-0.03524h-0.422879c-0.03524 0-0.07048 0-0.070479 0.03524-0.03524 0.03524-0.03524 0.03524-0.03524 0.07048s0 0.07048 0.03524 0.07048c0 0.03524 0.03524 0.03524 0.070479 0.03524z m0.634318-0.458119c0.03524 0 0.07048 0 0.07048-0.03524s0.03524-0.03524 0.03524-0.070479 0-0.07048-0.03524-0.07048l-0.317159-0.317159c-0.03524-0.03524-0.03524-0.03524-0.07048-0.03524s-0.07048 0-0.07048 0.03524-0.03524 0.03524-0.035239 0.07048 0 0.07048 0.035239 0.07048l0.317159 0.317158c0 0.03524 0.03524 0.03524 0.07048 0.03524z m0.916236 0c0.03524 0 0.07048 0 0.07048-0.03524l0.317159-0.317158c0.03524-0.03524 0.03524-0.03524 0.03524-0.07048s0-0.07048-0.03524-0.07048c-0.03524-0.03524-0.03524-0.03524-0.07048-0.03524s-0.07048 0-0.07048 0.03524l-0.317158 0.317159c-0.03524 0.03524-0.03524 0.03524-0.03524 0.07048s0 0.07048 0.03524 0.070479c0 0.03524 0.03524 0.03524 0.070479 0.03524z m0 0M1110.901658 324.867506c0.563838 0.563838 1.198155 0.810517 1.973432 0.810517 0.775277 0 1.444834-0.281919 1.973433-0.810517 0.563838-0.563838 0.810517-1.198155 0.810517-1.973432 0-0.775277-0.281919-1.444834-0.810517-1.973433-0.563838-0.563838-1.198155-0.810517-1.973433-0.810516-0.775277 0-1.444834 0.281919-1.973432 0.810516-0.563838 0.563838-0.810517 1.198155-0.810517 1.973433 0 0.775277 0.281919 1.444834 0.810517 1.973432z m2.008672 0.599078c-0.458118 0-0.916236-0.10572-1.303875-0.352399s-0.704797-0.528598-0.951476-0.951476c-0.246679-0.387639-0.352399-0.845757-0.352399-1.303875 0-0.704797 0.246679-1.303875 0.740037-1.832473 0.493358-0.493358 1.127676-0.740037 1.832473-0.740037s1.303875 0.246679 1.832473 0.740037c0.493358 0.493358 0.740037 1.127676 0.740037 1.832473s-0.246679 1.303875-0.740037 1.832473-1.092436 0.775277-1.797233 0.775277z m0 0M149.840057 745.525776C249.780314 845.360314 370.194933 895.365682 511.048674 895.365682c140.853741 0 261.23312-49.970129 361.208617-149.839906 99.869778-99.975497 149.839906-220.354876 149.839907-361.208617 0-140.853741-49.970129-261.23312-149.839907-361.208617-99.975497-99.869778-220.354876-149.839906-361.208617-149.839907-140.853741 0-261.26836 49.970129-361.208617 149.839907C49.970279 123.048799 0.000151 243.463418 0.000151 384.281919c0 140.853741 49.970129 261.26836 149.839906 361.243857z m361.208617 108.010187c-85.139514 0-163.830133-20.862-235.895657-62.656481C203.087493 749.190722 146.139871 692.27834 104.451111 620.212816 62.656631 548.147292 41.794631 469.456673 41.794631 384.317159c0-129.400785 45.882304-239.983481 137.576433-331.677611 91.694129-91.799849 202.276826-137.576433 331.67761-137.576433 129.400785 0 239.983481 45.882304 331.67761 137.576433 91.799849 91.694129 137.576433 202.276826 137.576434 331.677611 0 129.400785-45.882304 239.983481-137.576434 331.67761-91.694129 91.658889-202.276826 137.541193-331.67761 137.541194z m0 0"  horiz-adv-x="1116" />

    
    <glyph glyph-name="fuwuqizhuangtai" unicode="&#58912;" d="M902.126-8.183H200.24c-41.921 0-75.877 29.539-75.877 70.414v81.888c0 40.792 33.956 70.332 75.877 70.332h701.913c41.921 0 75.905-29.539 75.905-70.332v-81.888c-0.027-40.874-33.983-70.414-75.933-70.414z m-84.777 164.741c-30.243 0-54.93-23.858-54.93-53.396s24.687-53.452 54.93-53.452c30.271 0 54.93 23.941 54.93 53.452s-24.631 53.396-54.93 53.396z m84.777 111.152H200.24c-41.921 0-75.877 29.512-75.877 70.332v81.943c0 40.793 33.956 70.332 75.877 70.332h701.913c41.921 0 75.905-29.512 75.905-70.332v-81.943c-0.027-40.82-33.983-70.332-75.933-70.332z m-84.777 164.74c-30.243 0-54.93-23.941-54.93-53.534 0-29.455 24.687-53.48 54.93-53.48 30.271 0 54.93 24.023 54.93 53.48 0.029 29.567-24.631 53.534-54.93 53.534z m84.777 110.932H200.24c-41.921 0-75.877 29.649-75.877 70.414V695.63c0 40.874 33.956 70.525 75.877 70.525h701.913c41.921 0 75.905-29.649 75.905-70.525v-81.861c-0.027-40.738-33.983-70.387-75.933-70.387zM762.418 654.726c0-29.511 24.687-53.396 54.93-53.396 30.271 0 54.93 23.886 54.93 53.396 0 29.511-24.63 53.452-54.93 53.452-30.243 0-54.93-23.941-54.93-53.452z"  horiz-adv-x="1093" />

    
    <glyph glyph-name="jiedian1" unicode="&#58880;" d="M181.925 413.98125001c24.75 0 47.64375001 7.5375 66.76875001 20.36249998l123.24374998-134.99999998a208.8 208.8 0 0 1-69.91875-155.3625A210.20625001 210.20625001 0 0 1 512-66a210.20625001 210.20625001 0 0 1 209.98125001 209.98125001c0 59.62500001-25.2 113.175-65.25000002 151.48124999L783.125 430.06875001a118.29375001 118.29375001 0 0 1 58.89374999-16.0875A120.09375001 120.09375001 0 0 1 962 534.0187500100001C962 600.1687500099999 908.16875001 654 842.01874999 654a120.09375001 120.09375001 0 0 1-120.0375-119.98125001c0-22.95 6.75-44.10000001 18-62.38125001l-132.80624999-141.52499998c-20.19375001 10.40624998-41.9625 17.4375-65.19375001 20.8125l0 247.33125001a119.925 119.925 0 0 1 90 115.76249998C631.98125001 780.1687500099999 578.20625001 834 512 834a120.09375001 120.09375001 0 0 1-119.98125001-119.98125001c0-55.74375001 38.3625-102.31874999 90.00000002-115.76249998L482.01874999 350.92499999999995c-21.09375003-3.0375-41.11875001-8.94375001-59.62499998-17.83125001l-133.93125001 146.64375001c8.38125001 16.425 13.50000001 34.65 13.5 54.28125001 0 66.15-53.775 119.98125001-120.0375 119.98124999a120.09375001 120.09375001 0 0 1 0-240.01875001z m660.09375002 179.99999998A60.01875001 60.01875001 0 1 0 841.9625 474a60.01875001 60.01875001 0 0 0 0 120.0375z m-180.00000001-449.99999998A150.13125001 150.13125001 0 0 0 512-5.981250010000053a150.13125001 150.13125001 0 0 0-150.01875001 149.9625A150.13125001 150.13125001 0 0 0 512 294a150.13125001 150.13125001 0 0 0 150.01875001-150.01875001z m-210.0375 570.03749998a60.01875001 60.01875001 0 1 0 120.03749998-0.05624999 60.01875001 60.01875001 0 0 0-120.03749998 0z m-270-120.03749998a60.075 60.075 0 0 0 60.01874999-59.9625 60.01875001 60.01875001 0 1 0-60.075 60.01874999z"  horiz-adv-x="1024" />

    
    <glyph glyph-name="banben" unicode="&#58913;" d="M671.288889-122.311111H170.666667c-79.644444 0-142.222222 62.577778-142.222223 142.222222V520.533333C28.444444 600.177778 91.022222 662.755556 170.666667 662.755556h125.155555c11.377778 0 17.066667-5.688889 22.755556-11.377778 5.688889-5.688889 5.688889-17.066667 5.688889-22.755556l-102.4-386.844444c-11.377778-45.511111 17.066667-91.022222 62.577777-102.4l483.555556-130.844445h17.066667c11.377778 0 17.066667-5.688889 22.755555-11.377777 5.688889-5.688889 5.688889-17.066667 0-28.444445-28.444444-56.888889-79.644444-91.022222-136.533333-91.022222zM170.666667 605.866667c-45.511111 0-85.333333-39.822222-85.333334-85.333334v-500.622222c0-45.511111 39.822222-85.333333 85.333334-85.333333h500.622222c22.755556 0 39.822222 5.688889 56.888889 22.755555l-466.488889 125.155556c-73.955556 22.755556-119.466667 96.711111-102.4 176.355555l91.022222 347.022223H170.666667zM779.377778-48.355556c-11.377778 0-22.755556 0-39.822222 5.688889l-477.866667 125.155556c-73.955556 22.755556-119.466667 96.711111-102.4 176.355555L284.444444 736.711111C312.888889 810.666667 386.844444 856.177778 466.488889 839.111111l477.866667-125.155555c34.133333-11.377778 68.266667-34.133333 85.333333-68.266667s22.755556-73.955556 11.377778-108.088889l-125.155556-477.866667c-11.377778-34.133333-34.133333-68.266667-68.266667-85.333333-22.755556-17.066667-45.511111-22.755556-68.266666-22.755556zM426.666667 787.911111c-39.822222 0-73.955556-22.755556-79.644445-62.577778l-125.155555-477.866666c-11.377778-45.511111 17.066667-91.022222 62.577777-102.4l477.866667-125.155556c22.755556-5.688889 45.511111-5.688889 62.577778 5.688889 17.066667 11.377778 34.133333 28.444444 39.822222 51.2L989.866667 554.666667c5.688889 22.755556 5.688889 45.511111-5.688889 62.577777-11.377778 17.066667-28.444444 34.133333-51.2 39.822223L449.422222 782.222222c-5.688889 0-17.066667 5.688889-22.755555 5.688889z"  horiz-adv-x="1080" />

    
    <glyph glyph-name="shouquan2" unicode="&#59186;" d="M560.6 373.7c22.9-9.7 44.4-22 64.2-36.8 6-4.5 13.3-6.9 20.9-6.9 33.6 0 48 42.9 21 63-29.5 22-62.3 39.7-97.4 52.5C612.5 482.1 640 536.8 640 598c0 110.5-89.5 200-200 200s-200-89.5-200-200c0-61.2 27.5-115.9 70.7-152.6C177 397 78.2 275.8 62.3 129.6 60 108.9 76.3 91 97.1 91c17.8 0 32.9 13.4 34.8 31.1 3.2 29.8 10.8 58.9 22.5 86.6 15.6 36.9 38 70.1 66.5 98.6s61.7 50.9 98.6 66.5c38 16 78.6 24.2 120.5 24.2 41.9 0 82.5-8.2 120.6-24.3zM310 598c0 34.7 13.5 67.4 38.1 91.9 24.6 24.6 57.2 38.1 91.9 38.1s67.4-13.5 91.9-38.1c24.6-24.6 38.1-57.2 38.1-91.9s-13.5-67.4-38.1-91.9C507.4 481.5 474.7 468 440 468s-67.4 13.5-91.9 38.1S310 563.3 310 598zM949.5 406.5c-13.7 13.7-35.8 13.7-49.5 0l-306-306L462.5 232c-13.7 13.7-35.8 13.7-49.5 0-13.7-13.7-13.7-35.8 0-49.5L567.4 28c0.5-0.6 1.1-1.2 1.7-1.8 6.9-6.9 15.8-10.3 24.8-10.2 9 0 18 3.4 24.8 10.2 0.6 0.6 1.2 1.2 1.7 1.8l329 329c13.8 13.7 13.8 35.8 0.1 49.5z"  horiz-adv-x="1024" />

    
    <glyph glyph-name="shanchu2" unicode="&#59231;" d="M796.782 767.76h-574.08c-52.851 0-95.68-42.824-95.68-95.678v-31.893h765.44v31.893c0.003 52.854-42.824 95.677-95.68 95.677M629.655 831.544l14.077-100.659h-267.98l14.08 100.66h239.823m7.66 63.782H382.167c-26.317 0-50.795-21.305-54.472-47.404l-18.657-133.455c-3.643-26.069 14.92-47.37 41.237-47.37H669.21c26.314 0 44.882 21.301 41.208 47.398L691.76 847.954C688.113 874.022 663.63 895.327 637.315 895.327m175.416-318.92H206.756c-35.07 0-61.2-28.59-58.025-63.534l52.265-574.556c3.146-34.944 34.478-63.532 69.547-63.532h478.398c35.07 0 66.406 28.59 69.55 63.532l52.265 574.556c3.177 34.944-22.958 63.534-58.025 63.534M382.17 2.355h-95.68L254.595 448.84h127.572v-446.49 0.005z m191.36 0H445.957V448.84H573.53v-446.49 0.005z m159.462 0h-95.677V448.84H764.89l-31.898-446.49v0.005z"  horiz-adv-x="1024" />

    
    <glyph glyph-name="xiangqing2" unicode="&#58888;" d="M512 379.187467m-507.187467 0a507.187467 507.187467 0 1 1 1014.374934 0 507.187467 507.187467 0 1 1-1014.374934 0ZM512 588.8c139.028721 0 259.342037-92.240209 316.557702-226.189034C771.342037 228.662141 651.028721 136.421932 512 136.421932s-259.342037 92.240209-316.557702 226.189034C252.657963 496.559791 372.971279 588.8 512 588.8z m0-410.134726c113.094517 0 216.296606 71.118538 271.373368 183.945692-55.076762 112.827154-158.278851 183.945692-271.373368 183.945692s-216.296606-71.118538-271.373368-183.945692c55.076762-112.827154 158.278851-183.945692 271.373368-183.945692zM512 227.057963c74.861619 0 135.553003 60.691384 135.553003 135.553003S586.861619 498.163969 512 498.163969c-74.861619 0-135.553003-60.691384-135.553003-135.553003s60.691384-135.553003 135.553003-135.553003z m0 45.184335c-49.996867 0-90.368668 40.371802-90.368668 90.368668s40.371802 90.368668 90.368668 90.368668c49.996867 0 90.368668-40.371802 90.368668-90.368668s-40.371802-90.368668-90.368668-90.368668z"  horiz-adv-x="1024" />

    
    <glyph glyph-name="zhihang" unicode="&#58954;" d="M703.04 768c107.584 0 195.072-86.72 195.072-193.344v-381.376c0-106.56-87.488-193.344-195.072-193.344H325.184c-107.584 0-195.072 86.72-195.072 193.344V574.656C130.112 681.28 217.6 768 325.184 768h377.856m0 64H325.184C182.08 832 66.112 716.8 66.112 574.656v-381.376c0-142.08 115.968-257.28 259.072-257.28h377.856c143.04 0 259.072 115.2 259.072 257.344V574.656C962.112 716.8 846.144 832 703.04 832zM832 384l-384-256V640zM320 512h64v-256H320zM191.68 512h64v-256h-64z"  horiz-adv-x="1024" />

    
    <glyph glyph-name="jinyong1" unicode="&#58917;" d="M737.5 410.4H286.3c-10.8 0-19.6-6.8-19.6-15.2v-31.9c0-8.4 8.8-15.2 19.6-15.2h451.2c10.8 0 19.6 6.8 19.6 15.2v31.9c0 8.4-8.8 15.2-19.6 15.2M805.3 672.8c-77.8 77.9-183.4 121.6-293.4 121.6s-215.6-43.7-293.4-121.6c-162-162-162-424.9 0-587 77.8-77.8 183.4-121.6 293.4-121.6s215.6 43.7 293.4 121.6c162.1 162.2 162.1 425 0 587z m-38.7-548.2A359.88 359.88 0 0 0 511.9 19c-95.5 0-187.1 37.9-254.8 105.6-140.5 140.5-140.5 369 0 509.5 67.5 67.5 159.2 105.6 254.8 105.6 95.5 0 187.2-37.9 254.8-105.6 140.4-140.5 140.4-369.1-0.1-509.5z"  horiz-adv-x="1024" />

    
    <glyph glyph-name="zhihang1" unicode="&#59145;" d="M513.934222 42.666667c-187.733333 0-341.333333 153.6-341.333333 341.333333s153.6 341.333333 341.333333 341.333333 341.333333-153.6 341.333334-341.333333-153.6-341.333333-341.333334-341.333333z m0 62.577777c153.6 0 278.755556 125.155556 278.755556 278.755556s-125.155556 278.755556-278.755556 278.755556-278.755556-125.155556-278.755555-278.755556 125.155556-278.755556 278.755555-278.755556z m-45.511111 210.488889l102.4 68.266667-102.4 68.266667v-136.533334z m-11.377778 221.866667l193.422223-130.844444c17.066667-11.377778 17.066667-39.822222 0-51.2l-193.422223-125.155556c-22.755556-11.377778-45.511111 0-45.511111 28.444444V509.155556c-5.688889 28.444444 22.755556 39.822222 45.511111 28.444444z"  horiz-adv-x="1024" />

    
    <glyph glyph-name="bianji3" unicode="&#58889;" d="M978.427 508.632c-21.73 0-39.477-17.75-39.56-39.587v-462.35c0-21.306-17.343-38.64-38.66-38.64h-782.15c-21.356 0-38.731 17.333-38.731 38.64V761.33c0 21.332 17.375 38.685 38.732 38.685H621.81c21.773 0 39.486 17.726 39.486 39.513 0 21.774-17.712 39.488-39.486 39.488H112.852C50.804 879.016 0.325 828.548 0.325 766.514v-765.055c0-62.018 50.48-112.475 112.527-112.475h792.539c62.048 0 112.526 50.456 112.526 112.475V469.266c-0.113 21.706-17.829 39.366-39.49 39.366zM316.565 333.729c-0.72-0.98-1.565-2.296-2.017-3.962L263.6 142.973c-3.455-12.675 0.163-26.455 9.444-35.963l0.1-0.1c7.045-6.84 16.312-10.608 26.094-10.608 3.358 0 6.63 0.425 9.734 1.268l183.955 50.17c0.263-0.038 0.529-0.057 0.798-0.057 3.649 0 7.053 1.418 9.554 3.962l495.997 495.919c15.706 15.734 24.355 37.203 24.355 60.454 0 26.194-11.096 52.3-30.436 71.619l-46.85 46.923c-19.348 19.375-45.461 30.487-71.645 30.487-23.222 0-44.707-8.64-60.51-24.34L318.355 336.683c-1.076-1.012-1.552-2.159-1.791-2.955zM870.184 776.6c2.296 2.31 5.756 3.582 9.743 3.582 5.198 0 10.477-2.18 14.122-5.836l46.851-46.923c3.904-3.906 6.143-9.026 6.143-14.048 0-3.856-1.342-7.321-3.777-9.756l-45.51-45.463-72.45 73.588 44.878 44.856zM767.342 673.755l72.454-73.634-349.737-349.757-73.086 72.998 350.369 350.393zM372.839 263l56.08-56.077-77.093-21.11L372.839 263z"  horiz-adv-x="1040" />

    
    <glyph glyph-name="tingzhi3" unicode="&#58962;" d="M402.285714 530.285714h219.428572c21.942857 0 36.571429-14.628571 36.571428-36.571428v-219.428572c0-21.942857-14.628571-36.571429-36.571428-36.571428h-219.428572c-21.942857 0-36.571429 14.628571-36.571428 36.571428v219.428572c0 21.942857 14.628571 36.571429 36.571428 36.571428zM1024 384c0 281.6-230.4 512-512 512S0 665.6 0 384s230.4-512 512-512 512 230.4 512 512z m-62.171429 0c0-248.685714-201.142857-449.828571-449.828571-449.828571S62.171429 135.314286 62.171429 384 263.314286 833.828571 512 833.828571 961.828571 632.685714 961.828571 384z"  horiz-adv-x="1024" />

    
    <glyph glyph-name="shanchu3" unicode="&#58893;" d="M731.918 715.466H293.285c-40.383 0-73.106-32.72-73.106-73.103v-24.368h584.844v24.368c0.001 40.383-32.72 73.103-73.105 73.103m-127.696 48.735l10.756-76.91H410.225l10.756 76.91h183.24m5.855 48.735H415.128c-20.108 0-38.813-16.277-41.621-36.218L359.252 674.75c-2.784-19.917 11.4-36.194 31.508-36.194h243.685c20.108 0 34.293 16.276 31.484 36.217l-14.255 101.969c-2.786 19.917-21.49 36.194-41.598 36.194m134.026-243.675H281.1c-26.795 0-46.761-21.845-44.334-48.544l39.933-438.996c2.403-26.7 26.344-48.544 53.14-48.544h365.527c26.795 0 50.736 21.845 53.14 48.544l39.932 438.996c2.426 26.699-17.54 48.544-44.336 48.544M415.128 130.647h-73.106L317.653 471.79h97.474v-341.144z m146.211 0h-97.474V471.79h97.474v-341.144z m121.842 0h-73.106V471.79h97.474l-24.368-341.144z"  horiz-adv-x="1024" />

    
    <glyph glyph-name="yingyong" unicode="&#58919;" d="M864 832H160a96 96 0 0 1-96-96v-704a96 96 0 0 1 96-96h704a96 96 0 0 1 96 96V736a96 96 0 0 1-96 96z m32-800c0-17.648-14.352-32-32-32H160c-17.648 0-32 14.352-32 32V736c0 17.648 14.352 32 32 32h704c17.648 0 32-14.352 32-32v-704zM448 480a32 32 0 0 0-32-32h-128a32 32 0 0 0-32 32v128a32 32 0 0 0 32 32h128a32 32 0 0 0 32-32v-128zM768 480a32 32 0 0 0-32-32h-128a32 32 0 0 0-32 32v128a32 32 0 0 0 32 32h128a32 32 0 0 0 32-32v-128zM448 160a32 32 0 0 0-32-32h-128a32 32 0 0 0-32 32v128a32 32 0 0 0 32 32h128a32 32 0 0 0 32-32v-128zM768 160a32 32 0 0 0-32-32h-128a32 32 0 0 0-32 32v128a32 32 0 0 0 32 32h128a32 32 0 0 0 32-32v-128z"  horiz-adv-x="1024" />

    


  </font>
</defs>
</svg>
