<svg xmlns="http://www.w3.org/2000/svg" width="22" height="22" viewBox="0 0 22 22">
    <defs>
        <filter id="a" width="103.3%" height="102.1%" x="-1.9%" y="-.9%" filterUnits="objectBoundingBox">
            <feMorphology in="SourceAlpha" operator="dilate" radius=".5" result="shadowSpreadOuter1"/>
            <feOffset dy="1" in="shadowSpreadOuter1" result="shadowOffsetOuter1"/>
            <feGaussianBlur in="shadowOffsetOuter1" result="shadowBlurOuter1" stdDeviation="1.5"/>
            <feColorMatrix in="shadowBlurOuter1" result="shadowMatrixOuter1" values="0 0 0 0 0 0 0 0 0 0 0 0 0 0 0 0 0 0 0.120612545 0"/>
            <feMerge>
                <feMergeNode in="shadowMatrixOuter1"/>
                <feMergeNode in="SourceGraphic"/>
            </feMerge>
        </filter>
    </defs>
    <path fill="#47B9FF" fill-rule="nonzero" d="M14.222 1.778h-.8v1.778h-2.844V1.778H5.422v1.778H2.578V1.778h-.8C.8 1.778 0 2.578 0 3.556v10.666C0 15.2.8 16 1.778 16h12.444C15.2 16 16 15.2 16 14.222V3.556c0-.978-.8-1.778-1.778-1.778zm0 12.444H1.778v-7.11h12.444v7.11zM4.622 0H3.378v3.022h1.244V0zm8 0h-1.244v3.022h1.244V0z" filter="url(#a)" transform="translate(3 2)"/>
</svg>
