<svg xmlns="http://www.w3.org/2000/svg" width="19" height="11" viewBox="0 0 19 11">
    <path fill="#47B9FF" fill-rule="nonzero" d="M9.5 0C5.87 0 2.578 1.929.149 5.062a.714.714 0 0 0 0 .872C2.578 9.071 5.869 11 9.5 11c3.63 0 6.922-1.929 9.351-5.062a.714.714 0 0 0 0-.872C16.422 1.929 13.131 0 9.5 0zm.26 9.373c-2.41.147-4.4-1.782-4.248-4.126.125-1.933 1.738-3.5 3.728-3.62 2.41-.147 4.4 1.782 4.248 4.126-.129 1.929-1.742 3.495-3.728 3.62zm-.12-1.79c-1.298.08-2.371-.958-2.285-2.219.066-1.042.936-1.884 2.009-1.952 1.298-.079 2.37.96 2.285 2.22-.07 1.046-.94 1.888-2.01 1.952z"/>
</svg>
