<svg xmlns="http://www.w3.org/2000/svg" width="14" height="20" viewBox="0 0 14 20">
    <g fill="#47B9FF" fill-rule="nonzero">
        <path d="M7 14c1.1 0 2.042-.38 2.825-1.142C10.608 12.097 11 11.18 11 10.11V3.89c0-1.07-.391-1.985-1.175-2.747C9.042.381 8.1 0 7 0S4.958.381 4.175 1.142C3.392 1.904 3 2.82 3 3.89v6.222c0 1.07.392 1.986 1.175 2.747C4.958 13.619 5.9 14 7 14z"/>
        <path d="M13.769 8.223A.76.76 0 0 0 13.222 8a.762.762 0 0 0-.547.223.709.709 0 0 0-.23.527v1.5c0 1.445-.534 2.682-1.599 3.709C9.781 14.986 8.499 15.5 7 15.5s-2.781-.514-3.846-1.541c-1.066-1.027-1.598-2.264-1.598-3.709v-1.5a.708.708 0 0 0-.231-.527A.761.761 0 0 0 .778 8a.761.761 0 0 0-.547.223A.708.708 0 0 0 0 8.75v1.5c0 1.727.598 3.229 1.792 4.506 1.195 1.277 2.672 2.01 4.43 2.197V18.5h-3.11a.761.761 0 0 0-.548.223.708.708 0 0 0-.23.527c0 .203.076.379.23.527a.762.762 0 0 0 .547.223h7.777c.211 0 .394-.074.547-.223a.708.708 0 0 0 .231-.527.708.708 0 0 0-.23-.527.76.76 0 0 0-.548-.223h-3.11v-1.547c1.758-.188 3.234-.92 4.43-2.197C13.401 13.479 14 11.976 14 10.25v-1.5a.708.708 0 0 0-.231-.527z"/>
    </g>
</svg>
