<?xml version="1.0" encoding="UTF-8" standalone="no"?>
<!-- Generator: Adobe Illustrator 12.0.1, SVG Export Plug-In . SVG Version: 6.00 Build 51448)  -->
<svg
   xmlns:dc="http://purl.org/dc/elements/1.1/"
   xmlns:cc="http://web.resource.org/cc/"
   xmlns:rdf="http://www.w3.org/1999/02/22-rdf-syntax-ns#"
   xmlns:svg="http://www.w3.org/2000/svg"
   xmlns="http://www.w3.org/2000/svg"
   xmlns:sodipodi="http://sodipodi.sourceforge.net/DTD/sodipodi-0.dtd"
   xmlns:inkscape="http://www.inkscape.org/namespaces/inkscape"
   version="1.1"
   id="Layer_1"
   width="231.759"
   height="128.034"
   viewBox="0 0 231.759 128.034"
   style="overflow:visible;enable-background:new 0 0 231.759 128.034;"
   xml:space="preserve"
   sodipodi:version="0.32"
   inkscape:version="0.44.1"
   sodipodi:docname="Phenylalanin.svg"
   sodipodi:docbase="E:\Eigene Dateien"><metadata
   id="metadata58"><rdf:RDF><cc:Work
       rdf:about=""><dc:format>image/svg+xml</dc:format><dc:type
         rdf:resource="http://purl.org/dc/dcmitype/StillImage" /></cc:Work></rdf:RDF></metadata><defs
   id="defs56" /><sodipodi:namedview
   inkscape:window-height="573"
   inkscape:window-width="925"
   inkscape:pageshadow="2"
   inkscape:pageopacity="0.0"
   guidetolerance="10.0"
   gridtolerance="10.0"
   objecttolerance="10.0"
   borderopacity="1.0"
   bordercolor="#666666"
   pagecolor="#ffffff"
   id="base"
   inkscape:zoom="2.9523409"
   inkscape:cx="115.8795"
   inkscape:cy="64.016998"
   inkscape:window-x="220"
   inkscape:window-y="220"
   inkscape:current-layer="Layer_1" />
<path
   d="M 104.54648,49.45065 L 104.54648,47.59815 L 137.22743,66.40815 L 137.22743,67.35815 L 136.41898,67.83315 L 104.54648,49.45065 z "
   id="polygon3" />
<path
   d="M 138.03398,67.83315 L 137.22743,67.35815 L 137.22743,66.40815 L 169.85898,47.59815 L 169.85898,49.45065 L 138.03398,67.83315 z "
   id="polygon5" />
<g
   id="g7"
   transform="matrix(0.95,0,0,0.95,5.793975,3.20085)">
	<path
   d="M 198.856,68.619 C 198.856,65.767 199.622,63.534 201.154,61.92 C 202.686,60.307 204.664,59.5 207.087,59.5 C 208.674,59.5 210.105,59.879 211.378,60.637 C 212.651,61.395 213.623,62.452 214.292,63.808 C 214.96,65.164 215.294,66.702 215.294,68.42 C 215.294,70.162 214.942,71.722 214.239,73.097 C 213.535,74.473 212.538,75.514 211.249,76.221 C 209.959,76.928 208.567,77.282 207.075,77.282 C 205.457,77.282 204.011,76.891 202.737,76.11 C 201.463,75.329 200.498,74.262 199.841,72.91 C 199.185,71.558 198.856,70.127 198.856,68.619 z M 201.2,68.648 C 201.2,70.718 201.757,72.349 202.871,73.541 C 203.985,74.733 205.383,75.328 207.063,75.328 C 208.775,75.328 210.184,74.726 211.291,73.523 C 212.398,72.32 212.95,70.613 212.95,68.402 C 212.95,67.004 212.714,65.783 212.241,64.74 C 211.767,63.697 211.075,62.888 210.165,62.314 C 209.255,61.74 208.232,61.453 207.099,61.453 C 205.489,61.453 204.103,62.006 202.942,63.111 C 201.781,64.216 201.2,66.063 201.2,68.648 z "
   id="path9" />
	<path
   d="M 218.306,76.984 L 218.306,59.797 L 220.587,59.797 L 220.587,66.86 L 229.478,66.86 L 229.478,59.797 L 231.759,59.797 L 231.759,76.985 L 229.478,76.985 L 229.478,68.891 L 220.587,68.891 L 220.587,76.985 L 218.306,76.985 L 218.306,76.984 z "
   id="path11" />
</g>
<path
   d="M 169.85898,49.45065 L 169.85898,47.59815 L 194.32147,61.70565 L 193.51493,63.13065 L 169.85898,49.45065 z "
   id="polygon13" />
<g
   id="g15"
   transform="matrix(0.95,0,0,0.95,5.793975,3.20085)">
	<path
   d="M 164.456,9.119 C 164.456,6.267 165.222,4.034 166.755,2.42 C 168.286,0.807 170.265,0 172.687,0 C 174.275,0 175.705,0.379 176.978,1.137 C 178.252,1.895 179.224,2.952 179.892,4.308 C 180.56,5.664 180.894,7.202 180.894,8.92 C 180.894,10.662 180.542,12.222 179.839,13.597 C 179.136,14.973 178.139,16.014 176.849,16.721 C 175.56,17.428 174.168,17.782 172.675,17.782 C 171.058,17.782 169.611,17.391 168.337,16.61 C 167.063,15.829 166.099,14.762 165.441,13.41 C 164.784,12.058 164.456,10.627 164.456,9.119 z M 166.8,9.148 C 166.8,11.218 167.357,12.849 168.472,14.041 C 169.585,15.232 170.984,15.828 172.663,15.828 C 174.376,15.828 175.784,15.226 176.892,14.023 C 177.997,12.82 178.55,11.113 178.55,8.902 C 178.55,7.504 178.314,6.283 177.841,5.24 C 177.368,4.197 176.676,3.388 175.765,2.814 C 174.855,2.24 173.833,1.953 172.699,1.953 C 171.09,1.953 169.703,2.506 168.543,3.611 C 167.38,4.717 166.8,6.563 166.8,9.148 z "
   id="path17" />
</g>
<path
   d="M 166.20243,22.23315 L 167.81648,22.23315 L 167.81648,50.162201 L 166.20243,50.162201 L 166.20243,22.23315 z "
   id="rect19" />
<path
   d="M 171.90243,22.23315 L 173.51648,22.23315 L 173.51648,50.162201 L 171.90243,50.162201 L 171.90243,22.23315 z "
   id="rect21" />
<g
   id="g23"
   transform="matrix(0.95,0,0,0.95,5.793975,3.20085)">
	<path
   d="M 131.528,116.684 L 131.528,99.496 L 133.868,99.496 L 142.872,112.984 L 142.872,99.496 L 145.06,99.496 L 145.06,116.684 L 142.72,116.684 L 133.716,103.195 L 133.716,116.684 L 131.528,116.684 z "
   id="path25" />
	<path
   d="M 148.97,116.684 L 148.97,99.496 L 151.251,99.496 L 151.251,106.559 L 160.142,106.559 L 160.142,99.496 L 162.423,99.496 L 162.423,116.684 L 160.142,116.684 L 160.142,108.59 L 151.251,108.59 L 151.251,116.684 L 148.97,116.684 z "
   id="path27" />
</g>
<g
   id="g29"
   transform="matrix(0.95,0,0,0.95,5.793975,3.20085)">
	<path
   d="M 172.204,119.668 L 172.204,121.184 L 163.673,121.184 C 163.661,120.803 163.724,120.437 163.859,120.084 C 164.078,119.504 164.427,118.934 164.908,118.372 C 165.389,117.81 166.078,117.161 166.978,116.424 C 168.373,115.272 169.32,114.361 169.818,113.691 C 170.316,113.021 170.564,112.387 170.564,111.788 C 170.564,111.162 170.339,110.634 169.889,110.204 C 169.439,109.774 168.853,109.559 168.128,109.559 C 167.362,109.559 166.751,109.788 166.292,110.247 C 165.833,110.705 165.601,111.341 165.595,112.152 L 163.97,111.98 C 164.081,110.765 164.501,109.838 165.23,109.201 C 165.959,108.564 166.937,108.246 168.164,108.246 C 169.403,108.246 170.385,108.589 171.106,109.275 C 171.828,109.961 172.189,110.81 172.189,111.825 C 172.189,112.342 172.084,112.848 171.873,113.346 C 171.661,113.844 171.31,114.368 170.82,114.92 C 170.328,115.471 169.515,116.228 168.379,117.189 C 167.429,117.986 166.818,118.527 166.547,118.81 C 166.276,119.095 166.051,119.38 165.873,119.667 L 172.204,119.667 L 172.204,119.668 z "
   id="path31" />
</g>
<path
   d="M 138.03398,95.52565 L 136.41898,95.52565 L 136.41898,67.83315 L 137.22743,67.35815 L 138.03398,67.83315 L 138.03398,95.52565 z "
   id="polygon33" />
<path
   d="M 72.721475,67.83315 L 71.914925,67.35815 L 71.914925,66.40815 L 104.54648,47.59815 L 104.54648,49.45065 L 72.721475,67.83315 z "
   id="polygon35" />
<path
   d="M 39.281475,49.45065 L 39.281475,47.59815 L 71.914925,66.40815 L 71.914925,67.35815 L 71.106475,67.83315 L 39.281475,49.45065 z "
   id="polygon37" />
<path
   d="M 38.853975,55.72065 L 39.661475,54.34315 L 66.641475,69.92315 L 65.833975,71.34815 L 38.853975,55.72065 z "
   id="polygon39" />
<path
   d="M 7.408975,67.83315 L 5.793975,66.88315 L 39.281475,47.59815 L 39.281475,49.45065 L 7.408975,67.83315 z "
   id="polygon41" />
<path
   d="M 7.408975,104.59815 L 5.793975,105.54815 L 5.793975,66.88315 L 7.408975,67.83315 L 7.408975,104.59815 z "
   id="polygon43" />
<path
   d="M 11.446475,70.635651 L 13.061475,70.635651 L 13.061475,101.79565 L 11.446475,101.79565 L 11.446475,70.635651 z "
   id="rect45" />
<path
   d="M 39.281475,122.98065 L 39.281475,124.83315 L 5.793975,105.54815 L 7.408975,104.59815 L 39.281475,122.98065 z "
   id="polygon47" />
<path
   d="M 71.106475,104.59815 L 72.721475,105.54815 L 39.281475,124.83315 L 39.281475,122.98065 L 71.106475,104.59815 z "
   id="polygon49" />
<path
   d="M 65.833975,101.08315 L 66.641475,102.50815 L 39.661475,118.08815 L 38.853975,116.66315 L 65.833975,101.08315 z "
   id="polygon51" />
<path
   d="M 71.106475,67.83315 L 71.914925,67.35815 L 72.721475,67.83315 L 72.721475,105.54815 L 71.106475,104.59815 L 71.106475,67.83315 z "
   id="polygon53" />
</svg>