<?xml version="1.0" encoding="UTF-8" standalone="no"?>
<!-- Generator: Adobe Illustrator 12.0.1, SVG Export Plug-In . SVG Version: 6.00 Build 51448)  -->
<svg
   xmlns:dc="http://purl.org/dc/elements/1.1/"
   xmlns:cc="http://web.resource.org/cc/"
   xmlns:rdf="http://www.w3.org/1999/02/22-rdf-syntax-ns#"
   xmlns:svg="http://www.w3.org/2000/svg"
   xmlns="http://www.w3.org/2000/svg"
   xmlns:sodipodi="http://sodipodi.sourceforge.net/DTD/sodipodi-0.dtd"
   xmlns:inkscape="http://www.inkscape.org/namespaces/inkscape"
   version="1.1"
   id="Layer_1"
   width="230.684"
   height="121.184"
   viewBox="0 0 230.684 121.184"
   style="overflow:visible;enable-background:new 0 0 230.684 121.184;"
   xml:space="preserve"
   sodipodi:version="0.32"
   inkscape:version="0.44.1"
   sodipodi:docname="Isoleucin.svg"
   sodipodi:docbase="E:\Eigene Dateien"><metadata
   id="metadata66"><rdf:RDF><cc:Work
       rdf:about=""><dc:format>image/svg+xml</dc:format><dc:type
         rdf:resource="http://purl.org/dc/dcmitype/StillImage" /></cc:Work></rdf:RDF></metadata><defs
   id="defs64" /><sodipodi:namedview
   inkscape:window-height="573"
   inkscape:window-width="925"
   inkscape:pageshadow="2"
   inkscape:pageopacity="0.0"
   guidetolerance="10.0"
   gridtolerance="10.0"
   objecttolerance="10.0"
   borderopacity="1.0"
   bordercolor="#666666"
   pagecolor="#ffffff"
   id="base"
   inkscape:zoom="3.1192237"
   inkscape:cx="115.342"
   inkscape:cy="60.591999"
   inkscape:window-x="44"
   inkscape:window-y="44"
   inkscape:current-layer="Layer_1" />
<path
   d="M 103.49833,49.2794 L 103.49833,48.3294 L 104.30583,47.8544 L 136.17833,66.2369 L 136.17833,67.1869 L 135.37083,67.6619 L 103.49833,49.2794 z "
   id="polygon3" />
<path
   d="M 136.98583,67.6619 L 136.17833,67.1869 L 136.17833,66.2369 L 168.81082,47.4269 L 168.81082,49.2794 L 136.98583,67.6619 z "
   id="polygon5" />
<g
   id="g7"
   transform="matrix(0.95,0,0,0.95,5.767075,3.0296)">
	<path
   d="M 197.781,68.619 C 197.781,65.767 198.547,63.534 200.079,61.92 C 201.611,60.307 203.589,59.5 206.012,59.5 C 207.599,59.5 209.03,59.879 210.303,60.637 C 211.576,61.395 212.548,62.452 213.217,63.808 C 213.885,65.164 214.219,66.702 214.219,68.42 C 214.219,70.162 213.867,71.722 213.164,73.097 C 212.46,74.473 211.463,75.514 210.174,76.221 C 208.884,76.928 207.492,77.282 206,77.282 C 204.382,77.282 202.936,76.891 201.662,76.11 C 200.388,75.329 199.423,74.262 198.766,72.91 C 198.109,71.558 197.781,70.127 197.781,68.619 z M 200.125,68.648 C 200.125,70.718 200.682,72.349 201.796,73.541 C 202.91,74.733 204.308,75.328 205.988,75.328 C 207.7,75.328 209.109,74.726 210.216,73.523 C 211.323,72.32 211.875,70.613 211.875,68.402 C 211.875,67.004 211.639,65.783 211.166,64.74 C 210.692,63.697 210,62.888 209.09,62.314 C 208.18,61.74 207.157,61.453 206.024,61.453 C 204.414,61.453 203.028,62.006 201.867,63.111 C 200.706,64.216 200.125,66.063 200.125,68.648 z "
   id="path9" />
	<path
   d="M 217.23,76.984 L 217.23,59.797 L 219.511,59.797 L 219.511,66.86 L 228.402,66.86 L 228.402,59.797 L 230.683,59.797 L 230.683,76.985 L 228.402,76.985 L 228.402,68.891 L 219.511,68.891 L 219.511,76.985 L 217.23,76.985 L 217.23,76.984 z "
   id="path11" />
</g>
<path
   d="M 168.81082,49.2794 L 168.81082,47.4269 L 193.32083,61.5344 L 192.51332,62.9594 L 168.81082,49.2794 z "
   id="polygon13" />
<g
   id="g15"
   transform="matrix(0.95,0,0,0.95,5.767075,3.0296)">
	<path
   d="M 163.381,9.119 C 163.381,6.267 164.147,4.034 165.68,2.42 C 167.211,0.807 169.19,0 171.612,0 C 173.2,0 174.63,0.379 175.903,1.137 C 177.177,1.895 178.149,2.952 178.817,4.308 C 179.485,5.664 179.819,7.202 179.819,8.92 C 179.819,10.662 179.467,12.222 178.764,13.597 C 178.061,14.973 177.064,16.014 175.774,16.721 C 174.485,17.428 173.093,17.782 171.6,17.782 C 169.983,17.782 168.536,17.391 167.262,16.61 C 165.988,15.829 165.024,14.762 164.366,13.41 C 163.709,12.058 163.381,10.627 163.381,9.119 z M 165.725,9.148 C 165.725,11.218 166.282,12.849 167.397,14.041 C 168.51,15.232 169.909,15.828 171.588,15.828 C 173.301,15.828 174.709,15.226 175.817,14.023 C 176.922,12.82 177.475,11.113 177.475,8.902 C 177.475,7.504 177.239,6.283 176.766,5.24 C 176.293,4.197 175.601,3.388 174.69,2.814 C 173.78,2.24 172.758,1.953 171.624,1.953 C 170.015,1.953 168.628,2.506 167.468,3.611 C 166.305,4.717 165.725,6.563 165.725,9.148 z "
   id="path17" />
</g>
<path
   d="M 165.15332,22.0619 L 166.76737,22.0619 L 166.76737,49.9919 L 165.15332,49.9919 L 165.15332,22.0619 z "
   id="rect19" />
<path
   d="M 170.85332,22.0619 L 172.46737,22.0619 L 172.46737,49.9919 L 170.85332,49.9919 L 170.85332,22.0619 z "
   id="rect21" />
<g
   id="g23"
   transform="matrix(0.95,0,0,0.95,5.767075,3.0296)">
	<path
   d="M 130.453,116.684 L 130.453,99.496 L 132.793,99.496 L 141.797,112.984 L 141.797,99.496 L 143.985,99.496 L 143.985,116.684 L 141.645,116.684 L 132.641,103.195 L 132.641,116.684 L 130.453,116.684 z "
   id="path25" />
	<path
   d="M 147.895,116.684 L 147.895,99.496 L 150.176,99.496 L 150.176,106.559 L 159.067,106.559 L 159.067,99.496 L 161.348,99.496 L 161.348,116.684 L 159.067,116.684 L 159.067,108.59 L 150.176,108.59 L 150.176,116.684 L 147.895,116.684 z "
   id="path27" />
</g>
<g
   id="g29"
   transform="matrix(0.95,0,0,0.95,5.767075,3.0296)">
	<path
   d="M 171.129,119.668 L 171.129,121.184 L 162.598,121.184 C 162.586,120.803 162.649,120.437 162.784,120.084 C 163.003,119.504 163.352,118.934 163.833,118.372 C 164.314,117.81 165.003,117.161 165.903,116.424 C 167.298,115.272 168.245,114.361 168.743,113.691 C 169.241,113.021 169.489,112.387 169.489,111.788 C 169.489,111.162 169.264,110.634 168.814,110.204 C 168.364,109.774 167.778,109.559 167.053,109.559 C 166.287,109.559 165.676,109.788 165.217,110.247 C 164.758,110.705 164.526,111.341 164.52,112.152 L 162.895,111.98 C 163.006,110.765 163.426,109.838 164.155,109.201 C 164.884,108.564 165.862,108.246 167.089,108.246 C 168.328,108.246 169.31,108.589 170.031,109.275 C 170.753,109.961 171.114,110.81 171.114,111.825 C 171.114,112.342 171.009,112.848 170.798,113.346 C 170.586,113.844 170.235,114.368 169.745,114.92 C 169.253,115.471 168.44,116.228 167.304,117.189 C 166.354,117.986 165.743,118.527 165.472,118.81 C 165.201,119.095 164.976,119.38 164.798,119.667 L 171.129,119.667 L 171.129,119.668 z "
   id="path31" />
</g>
<path
   d="M 136.98583,95.4019 L 135.37083,95.4019 L 135.37083,67.6619 L 136.17833,67.1869 L 136.98583,67.6619 L 136.98583,95.4019 z "
   id="polygon33" />
<path
   d="M 102.69083,47.8544 L 103.49833,48.3294 L 103.49833,49.2794 L 70.865825,68.1369 L 70.865825,66.2369 L 102.69083,47.8544 z "
   id="polygon35" />
<g
   id="g37"
   transform="matrix(0.95,0,0,0.95,5.767075,3.0296)">
	<path
   d="M 0,57.134 L 0,39.946 L 2.281,39.946 L 2.281,47.009 L 11.172,47.009 L 11.172,39.946 L 13.453,39.946 L 13.453,57.134 L 11.172,57.134 L 11.172,49.04 L 2.281,49.04 L 2.281,57.134 L 0,57.134 z "
   id="path39" />
</g>
<g
   id="g41"
   transform="matrix(0.95,0,0,0.95,5.767075,3.0296)">
	<path
   d="M 14.461,58.228 L 16.039,58.009 C 16.222,58.905 16.531,59.552 16.967,59.947 C 17.404,60.343 17.939,60.541 18.574,60.541 C 19.327,60.541 19.96,60.283 20.473,59.768 C 20.986,59.253 21.242,58.615 21.242,57.854 C 21.242,57.127 21.004,56.529 20.526,56.057 C 20.049,55.586 19.443,55.35 18.707,55.35 C 18.406,55.35 18.032,55.409 17.585,55.526 L 17.762,54.135 C 17.868,54.147 17.953,54.153 18.018,54.153 C 18.692,54.153 19.299,53.977 19.839,53.627 C 20.379,53.276 20.649,52.735 20.649,52.004 C 20.649,51.425 20.452,50.945 20.058,50.566 C 19.664,50.186 19.156,49.996 18.533,49.996 C 17.916,49.996 17.401,50.19 16.99,50.578 C 16.578,50.967 16.314,51.549 16.197,52.324 L 14.619,52.043 C 14.812,50.981 15.253,50.158 15.939,49.574 C 16.625,48.991 17.479,48.699 18.5,48.699 C 19.204,48.699 19.853,48.849 20.445,49.151 C 21.037,49.452 21.49,49.863 21.805,50.383 C 22.118,50.904 22.276,51.456 22.276,52.041 C 22.276,52.597 22.127,53.103 21.828,53.559 C 21.529,54.015 21.087,54.377 20.501,54.647 C 21.263,54.823 21.855,55.187 22.28,55.742 C 22.704,56.295 22.917,56.988 22.917,57.82 C 22.917,58.945 22.506,59.899 21.684,60.681 C 20.862,61.464 19.823,61.855 18.567,61.855 C 17.434,61.855 16.493,61.519 15.745,60.845 C 14.994,60.171 14.567,59.298 14.461,58.228 z "
   id="path43" />
</g>
<g
   id="g45"
   transform="matrix(0.95,0,0,0.95,5.767075,3.0296)">
	<path
   d="M 37.039,51.106 L 39.32,51.68 C 38.844,53.55 37.987,54.976 36.751,55.957 C 35.514,56.939 34.001,57.43 32.214,57.43 C 30.364,57.43 28.86,57.053 27.701,56.298 C 26.542,55.543 25.66,54.451 25.055,53.02 C 24.45,51.589 24.148,50.053 24.148,48.411 C 24.148,46.62 24.489,45.058 25.172,43.725 C 25.855,42.391 26.826,41.379 28.087,40.687 C 29.347,39.995 30.733,39.649 32.247,39.649 C 33.964,39.649 35.407,40.087 36.577,40.963 C 37.748,41.84 38.563,43.072 39.023,44.66 L 36.789,45.187 C 36.391,43.937 35.814,43.027 35.058,42.457 C 34.301,41.887 33.349,41.602 32.203,41.602 C 30.885,41.602 29.783,41.918 28.897,42.551 C 28.012,43.184 27.39,44.033 27.031,45.1 C 26.672,46.167 26.493,47.266 26.493,48.399 C 26.493,49.86 26.705,51.135 27.13,52.225 C 27.555,53.315 28.215,54.129 29.112,54.668 C 30.009,55.207 30.979,55.477 32.024,55.477 C 33.295,55.477 34.37,55.11 35.251,54.375 C 36.132,53.64 36.727,52.552 37.039,51.106 z "
   id="path47" />
</g>
<path
   d="M 70.865825,66.2369 L 70.865825,68.1369 L 47.115825,54.4094 L 47.923325,53.0319 L 70.865825,66.2369 z "
   id="polygon49" />
<g
   id="g51"
   transform="matrix(0.95,0,0,0.95,5.767075,3.0296)">
	<path
   d="M 108.369,11.457 L 110.65,12.031 C 110.174,13.901 109.317,15.327 108.081,16.308 C 106.844,17.29 105.331,17.781 103.544,17.781 C 101.694,17.781 100.19,17.404 99.031,16.649 C 97.872,15.894 96.99,14.802 96.385,13.371 C 95.78,11.94 95.478,10.404 95.478,8.762 C 95.478,6.971 95.819,5.409 96.502,4.076 C 97.185,2.742 98.156,1.73 99.417,1.038 C 100.677,0.346 102.063,-2.8865799e-015 103.577,-2.8865799e-015 C 105.294,-2.8865799e-015 106.737,0.438 107.907,1.314 C 109.078,2.191 109.893,3.423 110.353,5.011 L 108.119,5.538 C 107.721,4.288 107.144,3.378 106.388,2.808 C 105.631,2.238 104.679,1.953 103.533,1.953 C 102.215,1.953 101.113,2.269 100.227,2.902 C 99.342,3.535 98.72,4.384 98.361,5.451 C 98.002,6.518 97.823,7.617 97.823,8.75 C 97.823,10.211 98.035,11.486 98.46,12.576 C 98.885,13.666 99.545,14.48 100.442,15.019 C 101.339,15.558 102.309,15.828 103.354,15.828 C 104.625,15.828 105.7,15.461 106.581,14.726 C 107.462,13.991 108.057,12.902 108.369,11.457 z "
   id="path53" />
	<path
   d="M 113.544,17.484 L 113.544,0.297 L 115.825,0.297 L 115.825,7.36 L 124.716,7.36 L 124.716,0.297 L 126.997,0.297 L 126.997,17.485 L 124.716,17.485 L 124.716,9.391 L 115.825,9.391 L 115.825,17.485 L 113.544,17.485 L 113.544,17.484 z "
   id="path55" />
</g>
<g
   id="g57"
   transform="matrix(0.95,0,0,0.95,5.767075,3.0296)">
	<path
   d="M 127.595,18.578 L 129.173,18.359 C 129.356,19.255 129.665,19.902 130.101,20.297 C 130.538,20.693 131.073,20.891 131.708,20.891 C 132.461,20.891 133.094,20.633 133.607,20.118 C 134.119,19.603 134.376,18.965 134.376,18.204 C 134.376,17.477 134.138,16.879 133.66,16.407 C 133.183,15.936 132.576,15.7 131.841,15.7 C 131.54,15.7 131.166,15.759 130.719,15.876 L 130.896,14.485 C 131.002,14.497 131.087,14.503 131.152,14.503 C 131.827,14.503 132.433,14.327 132.973,13.977 C 133.512,13.626 133.783,13.085 133.783,12.354 C 133.783,11.775 133.586,11.295 133.192,10.916 C 132.797,10.536 132.29,10.346 131.667,10.346 C 131.05,10.346 130.535,10.54 130.124,10.928 C 129.712,11.317 129.447,11.899 129.33,12.674 L 127.752,12.393 C 127.945,11.331 128.386,10.508 129.072,9.924 C 129.759,9.341 130.612,9.049 131.633,9.049 C 132.337,9.049 132.986,9.199 133.577,9.501 C 134.17,9.802 134.623,10.213 134.937,10.733 C 135.25,11.254 135.408,11.806 135.408,12.391 C 135.408,12.947 135.259,13.453 134.96,13.909 C 134.661,14.365 134.219,14.727 133.633,14.997 C 134.395,15.173 134.987,15.537 135.412,16.092 C 135.837,16.645 136.049,17.338 136.049,18.17 C 136.049,19.295 135.638,20.249 134.816,21.031 C 133.995,21.814 132.956,22.205 131.7,22.205 C 130.566,22.205 129.626,21.869 128.878,21.195 C 128.127,20.521 127.7,19.648 127.595,18.578 z "
   id="path59" />
</g>
<path
   d="M 102.69083,22.0619 L 104.30583,22.0619 L 104.30583,47.8544 L 103.49833,48.3294 L 102.69083,47.8544 L 102.69083,22.0619 z "
   id="polygon61" />
</svg>