<?xml version="1.0" encoding="UTF-8" standalone="no"?>
<!-- Generator: Adobe Illustrator 12.0.1, SVG Export Plug-In . SVG Version: 6.00 Build 51448)  -->
<svg
   xmlns:dc="http://purl.org/dc/elements/1.1/"
   xmlns:cc="http://web.resource.org/cc/"
   xmlns:rdf="http://www.w3.org/1999/02/22-rdf-syntax-ns#"
   xmlns:svg="http://www.w3.org/2000/svg"
   xmlns="http://www.w3.org/2000/svg"
   xmlns:sodipodi="http://sodipodi.sourceforge.net/DTD/sodipodi-0.dtd"
   xmlns:inkscape="http://www.inkscape.org/namespaces/inkscape"
   version="1.1"
   id="Layer_1"
   width="299.434"
   height="121.184"
   viewBox="0 0 299.434 121.184"
   style="overflow:visible;enable-background:new 0 0 299.434 121.184;"
   xml:space="preserve"
   sodipodi:version="0.32"
   inkscape:version="0.44.1"
   sodipodi:docname="Lysin.svg"
   sodipodi:docbase="E:\Eigene Dateien"><metadata
   id="metadata58"><rdf:RDF><cc:Work
       rdf:about=""><dc:format>image/svg+xml</dc:format><dc:type
         rdf:resource="http://purl.org/dc/dcmitype/StillImage" /></cc:Work></rdf:RDF></metadata><defs
   id="defs56" /><sodipodi:namedview
   inkscape:window-height="573"
   inkscape:window-width="925"
   inkscape:pageshadow="2"
   inkscape:pageopacity="0.0"
   guidetolerance="10.0"
   gridtolerance="10.0"
   objecttolerance="10.0"
   borderopacity="1.0"
   bordercolor="#666666"
   pagecolor="#ffffff"
   id="base"
   inkscape:zoom="2.8086324"
   inkscape:cx="149.717"
   inkscape:cy="60.591999"
   inkscape:window-x="132"
   inkscape:window-y="132"
   inkscape:current-layer="Layer_1" />
<path
   d="M 170.52957,49.2794 L 170.52957,47.4269 L 203.20958,66.2369 L 203.20958,67.1869 L 202.40208,67.6619 L 170.52957,49.2794 z "
   id="polygon3" />
<path
   d="M 204.01708,67.6619 L 203.20958,67.1869 L 203.20958,66.2369 L 235.84207,47.4269 L 235.84207,49.2794 L 204.01708,67.6619 z "
   id="polygon5" />
<g
   id="g7"
   transform="matrix(0.95,0,0,0.95,7.485825,3.0296)">
	<path
   d="M 266.531,68.619 C 266.531,65.767 267.297,63.534 268.829,61.92 C 270.361,60.307 272.339,59.5 274.762,59.5 C 276.349,59.5 277.78,59.879 279.053,60.637 C 280.326,61.395 281.298,62.452 281.967,63.808 C 282.635,65.164 282.969,66.702 282.969,68.42 C 282.969,70.162 282.617,71.722 281.914,73.097 C 281.21,74.473 280.213,75.514 278.924,76.221 C 277.634,76.928 276.242,77.282 274.75,77.282 C 273.132,77.282 271.686,76.891 270.412,76.11 C 269.138,75.329 268.173,74.262 267.516,72.91 C 266.859,71.558 266.531,70.127 266.531,68.619 z M 268.875,68.648 C 268.875,70.718 269.432,72.349 270.546,73.541 C 271.66,74.733 273.058,75.328 274.738,75.328 C 276.45,75.328 277.859,74.726 278.966,73.523 C 280.073,72.32 280.625,70.613 280.625,68.402 C 280.625,67.004 280.389,65.783 279.916,64.74 C 279.442,63.697 278.75,62.888 277.84,62.314 C 276.93,61.74 275.907,61.453 274.774,61.453 C 273.164,61.453 271.778,62.006 270.617,63.111 C 269.456,64.216 268.875,66.063 268.875,68.648 z "
   id="path9" />
	<path
   d="M 285.98,76.984 L 285.98,59.797 L 288.261,59.797 L 288.261,66.86 L 297.152,66.86 L 297.152,59.797 L 299.433,59.797 L 299.433,76.985 L 297.152,76.985 L 297.152,68.891 L 288.261,68.891 L 288.261,76.985 L 285.98,76.985 L 285.98,76.984 z "
   id="path11" />
</g>
<path
   d="M 235.84207,49.2794 L 235.84207,47.4269 L 260.30458,61.5344 L 259.49708,62.9119 L 235.84207,49.2794 z "
   id="polygon13" />
<g
   id="g15"
   transform="matrix(0.95,0,0,0.95,7.485825,3.0296)">
	<path
   d="M 232.131,9.119 C 232.131,6.267 232.897,4.034 234.43,2.42 C 235.961,0.807 237.94,0 240.362,0 C 241.95,0 243.38,0.379 244.653,1.137 C 245.927,1.895 246.899,2.952 247.567,4.308 C 248.235,5.664 248.569,7.202 248.569,8.92 C 248.569,10.662 248.217,12.222 247.514,13.597 C 246.811,14.973 245.814,16.014 244.524,16.721 C 243.235,17.428 241.843,17.782 240.35,17.782 C 238.733,17.782 237.286,17.391 236.012,16.61 C 234.738,15.829 233.774,14.762 233.116,13.41 C 232.459,12.058 232.131,10.627 232.131,9.119 z M 234.475,9.148 C 234.475,11.218 235.032,12.849 236.147,14.041 C 237.26,15.232 238.659,15.828 240.338,15.828 C 242.051,15.828 243.459,15.226 244.567,14.023 C 245.672,12.82 246.225,11.113 246.225,8.902 C 246.225,7.504 245.989,6.283 245.516,5.24 C 245.043,4.197 244.351,3.388 243.44,2.814 C 242.53,2.24 241.508,1.953 240.374,1.953 C 238.765,1.953 237.378,2.506 236.218,3.611 C 235.055,4.717 234.475,6.563 234.475,9.148 z "
   id="path17" />
</g>
<path
   d="M 232.18457,22.0619 L 233.79862,22.0619 L 233.79862,49.9919 L 232.18457,49.9919 L 232.18457,22.0619 z "
   id="rect19" />
<path
   d="M 237.88457,22.0619 L 239.49862,22.0619 L 239.49862,49.9919 L 237.88457,49.9919 L 237.88457,22.0619 z "
   id="rect21" />
<g
   id="g23"
   transform="matrix(0.95,0,0,0.95,7.485825,3.0296)">
	<path
   d="M 199.203,116.684 L 199.203,99.496 L 201.543,99.496 L 210.547,112.984 L 210.547,99.496 L 212.735,99.496 L 212.735,116.684 L 210.395,116.684 L 201.391,103.195 L 201.391,116.684 L 199.203,116.684 z "
   id="path25" />
	<path
   d="M 216.645,116.684 L 216.645,99.496 L 218.926,99.496 L 218.926,106.559 L 227.817,106.559 L 227.817,99.496 L 230.098,99.496 L 230.098,116.684 L 227.817,116.684 L 227.817,108.59 L 218.926,108.59 L 218.926,116.684 L 216.645,116.684 z "
   id="path27" />
</g>
<g
   id="g29"
   transform="matrix(0.95,0,0,0.95,7.485825,3.0296)">
	<path
   d="M 239.879,119.668 L 239.879,121.184 L 231.348,121.184 C 231.336,120.803 231.399,120.437 231.534,120.084 C 231.753,119.504 232.102,118.934 232.583,118.372 C 233.064,117.81 233.753,117.161 234.653,116.424 C 236.048,115.272 236.995,114.361 237.493,113.691 C 237.991,113.021 238.239,112.387 238.239,111.788 C 238.239,111.162 238.014,110.634 237.564,110.204 C 237.114,109.774 236.528,109.559 235.803,109.559 C 235.037,109.559 234.426,109.788 233.967,110.247 C 233.508,110.705 233.276,111.341 233.27,112.152 L 231.645,111.98 C 231.756,110.765 232.176,109.838 232.905,109.201 C 233.634,108.564 234.612,108.246 235.839,108.246 C 237.078,108.246 238.06,108.589 238.781,109.275 C 239.503,109.961 239.864,110.81 239.864,111.825 C 239.864,112.342 239.759,112.848 239.548,113.346 C 239.336,113.844 238.985,114.368 238.495,114.92 C 238.003,115.471 237.19,116.228 236.054,117.189 C 235.104,117.986 234.493,118.527 234.222,118.81 C 233.951,119.095 233.726,119.38 233.548,119.667 L 239.879,119.667 L 239.879,119.668 z "
   id="path31" />
</g>
<path
   d="M 204.01708,95.3544 L 202.40208,95.3544 L 202.40208,67.6619 L 203.20958,67.1869 L 204.01708,67.6619 L 204.01708,95.3544 z "
   id="polygon33" />
<path
   d="M 170.52957,47.4269 L 170.52957,49.2794 L 137.89708,68.1369 L 137.89708,66.2369 L 170.52957,47.4269 z "
   id="polygon35" />
<path
   d="M 137.89708,66.2369 L 137.89708,68.1369 L 105.26458,49.2794 L 105.26458,47.4269 L 137.89708,66.2369 z "
   id="polygon37" />
<path
   d="M 105.26458,47.4269 L 105.26458,49.2794 L 72.584575,68.1369 L 72.584575,66.2369 L 105.26458,47.4269 z "
   id="polygon39" />
<g
   id="g41"
   transform="matrix(0.95,0,0,0.95,7.485825,3.0296)">
	<path
   d="M 0,57.134 L 0,39.946 L 2.281,39.946 L 2.281,47.009 L 11.172,47.009 L 11.172,39.946 L 13.453,39.946 L 13.453,57.134 L 11.172,57.134 L 11.172,49.04 L 2.281,49.04 L 2.281,57.134 L 0,57.134 z "
   id="path43" />
</g>
<g
   id="g45"
   transform="matrix(0.95,0,0,0.95,7.485825,3.0296)">
	<path
   d="M 22.774,60.118 L 22.774,61.634 L 14.243,61.634 C 14.231,61.253 14.293,60.887 14.429,60.534 C 14.647,59.954 14.996,59.384 15.477,58.822 C 15.957,58.26 16.647,57.611 17.547,56.874 C 18.943,55.722 19.889,54.811 20.387,54.141 C 20.885,53.471 21.134,52.837 21.134,52.238 C 21.134,51.612 20.909,51.084 20.459,50.654 C 20.009,50.224 19.422,50.009 18.699,50.009 C 17.933,50.009 17.322,50.238 16.863,50.697 C 16.404,51.155 16.172,51.791 16.166,52.602 L 14.541,52.43 C 14.652,51.215 15.072,50.288 15.801,49.651 C 16.529,49.014 17.507,48.696 18.735,48.696 C 19.974,48.696 20.955,49.039 21.677,49.725 C 22.399,50.411 22.76,51.26 22.76,52.275 C 22.76,52.792 22.654,53.298 22.443,53.796 C 22.232,54.294 21.88,54.818 21.39,55.37 C 20.899,55.921 20.086,56.678 18.95,57.639 C 17.999,58.436 17.388,58.977 17.117,59.26 C 16.846,59.545 16.621,59.83 16.444,60.117 L 22.774,60.117 L 22.774,60.118 z "
   id="path47" />
</g>
<g
   id="g49"
   transform="matrix(0.95,0,0,0.95,7.485825,3.0296)">
	<path
   d="M 24.773,57.134 L 24.773,39.946 L 27.113,39.946 L 36.117,53.434 L 36.117,39.946 L 38.305,39.946 L 38.305,57.134 L 35.965,57.134 L 26.96,43.645 L 26.96,57.134 L 24.773,57.134 z "
   id="path51" />
</g>
<path
   d="M 72.584575,66.2369 L 72.584575,68.1369 L 49.167075,54.5994 L 49.974575,53.1744 L 72.584575,66.2369 z "
   id="polygon53" />
</svg>