<?xml version="1.0" encoding="UTF-8" standalone="no"?>
<!-- Generator: Adobe Illustrator 12.0.1, SVG Export Plug-In . SVG Version: 6.00 Build 51448)  -->
<svg
   xmlns:dc="http://purl.org/dc/elements/1.1/"
   xmlns:cc="http://web.resource.org/cc/"
   xmlns:rdf="http://www.w3.org/1999/02/22-rdf-syntax-ns#"
   xmlns:svg="http://www.w3.org/2000/svg"
   xmlns="http://www.w3.org/2000/svg"
   xmlns:sodipodi="http://sodipodi.sourceforge.net/DTD/sodipodi-0.dtd"
   xmlns:inkscape="http://www.inkscape.org/namespaces/inkscape"
   version="1.1"
   id="Layer_1"
   width="186.871"
   height="121.184"
   viewBox="0 0 186.871 121.184"
   style="overflow:visible;enable-background:new 0 0 186.871 121.184;"
   xml:space="preserve"
   sodipodi:version="0.32"
   inkscape:version="0.44.1"
   sodipodi:docname="Serin.svg"
   sodipodi:docbase="E:\Eigene Dateien"><metadata
   id="metadata46"><rdf:RDF><cc:Work
       rdf:about=""><dc:format>image/svg+xml</dc:format><dc:type
         rdf:resource="http://purl.org/dc/dcmitype/StillImage" /></cc:Work></rdf:RDF></metadata><defs
   id="defs44" /><sodipodi:namedview
   inkscape:window-height="573"
   inkscape:window-width="925"
   inkscape:pageshadow="2"
   inkscape:pageopacity="0.0"
   guidetolerance="10.0"
   gridtolerance="10.0"
   objecttolerance="10.0"
   borderopacity="1.0"
   bordercolor="#666666"
   pagecolor="#ffffff"
   id="base"
   inkscape:zoom="3.1192237"
   inkscape:cx="93.435501"
   inkscape:cy="60.591999"
   inkscape:window-x="88"
   inkscape:window-y="88"
   inkscape:current-layer="Layer_1" />
<path
   d="M 60.781625,49.2794 L 60.781625,47.4269 L 93.460675,66.2369 L 93.460675,67.1869 L 92.653175,67.6619 L 60.781625,49.2794 z "
   id="polygon3" />
<path
   d="M 94.269125,67.6619 L 93.460675,67.1869 L 93.460675,66.2369 L 126.09413,47.4269 L 126.09413,49.2794 L 94.269125,67.6619 z "
   id="polygon5" />
<g
   id="g7"
   transform="matrix(0.95,0,0,0.95,4.671775,3.0296)">
	<path
   d="M 153.969,68.619 C 153.969,65.767 154.735,63.534 156.267,61.92 C 157.799,60.307 159.777,59.5 162.2,59.5 C 163.787,59.5 165.218,59.879 166.491,60.637 C 167.764,61.395 168.736,62.452 169.405,63.808 C 170.073,65.164 170.407,66.702 170.407,68.42 C 170.407,70.162 170.055,71.722 169.352,73.097 C 168.648,74.473 167.651,75.514 166.362,76.221 C 165.072,76.928 163.68,77.282 162.188,77.282 C 160.57,77.282 159.124,76.891 157.85,76.11 C 156.576,75.329 155.611,74.262 154.954,72.91 C 154.297,71.558 153.969,70.127 153.969,68.619 z M 156.313,68.648 C 156.313,70.718 156.87,72.349 157.984,73.541 C 159.098,74.733 160.496,75.328 162.176,75.328 C 163.888,75.328 165.297,74.726 166.404,73.523 C 167.511,72.32 168.063,70.613 168.063,68.402 C 168.063,67.004 167.827,65.783 167.354,64.74 C 166.88,63.697 166.188,62.888 165.278,62.314 C 164.368,61.74 163.345,61.453 162.212,61.453 C 160.602,61.453 159.216,62.006 158.055,63.111 C 156.894,64.216 156.313,66.063 156.313,68.648 z "
   id="path9" />
	<path
   d="M 173.418,76.984 L 173.418,59.797 L 175.699,59.797 L 175.699,66.86 L 184.59,66.86 L 184.59,59.797 L 186.871,59.797 L 186.871,76.985 L 184.59,76.985 L 184.59,68.891 L 175.699,68.891 L 175.699,76.985 L 173.418,76.985 L 173.418,76.984 z "
   id="path11" />
</g>
<path
   d="M 126.09413,49.2794 L 126.09413,47.4269 L 150.55663,61.5344 L 149.74912,62.9594 L 126.09413,49.2794 z "
   id="polygon13" />
<g
   id="g15"
   transform="matrix(0.95,0,0,0.95,4.671775,3.0296)">
	<path
   d="M 119.568,9.119 C 119.568,6.267 120.334,4.034 121.866,2.42 C 123.398,0.807 125.376,0 127.799,0 C 129.386,0 130.817,0.379 132.09,1.137 C 133.363,1.895 134.335,2.952 135.004,4.308 C 135.672,5.664 136.006,7.202 136.006,8.92 C 136.006,10.662 135.654,12.222 134.951,13.597 C 134.247,14.973 133.25,16.014 131.961,16.721 C 130.671,17.428 129.279,17.782 127.787,17.782 C 126.169,17.782 124.723,17.391 123.449,16.61 C 122.175,15.829 121.21,14.762 120.553,13.41 C 119.896,12.058 119.568,10.627 119.568,9.119 z M 121.912,9.148 C 121.912,11.218 122.469,12.849 123.583,14.041 C 124.697,15.233 126.095,15.828 127.775,15.828 C 129.487,15.828 130.896,15.226 132.003,14.023 C 133.11,12.82 133.662,11.113 133.662,8.902 C 133.662,7.504 133.426,6.283 132.953,5.24 C 132.479,4.197 131.787,3.388 130.877,2.814 C 129.967,2.24 128.944,1.953 127.811,1.953 C 126.201,1.953 124.815,2.506 123.654,3.611 C 122.493,4.716 121.912,6.563 121.912,9.148 z "
   id="path17" />
</g>
<path
   d="M 122.43662,22.0619 L 124.05068,22.0619 L 124.05068,49.990951 L 122.43662,49.990951 L 122.43662,22.0619 z "
   id="rect19" />
<path
   d="M 128.13662,22.0619 L 129.75068,22.0619 L 129.75068,49.990951 L 128.13662,49.990951 L 128.13662,22.0619 z "
   id="rect21" />
<g
   id="g23"
   transform="matrix(0.95,0,0,0.95,4.671775,3.0296)">
	<path
   d="M 86.641,116.684 L 86.641,99.496 L 88.981,99.496 L 97.985,112.984 L 97.985,99.496 L 100.173,99.496 L 100.173,116.684 L 97.833,116.684 L 88.829,103.195 L 88.829,116.684 L 86.641,116.684 z "
   id="path25" />
	<path
   d="M 104.082,116.684 L 104.082,99.496 L 106.363,99.496 L 106.363,106.559 L 115.254,106.559 L 115.254,99.496 L 117.535,99.496 L 117.535,116.684 L 115.254,116.684 L 115.254,108.59 L 106.363,108.59 L 106.363,116.684 L 104.082,116.684 z "
   id="path27" />
</g>
<g
   id="g29"
   transform="matrix(0.95,0,0,0.95,4.671775,3.0296)">
	<path
   d="M 127.317,119.668 L 127.317,121.184 L 118.786,121.184 C 118.774,120.803 118.836,120.437 118.972,120.084 C 119.19,119.504 119.539,118.934 120.02,118.372 C 120.501,117.81 121.191,117.161 122.09,116.424 C 123.486,115.272 124.432,114.361 124.93,113.691 C 125.428,113.021 125.677,112.387 125.677,111.788 C 125.677,111.162 125.451,110.634 125.002,110.204 C 124.551,109.774 123.965,109.559 123.241,109.559 C 122.475,109.559 121.864,109.788 121.405,110.247 C 120.946,110.705 120.714,111.341 120.708,112.152 L 119.083,111.98 C 119.194,110.765 119.614,109.838 120.343,109.201 C 121.071,108.564 122.049,108.246 123.277,108.246 C 124.516,108.246 125.497,108.589 126.219,109.275 C 126.941,109.961 127.302,110.81 127.302,111.825 C 127.302,112.342 127.196,112.848 126.985,113.346 C 126.774,113.844 126.422,114.368 125.932,114.92 C 125.441,115.471 124.627,116.228 123.492,117.189 C 122.542,117.986 121.93,118.527 121.659,118.81 C 121.388,119.095 121.163,119.38 120.986,119.667 L 127.317,119.667 L 127.317,119.668 z "
   id="path31" />
</g>
<path
   d="M 94.269125,95.3544 L 92.653175,95.3544 L 92.653175,67.6619 L 93.460675,67.1869 L 94.269125,67.6619 L 94.269125,95.3544 z "
   id="polygon33" />
<g
   id="g35"
   transform="matrix(0.95,0,0,0.95,4.671775,3.0296)">
	<path
   d="M 0,76.984 L 0,59.797 L 2.281,59.797 L 2.281,66.86 L 11.172,66.86 L 11.172,59.797 L 13.453,59.797 L 13.453,76.985 L 11.172,76.985 L 11.172,68.891 L 2.281,68.891 L 2.281,76.985 L 0,76.985 L 0,76.984 z "
   id="path37" />
	<path
   d="M 16.551,68.619 C 16.551,65.767 17.317,63.534 18.849,61.92 C 20.381,60.307 22.359,59.5 24.782,59.5 C 26.369,59.5 27.799,59.879 29.073,60.637 C 30.347,61.395 31.318,62.452 31.987,63.808 C 32.655,65.164 32.989,66.702 32.989,68.42 C 32.989,70.162 32.637,71.722 31.934,73.097 C 31.23,74.473 30.234,75.514 28.944,76.221 C 27.654,76.928 26.263,77.282 24.77,77.282 C 23.152,77.282 21.706,76.891 20.432,76.11 C 19.158,75.329 18.193,74.262 17.536,72.91 C 16.879,71.558 16.551,70.127 16.551,68.619 z M 18.895,68.648 C 18.895,70.718 19.452,72.349 20.566,73.541 C 21.68,74.733 23.078,75.328 24.758,75.328 C 26.47,75.328 27.879,74.726 28.986,73.523 C 30.092,72.32 30.645,70.613 30.645,68.402 C 30.645,67.004 30.409,65.783 29.936,64.74 C 29.463,63.697 28.771,62.888 27.86,62.314 C 26.949,61.74 25.927,61.453 24.794,61.453 C 23.184,61.453 21.798,62.006 20.637,63.111 C 19.476,64.216 18.895,66.063 18.895,68.648 z "
   id="path39" />
</g>
<path
   d="M 37.126625,62.9594 L 36.319125,61.5344 L 60.781625,47.4269 L 60.781625,49.2794 L 37.126625,62.9594 z "
   id="polygon41" />
</svg>