<?xml version="1.0" encoding="UTF-8" standalone="no"?>
<!-- Generator: Adobe Illustrator 12.0.1, SVG Export Plug-In . SVG Version: 6.00 Build 51448)  -->
<svg
   xmlns:dc="http://purl.org/dc/elements/1.1/"
   xmlns:cc="http://web.resource.org/cc/"
   xmlns:rdf="http://www.w3.org/1999/02/22-rdf-syntax-ns#"
   xmlns:svg="http://www.w3.org/2000/svg"
   xmlns="http://www.w3.org/2000/svg"
   xmlns:sodipodi="http://sodipodi.sourceforge.net/DTD/sodipodi-0.dtd"
   xmlns:inkscape="http://www.inkscape.org/namespaces/inkscape"
   version="1.1"
   id="Layer_1"
   width="289.971"
   height="136.831"
   viewBox="0 0 289.971 136.831"
   style="overflow:visible;enable-background:new 0 0 289.971 136.831;"
   xml:space="preserve"
   sodipodi:version="0.32"
   inkscape:version="0.44.1"
   sodipodi:docname="Tyrosin.svg"
   sodipodi:docbase="E:\Eigene Dateien"><metadata
   id="metadata66"><rdf:RDF><cc:Work
       rdf:about=""><dc:format>image/svg+xml</dc:format><dc:type
         rdf:resource="http://purl.org/dc/dcmitype/StillImage" /></cc:Work></rdf:RDF></metadata><defs
   id="defs64" /><sodipodi:namedview
   inkscape:window-height="573"
   inkscape:window-width="925"
   inkscape:pageshadow="2"
   inkscape:pageopacity="0.0"
   guidetolerance="10.0"
   gridtolerance="10.0"
   objecttolerance="10.0"
   borderopacity="1.0"
   bordercolor="#666666"
   pagecolor="#ffffff"
   id="base"
   inkscape:zoom="2.762532"
   inkscape:cx="144.9855"
   inkscape:cy="68.415497"
   inkscape:window-x="22"
   inkscape:window-y="22"
   inkscape:current-layer="Layer_1" />
<path
   d="M 161.30413,49.6706 L 161.30413,47.8181 L 193.98412,66.6281 L 193.98412,67.5781 L 193.17567,68.0531 L 161.30413,49.6706 z "
   id="polygon3" />
<path
   d="M 194.79163,68.0531 L 193.98412,67.5781 L 193.98412,66.6281 L 226.61663,47.8181 L 226.61663,49.6706 L 194.79163,68.0531 z "
   id="polygon5" />
<g
   id="g7"
   transform="matrix(0.95,0,0,0.95,7.249275,3.4208)">
	<path
   d="M 257.069,68.619 C 257.069,65.767 257.835,63.534 259.367,61.92 C 260.899,60.307 262.877,59.5 265.3,59.5 C 266.887,59.5 268.318,59.879 269.591,60.637 C 270.864,61.395 271.836,62.452 272.505,63.808 C 273.173,65.164 273.507,66.702 273.507,68.42 C 273.507,70.162 273.155,71.722 272.452,73.097 C 271.748,74.473 270.751,75.514 269.462,76.221 C 268.172,76.928 266.78,77.282 265.288,77.282 C 263.67,77.282 262.224,76.891 260.95,76.11 C 259.676,75.329 258.711,74.262 258.054,72.91 C 257.397,71.558 257.069,70.127 257.069,68.619 z M 259.413,68.648 C 259.413,70.718 259.97,72.349 261.084,73.541 C 262.198,74.733 263.596,75.328 265.276,75.328 C 266.988,75.328 268.397,74.726 269.504,73.523 C 270.611,72.32 271.163,70.613 271.163,68.402 C 271.163,67.004 270.927,65.783 270.454,64.74 C 269.98,63.697 269.288,62.888 268.378,62.314 C 267.468,61.74 266.445,61.453 265.312,61.453 C 263.702,61.453 262.316,62.006 261.155,63.111 C 259.994,64.216 259.413,66.063 259.413,68.648 z "
   id="path9" />
	<path
   d="M 276.518,76.984 L 276.518,59.797 L 278.799,59.797 L 278.799,66.86 L 287.69,66.86 L 287.69,59.797 L 289.971,59.797 L 289.971,76.985 L 287.69,76.985 L 287.69,68.891 L 278.799,68.891 L 278.799,76.985 L 276.518,76.985 L 276.518,76.984 z "
   id="path11" />
</g>
<path
   d="M 226.61663,49.6706 L 226.61663,47.8181 L 251.07913,61.9256 L 250.27162,63.3506 L 226.61663,49.6706 z "
   id="polygon13" />
<g
   id="g15"
   transform="matrix(0.95,0,0,0.95,7.249275,3.4208)">
	<path
   d="M 222.668,9.119 C 222.668,6.267 223.434,4.034 224.967,2.42 C 226.498,0.807 228.477,0 230.899,0 C 232.487,0 233.917,0.379 235.19,1.137 C 236.464,1.895 237.436,2.952 238.104,4.308 C 238.772,5.664 239.106,7.202 239.106,8.92 C 239.106,10.662 238.754,12.222 238.051,13.597 C 237.348,14.973 236.351,16.014 235.061,16.721 C 233.772,17.428 232.38,17.782 230.887,17.782 C 229.27,17.782 227.823,17.391 226.549,16.61 C 225.275,15.829 224.311,14.762 223.653,13.41 C 222.997,12.058 222.668,10.627 222.668,9.119 z M 225.012,9.148 C 225.012,11.218 225.569,12.849 226.684,14.041 C 227.797,15.232 229.196,15.828 230.875,15.828 C 232.588,15.828 233.996,15.226 235.104,14.023 C 236.209,12.82 236.762,11.113 236.762,8.902 C 236.762,7.504 236.526,6.283 236.053,5.24 C 235.58,4.197 234.888,3.388 233.977,2.814 C 233.067,2.24 232.045,1.953 230.911,1.953 C 229.302,1.953 227.915,2.506 226.755,3.611 C 225.592,4.717 225.012,6.563 225.012,9.148 z "
   id="path17" />
</g>
<path
   d="M 222.95912,22.4531 L 224.57317,22.4531 L 224.57317,50.382151 L 222.95912,50.382151 L 222.95912,22.4531 z "
   id="rect19" />
<path
   d="M 228.65912,22.4531 L 230.27317,22.4531 L 230.27317,50.382151 L 228.65912,50.382151 L 228.65912,22.4531 z "
   id="rect21" />
<g
   id="g23"
   transform="matrix(0.95,0,0,0.95,7.249275,3.4208)">
	<path
   d="M 189.741,116.684 L 189.741,99.496 L 192.081,99.496 L 201.085,112.984 L 201.085,99.496 L 203.273,99.496 L 203.273,116.684 L 200.933,116.684 L 191.929,103.195 L 191.929,116.684 L 189.741,116.684 z "
   id="path25" />
	<path
   d="M 207.182,116.684 L 207.182,99.496 L 209.463,99.496 L 209.463,106.559 L 218.354,106.559 L 218.354,99.496 L 220.635,99.496 L 220.635,116.684 L 218.354,116.684 L 218.354,108.59 L 209.463,108.59 L 209.463,116.684 L 207.182,116.684 z "
   id="path27" />
</g>
<g
   id="g29"
   transform="matrix(0.95,0,0,0.95,7.249275,3.4208)">
	<path
   d="M 230.417,119.668 L 230.417,121.184 L 221.886,121.184 C 221.874,120.803 221.937,120.437 222.072,120.084 C 222.291,119.504 222.64,118.934 223.121,118.372 C 223.602,117.81 224.291,117.161 225.191,116.424 C 226.586,115.272 227.533,114.361 228.031,113.691 C 228.529,113.021 228.777,112.387 228.777,111.788 C 228.777,111.162 228.552,110.634 228.102,110.204 C 227.652,109.774 227.066,109.559 226.341,109.559 C 225.575,109.559 224.964,109.788 224.505,110.247 C 224.046,110.705 223.814,111.341 223.808,112.152 L 222.183,111.98 C 222.294,110.765 222.714,109.838 223.443,109.201 C 224.172,108.564 225.15,108.246 226.377,108.246 C 227.616,108.246 228.598,108.589 229.319,109.275 C 230.041,109.961 230.402,110.81 230.402,111.825 C 230.402,112.342 230.297,112.848 230.086,113.346 C 229.874,113.844 229.523,114.368 229.033,114.92 C 228.541,115.471 227.728,116.228 226.592,117.189 C 225.642,117.986 225.031,118.527 224.76,118.81 C 224.489,119.095 224.264,119.38 224.086,119.667 L 230.417,119.667 L 230.417,119.668 z "
   id="path31" />
</g>
<path
   d="M 194.79163,95.7456 L 193.17567,95.7456 L 193.17567,68.0531 L 193.98412,67.5781 L 194.79163,68.0531 L 194.79163,95.7456 z "
   id="polygon33" />
<path
   d="M 129.47913,68.0531 L 128.67163,67.5781 L 128.67163,66.6281 L 161.30413,47.8181 L 161.30413,49.6706 L 129.47913,68.0531 z "
   id="polygon35" />
<path
   d="M 96.038175,49.6706 L 96.038175,47.8181 L 128.67163,66.6281 L 128.67163,67.5781 L 127.86318,68.0531 L 96.038175,49.6706 z "
   id="polygon37" />
<path
   d="M 95.610675,55.9406 L 96.419125,54.5631 L 123.39817,70.1431 L 122.59162,71.5681 L 95.610675,55.9406 z "
   id="polygon39" />
<path
   d="M 64.166625,68.0531 L 62.550675,67.1031 L 96.038175,47.8181 L 96.038175,49.6706 L 64.166625,68.0531 z "
   id="polygon41" />
<path
   d="M 64.166625,104.8181 L 63.359125,105.2931 L 62.550675,104.8181 L 62.550675,67.1031 L 64.166625,68.0531 L 64.166625,104.8181 z "
   id="polygon43" />
<path
   d="M 68.204127,70.855601 L 69.819127,70.855601 L 69.819127,102.0156 L 68.204127,102.0156 L 68.204127,70.855601 z "
   id="rect45" />
<path
   d="M 96.038175,123.2006 L 96.038175,125.0531 L 63.359125,106.1956 L 63.359125,105.2931 L 64.166625,104.8181 L 96.038175,123.2006 z "
   id="polygon47" />
<path
   d="M 127.86318,104.8181 L 129.47913,105.7681 L 96.038175,125.0531 L 96.038175,123.2006 L 127.86318,104.8181 z "
   id="polygon49" />
<path
   d="M 122.59162,101.3031 L 123.39817,102.7281 L 96.419125,118.3081 L 95.610675,116.8831 L 122.59162,101.3031 z "
   id="polygon51" />
<path
   d="M 127.86318,68.0531 L 128.67163,67.5781 L 129.47913,68.0531 L 129.47913,105.7681 L 127.86318,104.8181 L 127.86318,68.0531 z "
   id="polygon53" />
<g
   id="g55"
   transform="matrix(0.95,0,0,0.95,7.249275,3.4208)">
	<path
   d="M 0,136.534 L 0,119.346 L 2.281,119.346 L 2.281,126.409 L 11.172,126.409 L 11.172,119.346 L 13.453,119.346 L 13.453,136.534 L 11.172,136.534 L 11.172,128.44 L 2.281,128.44 L 2.281,136.534 L 0,136.534 z "
   id="path57" />
	<path
   d="M 16.551,128.169 C 16.551,125.317 17.317,123.084 18.849,121.47 C 20.381,119.857 22.359,119.05 24.782,119.05 C 26.369,119.05 27.799,119.429 29.073,120.187 C 30.347,120.945 31.318,122.002 31.987,123.358 C 32.655,124.714 32.989,126.252 32.989,127.97 C 32.989,129.712 32.637,131.272 31.934,132.647 C 31.23,134.023 30.234,135.064 28.944,135.771 C 27.654,136.478 26.263,136.832 24.77,136.832 C 23.152,136.832 21.706,136.441 20.432,135.66 C 19.158,134.879 18.193,133.812 17.536,132.46 C 16.879,131.107 16.551,129.677 16.551,128.169 z M 18.895,128.198 C 18.895,130.268 19.452,131.899 20.566,133.091 C 21.68,134.283 23.078,134.878 24.758,134.878 C 26.47,134.878 27.879,134.276 28.986,133.073 C 30.092,131.87 30.645,130.163 30.645,127.952 C 30.645,126.554 30.409,125.333 29.936,124.29 C 29.463,123.247 28.771,122.438 27.86,121.864 C 26.949,121.29 25.927,121.003 24.794,121.003 C 23.184,121.003 21.798,121.556 20.637,122.661 C 19.476,123.766 18.895,125.612 18.895,128.198 z "
   id="path59" />
</g>
<path
   d="M 39.750675,119.8756 L 38.944125,118.4506 L 62.550675,104.8181 L 63.359125,105.2931 L 63.359125,106.1956 L 39.750675,119.8756 z "
   id="polygon61" />
</svg>