<?xml version="1.0" encoding="utf-8" standalone="no"?>
<!DOCTYPE svg PUBLIC "-//W3C//DTD SVG 1.1//EN"
  "http://www.w3.org/Graphics/SVG/1.1/DTD/svg11.dtd">
<!-- Created with matplotlib (https://matplotlib.org/) -->
<svg height="360pt" version="1.1" viewBox="0 0 360 360" width="360pt" xmlns="http://www.w3.org/2000/svg" xmlns:xlink="http://www.w3.org/1999/xlink">
 <defs>
  <style type="text/css">
*{stroke-linecap:butt;stroke-linejoin:round;}
  </style>
 </defs>
 <g id="figure_1">
  <g id="patch_1">
   <path d="M 0 360 
L 360 360 
L 360 0 
L 0 0 
z
" style="fill:#ffffff;"/>
  </g>
  <g id="axes_1">
   <g id="PathCollection_1">
    <defs>
     <path d="M 0 3 
C 0.795609 3 1.55874 2.683901 2.12132 2.12132 
C 2.683901 1.55874 3 0.795609 3 0 
C 3 -0.795609 2.683901 -1.55874 2.12132 -2.12132 
C 1.55874 -2.683901 0.795609 -3 0 -3 
C -0.795609 -3 -1.55874 -2.683901 -2.12132 -2.12132 
C -2.683901 -1.55874 -3 -0.795609 -3 0 
C -3 0.795609 -2.683901 1.55874 -2.12132 2.12132 
C -1.55874 2.683901 -0.795609 3 0 3 
z
" id="m7969b5a9e7" style="stroke:#0000ff;"/>
    </defs>
    <g clip-path="url(#pae990f7a37)">
     <use style="fill:#ffffff;stroke:#0000ff;" x="174.281259" xlink:href="#m7969b5a9e7" y="183.620235"/>
     <use style="fill:#ffffff;stroke:#0000ff;" x="174.281259" xlink:href="#m7969b5a9e7" y="183.620235"/>
    </g>
   </g>
   <g id="line2d_1">
    <path clip-path="url(#pae990f7a37)" d="M 184.5 66.510744 
L 190.533773 66.668744 
L 196.551009 67.14231 
L 202.535213 67.930146 
L 208.469984 69.030091 
L 214.339055 70.43913 
L 220.126339 72.153402 
L 225.815974 74.168207 
L 231.392365 76.478024 
L 236.840227 79.076521 
L 242.144628 81.956575 
L 247.291029 85.110294 
L 252.265325 88.529032 
L 257.05388 92.20342 
L 261.64357 96.123386 
L 266.021815 100.278185 
L 270.176614 104.65643 
L 274.09658 109.24612 
L 277.770968 114.034675 
L 281.189706 119.008971 
L 284.343425 124.155372 
L 287.223479 129.459773 
L 289.821976 134.907635 
L 292.131793 140.484026 
L 294.146598 146.173661 
L 295.86087 151.960945 
L 297.269909 157.830016 
L 298.369854 163.764787 
L 299.15769 169.748991 
L 299.631256 175.766227 
L 299.789256 181.8 
L 299.631256 187.833773 
L 299.15769 193.851009 
L 298.369854 199.835213 
L 297.269909 205.769984 
L 295.86087 211.639055 
L 294.146598 217.426339 
L 292.131793 223.115974 
L 289.821976 228.692365 
L 287.223479 234.140227 
L 284.343425 239.444628 
L 281.189706 244.591029 
L 277.770968 249.565325 
L 274.09658 254.35388 
L 270.176614 258.94357 
L 266.021815 263.321815 
L 261.64357 267.476614 
L 257.05388 271.39658 
L 252.265325 275.070968 
L 247.291029 278.489706 
L 242.144628 281.643425 
L 236.840227 284.523479 
L 231.392365 287.121976 
L 225.815974 289.431793 
L 220.126339 291.446598 
L 214.339055 293.16087 
L 208.469984 294.569909 
L 202.535213 295.669854 
L 196.551009 296.45769 
L 190.533773 296.931256 
L 184.5 297.089256 
L 178.466227 296.931256 
L 172.448991 296.45769 
L 166.464787 295.669854 
L 160.530016 294.569909 
L 154.660945 293.16087 
L 148.873661 291.446598 
L 143.184026 289.431793 
L 137.607635 287.121976 
L 132.159773 284.523479 
L 126.855372 281.643425 
L 121.708971 278.489706 
L 116.734675 275.070968 
L 111.94612 271.39658 
L 107.35643 267.476614 
L 102.978185 263.321815 
L 98.823386 258.94357 
L 94.90342 254.35388 
L 91.229032 249.565325 
L 87.810294 244.591029 
L 84.656575 239.444628 
L 81.776521 234.140227 
L 79.178024 228.692365 
L 76.868207 223.115974 
L 74.853402 217.426339 
L 73.13913 211.639055 
L 71.730091 205.769984 
L 70.630146 199.835213 
L 69.84231 193.851009 
L 69.368744 187.833773 
L 69.210744 181.8 
L 69.368744 175.766227 
L 69.84231 169.748991 
L 70.630146 163.764787 
L 71.730091 157.830016 
L 73.13913 151.960945 
L 74.853402 146.173661 
L 76.868207 140.484026 
L 79.178024 134.907635 
L 81.776521 129.459773 
L 84.656575 124.155372 
L 87.810294 119.008971 
L 91.229032 114.034675 
L 94.90342 109.24612 
L 98.823386 104.65643 
L 102.978185 100.278185 
L 107.35643 96.123386 
L 111.94612 92.20342 
L 116.734675 88.529032 
L 121.708971 85.110294 
L 126.855372 81.956575 
L 132.159773 79.076521 
L 137.607635 76.478024 
L 143.184026 74.168207 
L 148.873661 72.153402 
L 154.660945 70.43913 
L 160.530016 69.030091 
L 166.464787 67.930146 
L 172.448991 67.14231 
L 178.466227 66.668744 
L 184.5 66.510744 
L 184.5 66.510744 
" style="fill:none;stroke:#000000;stroke-linecap:square;stroke-width:1.5;"/>
   </g>
   <g id="line2d_2">
    <defs>
     <path d="M -3 0 
L 3 0 
M 0 3 
L 0 -3 
" id="mabd9196c6b" style="stroke:#000000;"/>
    </defs>
    <g clip-path="url(#pae990f7a37)">
     <use style="stroke:#000000;" x="184.5" xlink:href="#mabd9196c6b" y="76.997575"/>
     <use style="stroke:#000000;" x="184.5" xlink:href="#mabd9196c6b" y="88.282016"/>
     <use style="stroke:#000000;" x="184.5" xlink:href="#mabd9196c6b" y="100.278185"/>
     <use style="stroke:#000000;" x="184.5" xlink:href="#mabd9196c6b" y="112.894785"/>
     <use style="stroke:#000000;" x="184.5" xlink:href="#mabd9196c6b" y="126.035794"/>
     <use style="stroke:#000000;" x="184.5" xlink:href="#mabd9196c6b" y="139.601203"/>
     <use style="stroke:#000000;" x="184.5" xlink:href="#mabd9196c6b" y="153.487771"/>
     <use style="stroke:#000000;" x="184.5" xlink:href="#mabd9196c6b" y="167.589811"/>
     <use style="stroke:#000000;" x="184.5" xlink:href="#mabd9196c6b" y="181.8"/>
    </g>
   </g>
   <g id="line2d_3">
    <g clip-path="url(#pae990f7a37)">
     <use style="stroke:#000000;" x="289.302425" xlink:href="#mabd9196c6b" y="181.8"/>
     <use style="stroke:#000000;" x="278.017984" xlink:href="#mabd9196c6b" y="181.8"/>
     <use style="stroke:#000000;" x="266.021815" xlink:href="#mabd9196c6b" y="181.8"/>
     <use style="stroke:#000000;" x="253.405215" xlink:href="#mabd9196c6b" y="181.8"/>
     <use style="stroke:#000000;" x="240.264206" xlink:href="#mabd9196c6b" y="181.8"/>
     <use style="stroke:#000000;" x="226.698797" xlink:href="#mabd9196c6b" y="181.8"/>
     <use style="stroke:#000000;" x="212.812229" xlink:href="#mabd9196c6b" y="181.8"/>
     <use style="stroke:#000000;" x="198.710189" xlink:href="#mabd9196c6b" y="181.8"/>
    </g>
   </g>
   <g id="line2d_4">
    <g clip-path="url(#pae990f7a37)">
     <use style="stroke:#000000;" x="184.5" xlink:href="#mabd9196c6b" y="286.602425"/>
     <use style="stroke:#000000;" x="184.5" xlink:href="#mabd9196c6b" y="275.317984"/>
     <use style="stroke:#000000;" x="184.5" xlink:href="#mabd9196c6b" y="263.321815"/>
     <use style="stroke:#000000;" x="184.5" xlink:href="#mabd9196c6b" y="250.705215"/>
     <use style="stroke:#000000;" x="184.5" xlink:href="#mabd9196c6b" y="237.564206"/>
     <use style="stroke:#000000;" x="184.5" xlink:href="#mabd9196c6b" y="223.998797"/>
     <use style="stroke:#000000;" x="184.5" xlink:href="#mabd9196c6b" y="210.112229"/>
     <use style="stroke:#000000;" x="184.5" xlink:href="#mabd9196c6b" y="196.010189"/>
    </g>
   </g>
   <g id="line2d_5">
    <g clip-path="url(#pae990f7a37)">
     <use style="stroke:#000000;" x="79.697575" xlink:href="#mabd9196c6b" y="181.8"/>
     <use style="stroke:#000000;" x="90.982016" xlink:href="#mabd9196c6b" y="181.8"/>
     <use style="stroke:#000000;" x="102.978185" xlink:href="#mabd9196c6b" y="181.8"/>
     <use style="stroke:#000000;" x="115.594785" xlink:href="#mabd9196c6b" y="181.8"/>
     <use style="stroke:#000000;" x="128.735794" xlink:href="#mabd9196c6b" y="181.8"/>
     <use style="stroke:#000000;" x="142.301203" xlink:href="#mabd9196c6b" y="181.8"/>
     <use style="stroke:#000000;" x="156.187771" xlink:href="#mabd9196c6b" y="181.8"/>
     <use style="stroke:#000000;" x="170.289811" xlink:href="#mabd9196c6b" y="181.8"/>
    </g>
   </g>
   <g id="line2d_6">
    <path clip-path="url(#pae990f7a37)" d="M 184.5 66.510744 
L 184.5 67.521209 
L 184.5 68.540378 
L 184.5 69.568171 
" style="fill:none;stroke:#000000;stroke-linecap:square;stroke-width:1.5;"/>
   </g>
   <g id="line2d_7">
    <path clip-path="url(#pae990f7a37)" d="M 204.519769 68.262247 
L 204.344304 69.257361 
L 204.167327 70.261046 
L 203.988853 71.273225 
" style="fill:none;stroke:#000000;stroke-linecap:square;stroke-width:1.5;"/>
   </g>
   <g id="line2d_8">
    <path clip-path="url(#pae990f7a37)" d="M 223.931248 73.463537 
L 223.585648 74.413064 
L 223.237072 75.370769 
L 222.885546 76.336579 
" style="fill:none;stroke:#000000;stroke-linecap:square;stroke-width:1.5;"/>
   </g>
   <g id="line2d_9">
    <path clip-path="url(#pae990f7a37)" d="M 242.144628 81.956575 
L 241.639395 82.831664 
L 241.129811 83.71429 
L 240.615914 84.604385 
" style="fill:none;stroke:#000000;stroke-linecap:square;stroke-width:1.5;"/>
   </g>
   <g id="line2d_10">
    <path clip-path="url(#pae990f7a37)" d="M 258.606505 93.483306 
L 257.956991 94.257368 
L 257.301882 95.038096 
L 256.641229 95.825431 
" style="fill:none;stroke:#000000;stroke-linecap:square;stroke-width:1.5;"/>
   </g>
   <g id="line2d_11">
    <path clip-path="url(#pae990f7a37)" d="M 272.816694 107.693495 
L 272.042632 108.343009 
L 271.261904 108.998118 
L 270.474569 109.658771 
" style="fill:none;stroke:#000000;stroke-linecap:square;stroke-width:1.5;"/>
   </g>
   <g id="line2d_12">
    <path clip-path="url(#pae990f7a37)" d="M 284.343425 124.155372 
L 283.468336 124.660605 
L 282.58571 125.170189 
L 281.695615 125.684086 
" style="fill:none;stroke:#000000;stroke-linecap:square;stroke-width:1.5;"/>
   </g>
   <g id="line2d_13">
    <path clip-path="url(#pae990f7a37)" d="M 292.836463 142.368752 
L 291.886936 142.714352 
L 290.929231 143.062928 
L 289.963421 143.414454 
" style="fill:none;stroke:#000000;stroke-linecap:square;stroke-width:1.5;"/>
   </g>
   <g id="line2d_14">
    <path clip-path="url(#pae990f7a37)" d="M 298.037753 161.780231 
L 297.042639 161.955696 
L 296.038954 162.132673 
L 295.026775 162.311147 
" style="fill:none;stroke:#000000;stroke-linecap:square;stroke-width:1.5;"/>
   </g>
   <g id="line2d_15">
    <path clip-path="url(#pae990f7a37)" d="M 299.789256 181.8 
L 298.778791 181.8 
L 297.759622 181.8 
L 296.731829 181.8 
" style="fill:none;stroke:#000000;stroke-linecap:square;stroke-width:1.5;"/>
   </g>
   <g id="line2d_16">
    <path clip-path="url(#pae990f7a37)" d="M 298.037753 201.819769 
L 297.042639 201.644304 
L 296.038954 201.467327 
L 295.026775 201.288853 
" style="fill:none;stroke:#000000;stroke-linecap:square;stroke-width:1.5;"/>
   </g>
   <g id="line2d_17">
    <path clip-path="url(#pae990f7a37)" d="M 292.836463 221.231248 
L 291.886936 220.885648 
L 290.929231 220.537072 
L 289.963421 220.185546 
" style="fill:none;stroke:#000000;stroke-linecap:square;stroke-width:1.5;"/>
   </g>
   <g id="line2d_18">
    <path clip-path="url(#pae990f7a37)" d="M 284.343425 239.444628 
L 283.468336 238.939395 
L 282.58571 238.429811 
L 281.695615 237.915914 
" style="fill:none;stroke:#000000;stroke-linecap:square;stroke-width:1.5;"/>
   </g>
   <g id="line2d_19">
    <path clip-path="url(#pae990f7a37)" d="M 272.816694 255.906505 
L 272.042632 255.256991 
L 271.261904 254.601882 
L 270.474569 253.941229 
" style="fill:none;stroke:#000000;stroke-linecap:square;stroke-width:1.5;"/>
   </g>
   <g id="line2d_20">
    <path clip-path="url(#pae990f7a37)" d="M 258.606505 270.116694 
L 257.956991 269.342632 
L 257.301882 268.561904 
L 256.641229 267.774569 
" style="fill:none;stroke:#000000;stroke-linecap:square;stroke-width:1.5;"/>
   </g>
   <g id="line2d_21">
    <path clip-path="url(#pae990f7a37)" d="M 242.144628 281.643425 
L 241.639395 280.768336 
L 241.129811 279.88571 
L 240.615914 278.995615 
" style="fill:none;stroke:#000000;stroke-linecap:square;stroke-width:1.5;"/>
   </g>
   <g id="line2d_22">
    <path clip-path="url(#pae990f7a37)" d="M 223.931248 290.136463 
L 223.585648 289.186936 
L 223.237072 288.229231 
L 222.885546 287.263421 
" style="fill:none;stroke:#000000;stroke-linecap:square;stroke-width:1.5;"/>
   </g>
   <g id="line2d_23">
    <path clip-path="url(#pae990f7a37)" d="M 204.519769 295.337753 
L 204.344304 294.342639 
L 204.167327 293.338954 
L 203.988853 292.326775 
" style="fill:none;stroke:#000000;stroke-linecap:square;stroke-width:1.5;"/>
   </g>
   <g id="line2d_24">
    <path clip-path="url(#pae990f7a37)" d="M 184.5 297.089256 
L 184.5 296.078791 
L 184.5 295.059622 
L 184.5 294.031829 
" style="fill:none;stroke:#000000;stroke-linecap:square;stroke-width:1.5;"/>
   </g>
   <g id="line2d_25">
    <path clip-path="url(#pae990f7a37)" d="M 164.480231 295.337753 
L 164.655696 294.342639 
L 164.832673 293.338954 
L 165.011147 292.326775 
" style="fill:none;stroke:#000000;stroke-linecap:square;stroke-width:1.5;"/>
   </g>
   <g id="line2d_26">
    <path clip-path="url(#pae990f7a37)" d="M 145.068752 290.136463 
L 145.414352 289.186936 
L 145.762928 288.229231 
L 146.114454 287.263421 
" style="fill:none;stroke:#000000;stroke-linecap:square;stroke-width:1.5;"/>
   </g>
   <g id="line2d_27">
    <path clip-path="url(#pae990f7a37)" d="M 126.855372 281.643425 
L 127.360605 280.768336 
L 127.870189 279.88571 
L 128.384086 278.995615 
" style="fill:none;stroke:#000000;stroke-linecap:square;stroke-width:1.5;"/>
   </g>
   <g id="line2d_28">
    <path clip-path="url(#pae990f7a37)" d="M 110.393495 270.116694 
L 111.043009 269.342632 
L 111.698118 268.561904 
L 112.358771 267.774569 
" style="fill:none;stroke:#000000;stroke-linecap:square;stroke-width:1.5;"/>
   </g>
   <g id="line2d_29">
    <path clip-path="url(#pae990f7a37)" d="M 96.183306 255.906505 
L 96.957368 255.256991 
L 97.738096 254.601882 
L 98.525431 253.941229 
" style="fill:none;stroke:#000000;stroke-linecap:square;stroke-width:1.5;"/>
   </g>
   <g id="line2d_30">
    <path clip-path="url(#pae990f7a37)" d="M 84.656575 239.444628 
L 85.531664 238.939395 
L 86.41429 238.429811 
L 87.304385 237.915914 
" style="fill:none;stroke:#000000;stroke-linecap:square;stroke-width:1.5;"/>
   </g>
   <g id="line2d_31">
    <path clip-path="url(#pae990f7a37)" d="M 76.163537 221.231248 
L 77.113064 220.885648 
L 78.070769 220.537072 
L 79.036579 220.185546 
" style="fill:none;stroke:#000000;stroke-linecap:square;stroke-width:1.5;"/>
   </g>
   <g id="line2d_32">
    <path clip-path="url(#pae990f7a37)" d="M 70.962247 201.819769 
L 71.957361 201.644304 
L 72.961046 201.467327 
L 73.973225 201.288853 
" style="fill:none;stroke:#000000;stroke-linecap:square;stroke-width:1.5;"/>
   </g>
   <g id="line2d_33">
    <path clip-path="url(#pae990f7a37)" d="M 69.210744 181.8 
L 70.221209 181.8 
L 71.240378 181.8 
L 72.268171 181.8 
" style="fill:none;stroke:#000000;stroke-linecap:square;stroke-width:1.5;"/>
   </g>
   <g id="line2d_34">
    <path clip-path="url(#pae990f7a37)" d="M 70.962247 161.780231 
L 71.957361 161.955696 
L 72.961046 162.132673 
L 73.973225 162.311147 
" style="fill:none;stroke:#000000;stroke-linecap:square;stroke-width:1.5;"/>
   </g>
   <g id="line2d_35">
    <path clip-path="url(#pae990f7a37)" d="M 76.163537 142.368752 
L 77.113064 142.714352 
L 78.070769 143.062928 
L 79.036579 143.414454 
" style="fill:none;stroke:#000000;stroke-linecap:square;stroke-width:1.5;"/>
   </g>
   <g id="line2d_36">
    <path clip-path="url(#pae990f7a37)" d="M 84.656575 124.155372 
L 85.531664 124.660605 
L 86.41429 125.170189 
L 87.304385 125.684086 
" style="fill:none;stroke:#000000;stroke-linecap:square;stroke-width:1.5;"/>
   </g>
   <g id="line2d_37">
    <path clip-path="url(#pae990f7a37)" d="M 96.183306 107.693495 
L 96.957368 108.343009 
L 97.738096 108.998118 
L 98.525431 109.658771 
" style="fill:none;stroke:#000000;stroke-linecap:square;stroke-width:1.5;"/>
   </g>
   <g id="line2d_38">
    <path clip-path="url(#pae990f7a37)" d="M 110.393495 93.483306 
L 111.043009 94.257368 
L 111.698118 95.038096 
L 112.358771 95.825431 
" style="fill:none;stroke:#000000;stroke-linecap:square;stroke-width:1.5;"/>
   </g>
   <g id="line2d_39">
    <path clip-path="url(#pae990f7a37)" d="M 126.855372 81.956575 
L 127.360605 82.831664 
L 127.870189 83.71429 
L 128.384086 84.604385 
" style="fill:none;stroke:#000000;stroke-linecap:square;stroke-width:1.5;"/>
   </g>
   <g id="line2d_40">
    <path clip-path="url(#pae990f7a37)" d="M 145.068752 73.463537 
L 145.414352 74.413064 
L 145.762928 75.370769 
L 146.114454 76.336579 
" style="fill:none;stroke:#000000;stroke-linecap:square;stroke-width:1.5;"/>
   </g>
   <g id="line2d_41">
    <path clip-path="url(#pae990f7a37)" d="M 164.480231 68.262247 
L 164.655696 69.257361 
L 164.832673 70.261046 
L 165.011147 71.273225 
" style="fill:none;stroke:#000000;stroke-linecap:square;stroke-width:1.5;"/>
   </g>
   <g id="line2d_42">
    <path clip-path="url(#pae990f7a37)" d="M 57.681818 308.618182 
L 311.318182 308.618182 
L 311.318182 54.981818 
L 57.681818 54.981818 
L 57.681818 308.618182 
" style="fill:none;stroke:#000000;stroke-linecap:square;stroke-width:0.5;"/>
   </g>
   <g id="text_1">
    <!-- mc09 -->
    <defs>
     <path d="M 52 44.1875 
Q 55.375 50.25 60.0625 53.125 
Q 64.75 56 71.09375 56 
Q 79.640625 56 84.28125 50.015625 
Q 88.921875 44.046875 88.921875 33.015625 
L 88.921875 0 
L 79.890625 0 
L 79.890625 32.71875 
Q 79.890625 40.578125 77.09375 44.375 
Q 74.3125 48.1875 68.609375 48.1875 
Q 61.625 48.1875 57.5625 43.546875 
Q 53.515625 38.921875 53.515625 30.90625 
L 53.515625 0 
L 44.484375 0 
L 44.484375 32.71875 
Q 44.484375 40.625 41.703125 44.40625 
Q 38.921875 48.1875 33.109375 48.1875 
Q 26.21875 48.1875 22.15625 43.53125 
Q 18.109375 38.875 18.109375 30.90625 
L 18.109375 0 
L 9.078125 0 
L 9.078125 54.6875 
L 18.109375 54.6875 
L 18.109375 46.1875 
Q 21.1875 51.21875 25.484375 53.609375 
Q 29.78125 56 35.6875 56 
Q 41.65625 56 45.828125 52.96875 
Q 50 49.953125 52 44.1875 
z
" id="DejaVuSans-109"/>
     <path d="M 48.78125 52.59375 
L 48.78125 44.1875 
Q 44.96875 46.296875 41.140625 47.34375 
Q 37.3125 48.390625 33.40625 48.390625 
Q 24.65625 48.390625 19.8125 42.84375 
Q 14.984375 37.3125 14.984375 27.296875 
Q 14.984375 17.28125 19.8125 11.734375 
Q 24.65625 6.203125 33.40625 6.203125 
Q 37.3125 6.203125 41.140625 7.25 
Q 44.96875 8.296875 48.78125 10.40625 
L 48.78125 2.09375 
Q 45.015625 0.34375 40.984375 -0.53125 
Q 36.96875 -1.421875 32.421875 -1.421875 
Q 20.0625 -1.421875 12.78125 6.34375 
Q 5.515625 14.109375 5.515625 27.296875 
Q 5.515625 40.671875 12.859375 48.328125 
Q 20.21875 56 33.015625 56 
Q 37.15625 56 41.109375 55.140625 
Q 45.0625 54.296875 48.78125 52.59375 
z
" id="DejaVuSans-99"/>
     <path d="M 31.78125 66.40625 
Q 24.171875 66.40625 20.328125 58.90625 
Q 16.5 51.421875 16.5 36.375 
Q 16.5 21.390625 20.328125 13.890625 
Q 24.171875 6.390625 31.78125 6.390625 
Q 39.453125 6.390625 43.28125 13.890625 
Q 47.125 21.390625 47.125 36.375 
Q 47.125 51.421875 43.28125 58.90625 
Q 39.453125 66.40625 31.78125 66.40625 
z
M 31.78125 74.21875 
Q 44.046875 74.21875 50.515625 64.515625 
Q 56.984375 54.828125 56.984375 36.375 
Q 56.984375 17.96875 50.515625 8.265625 
Q 44.046875 -1.421875 31.78125 -1.421875 
Q 19.53125 -1.421875 13.0625 8.265625 
Q 6.59375 17.96875 6.59375 36.375 
Q 6.59375 54.828125 13.0625 64.515625 
Q 19.53125 74.21875 31.78125 74.21875 
z
" id="DejaVuSans-48"/>
     <path d="M 10.984375 1.515625 
L 10.984375 10.5 
Q 14.703125 8.734375 18.5 7.8125 
Q 22.3125 6.890625 25.984375 6.890625 
Q 35.75 6.890625 40.890625 13.453125 
Q 46.046875 20.015625 46.78125 33.40625 
Q 43.953125 29.203125 39.59375 26.953125 
Q 35.25 24.703125 29.984375 24.703125 
Q 19.046875 24.703125 12.671875 31.3125 
Q 6.296875 37.9375 6.296875 49.421875 
Q 6.296875 60.640625 12.9375 67.421875 
Q 19.578125 74.21875 30.609375 74.21875 
Q 43.265625 74.21875 49.921875 64.515625 
Q 56.59375 54.828125 56.59375 36.375 
Q 56.59375 19.140625 48.40625 8.859375 
Q 40.234375 -1.421875 26.421875 -1.421875 
Q 22.703125 -1.421875 18.890625 -0.6875 
Q 15.09375 0.046875 10.984375 1.515625 
z
M 30.609375 32.421875 
Q 37.25 32.421875 41.125 36.953125 
Q 45.015625 41.5 45.015625 49.421875 
Q 45.015625 57.28125 41.125 61.84375 
Q 37.25 66.40625 30.609375 66.40625 
Q 23.96875 66.40625 20.09375 61.84375 
Q 16.21875 57.28125 16.21875 49.421875 
Q 16.21875 41.5 20.09375 36.953125 
Q 23.96875 32.421875 30.609375 32.421875 
z
" id="DejaVuSans-57"/>
    </defs>
    <g transform="translate(57.681818 49.217355)scale(0.1 -0.1)">
     <use xlink:href="#DejaVuSans-109"/>
     <use x="97.412109" xlink:href="#DejaVuSans-99"/>
     <use x="152.392578" xlink:href="#DejaVuSans-48"/>
     <use x="216.015625" xlink:href="#DejaVuSans-57"/>
    </g>
   </g>
  </g>
  <g id="text_2">
   <!-- pmagpy-4.2.17 -->
   <defs>
    <path d="M 18.109375 8.203125 
L 18.109375 -20.796875 
L 9.078125 -20.796875 
L 9.078125 54.6875 
L 18.109375 54.6875 
L 18.109375 46.390625 
Q 20.953125 51.265625 25.265625 53.625 
Q 29.59375 56 35.59375 56 
Q 45.5625 56 51.78125 48.09375 
Q 58.015625 40.1875 58.015625 27.296875 
Q 58.015625 14.40625 51.78125 6.484375 
Q 45.5625 -1.421875 35.59375 -1.421875 
Q 29.59375 -1.421875 25.265625 0.953125 
Q 20.953125 3.328125 18.109375 8.203125 
z
M 48.6875 27.296875 
Q 48.6875 37.203125 44.609375 42.84375 
Q 40.53125 48.484375 33.40625 48.484375 
Q 26.265625 48.484375 22.1875 42.84375 
Q 18.109375 37.203125 18.109375 27.296875 
Q 18.109375 17.390625 22.1875 11.75 
Q 26.265625 6.109375 33.40625 6.109375 
Q 40.53125 6.109375 44.609375 11.75 
Q 48.6875 17.390625 48.6875 27.296875 
z
" id="DejaVuSans-112"/>
    <path d="M 34.28125 27.484375 
Q 23.390625 27.484375 19.1875 25 
Q 14.984375 22.515625 14.984375 16.5 
Q 14.984375 11.71875 18.140625 8.90625 
Q 21.296875 6.109375 26.703125 6.109375 
Q 34.1875 6.109375 38.703125 11.40625 
Q 43.21875 16.703125 43.21875 25.484375 
L 43.21875 27.484375 
z
M 52.203125 31.203125 
L 52.203125 0 
L 43.21875 0 
L 43.21875 8.296875 
Q 40.140625 3.328125 35.546875 0.953125 
Q 30.953125 -1.421875 24.3125 -1.421875 
Q 15.921875 -1.421875 10.953125 3.296875 
Q 6 8.015625 6 15.921875 
Q 6 25.140625 12.171875 29.828125 
Q 18.359375 34.515625 30.609375 34.515625 
L 43.21875 34.515625 
L 43.21875 35.40625 
Q 43.21875 41.609375 39.140625 45 
Q 35.0625 48.390625 27.6875 48.390625 
Q 23 48.390625 18.546875 47.265625 
Q 14.109375 46.140625 10.015625 43.890625 
L 10.015625 52.203125 
Q 14.9375 54.109375 19.578125 55.046875 
Q 24.21875 56 28.609375 56 
Q 40.484375 56 46.34375 49.84375 
Q 52.203125 43.703125 52.203125 31.203125 
z
" id="DejaVuSans-97"/>
    <path d="M 45.40625 27.984375 
Q 45.40625 37.75 41.375 43.109375 
Q 37.359375 48.484375 30.078125 48.484375 
Q 22.859375 48.484375 18.828125 43.109375 
Q 14.796875 37.75 14.796875 27.984375 
Q 14.796875 18.265625 18.828125 12.890625 
Q 22.859375 7.515625 30.078125 7.515625 
Q 37.359375 7.515625 41.375 12.890625 
Q 45.40625 18.265625 45.40625 27.984375 
z
M 54.390625 6.78125 
Q 54.390625 -7.171875 48.1875 -13.984375 
Q 42 -20.796875 29.203125 -20.796875 
Q 24.46875 -20.796875 20.265625 -20.09375 
Q 16.0625 -19.390625 12.109375 -17.921875 
L 12.109375 -9.1875 
Q 16.0625 -11.328125 19.921875 -12.34375 
Q 23.78125 -13.375 27.78125 -13.375 
Q 36.625 -13.375 41.015625 -8.765625 
Q 45.40625 -4.15625 45.40625 5.171875 
L 45.40625 9.625 
Q 42.625 4.78125 38.28125 2.390625 
Q 33.9375 0 27.875 0 
Q 17.828125 0 11.671875 7.65625 
Q 5.515625 15.328125 5.515625 27.984375 
Q 5.515625 40.671875 11.671875 48.328125 
Q 17.828125 56 27.875 56 
Q 33.9375 56 38.28125 53.609375 
Q 42.625 51.21875 45.40625 46.390625 
L 45.40625 54.6875 
L 54.390625 54.6875 
z
" id="DejaVuSans-103"/>
    <path d="M 32.171875 -5.078125 
Q 28.375 -14.84375 24.75 -17.8125 
Q 21.140625 -20.796875 15.09375 -20.796875 
L 7.90625 -20.796875 
L 7.90625 -13.28125 
L 13.1875 -13.28125 
Q 16.890625 -13.28125 18.9375 -11.515625 
Q 21 -9.765625 23.484375 -3.21875 
L 25.09375 0.875 
L 2.984375 54.6875 
L 12.5 54.6875 
L 29.59375 11.921875 
L 46.6875 54.6875 
L 56.203125 54.6875 
z
" id="DejaVuSans-121"/>
    <path d="M 4.890625 31.390625 
L 31.203125 31.390625 
L 31.203125 23.390625 
L 4.890625 23.390625 
z
" id="DejaVuSans-45"/>
    <path d="M 37.796875 64.3125 
L 12.890625 25.390625 
L 37.796875 25.390625 
z
M 35.203125 72.90625 
L 47.609375 72.90625 
L 47.609375 25.390625 
L 58.015625 25.390625 
L 58.015625 17.1875 
L 47.609375 17.1875 
L 47.609375 0 
L 37.796875 0 
L 37.796875 17.1875 
L 4.890625 17.1875 
L 4.890625 26.703125 
z
" id="DejaVuSans-52"/>
    <path d="M 10.6875 12.40625 
L 21 12.40625 
L 21 0 
L 10.6875 0 
z
" id="DejaVuSans-46"/>
    <path d="M 19.1875 8.296875 
L 53.609375 8.296875 
L 53.609375 0 
L 7.328125 0 
L 7.328125 8.296875 
Q 12.9375 14.109375 22.625 23.890625 
Q 32.328125 33.6875 34.8125 36.53125 
Q 39.546875 41.84375 41.421875 45.53125 
Q 43.3125 49.21875 43.3125 52.78125 
Q 43.3125 58.59375 39.234375 62.25 
Q 35.15625 65.921875 28.609375 65.921875 
Q 23.96875 65.921875 18.8125 64.3125 
Q 13.671875 62.703125 7.8125 59.421875 
L 7.8125 69.390625 
Q 13.765625 71.78125 18.9375 73 
Q 24.125 74.21875 28.421875 74.21875 
Q 39.75 74.21875 46.484375 68.546875 
Q 53.21875 62.890625 53.21875 53.421875 
Q 53.21875 48.921875 51.53125 44.890625 
Q 49.859375 40.875 45.40625 35.40625 
Q 44.1875 33.984375 37.640625 27.21875 
Q 31.109375 20.453125 19.1875 8.296875 
z
" id="DejaVuSans-50"/>
    <path d="M 12.40625 8.296875 
L 28.515625 8.296875 
L 28.515625 63.921875 
L 10.984375 60.40625 
L 10.984375 69.390625 
L 28.421875 72.90625 
L 38.28125 72.90625 
L 38.28125 8.296875 
L 54.390625 8.296875 
L 54.390625 0 
L 12.40625 0 
z
" id="DejaVuSans-49"/>
    <path d="M 8.203125 72.90625 
L 55.078125 72.90625 
L 55.078125 68.703125 
L 28.609375 0 
L 18.3125 0 
L 43.21875 64.59375 
L 8.203125 64.59375 
z
" id="DejaVuSans-55"/>
   </defs>
   <g transform="translate(7.2 356.4)scale(0.1 -0.1)">
    <use xlink:href="#DejaVuSans-112"/>
    <use x="63.476562" xlink:href="#DejaVuSans-109"/>
    <use x="160.888672" xlink:href="#DejaVuSans-97"/>
    <use x="222.167969" xlink:href="#DejaVuSans-103"/>
    <use x="285.644531" xlink:href="#DejaVuSans-112"/>
    <use x="349.121094" xlink:href="#DejaVuSans-121"/>
    <use x="408.285156" xlink:href="#DejaVuSans-45"/>
    <use x="444.369141" xlink:href="#DejaVuSans-52"/>
    <use x="507.992188" xlink:href="#DejaVuSans-46"/>
    <use x="539.779297" xlink:href="#DejaVuSans-50"/>
    <use x="603.402344" xlink:href="#DejaVuSans-46"/>
    <use x="635.189453" xlink:href="#DejaVuSans-49"/>
    <use x="698.8125" xlink:href="#DejaVuSans-55"/>
   </g>
  </g>
 </g>
 <defs>
  <clipPath id="pae990f7a37">
   <rect height="277.2" width="279" x="45" y="43.2"/>
  </clipPath>
 </defs>
</svg>
