<?xml version="1.0" encoding="UTF-8" standalone="no"?>
<!-- Generator: Adobe Illustrator 12.0.1, SVG Export Plug-In . SVG Version: 6.00 Build 51448)  -->
<svg
   xmlns:dc="http://purl.org/dc/elements/1.1/"
   xmlns:cc="http://web.resource.org/cc/"
   xmlns:rdf="http://www.w3.org/1999/02/22-rdf-syntax-ns#"
   xmlns:svg="http://www.w3.org/2000/svg"
   xmlns="http://www.w3.org/2000/svg"
   xmlns:sodipodi="http://sodipodi.sourceforge.net/DTD/sodipodi-0.dtd"
   xmlns:inkscape="http://www.inkscape.org/namespaces/inkscape"
   version="1.1"
   id="Layer_1"
   width="161.934"
   height="121.184"
   viewBox="0 0 161.934 121.184"
   style="overflow:visible;enable-background:new 0 0 161.934 121.184;"
   xml:space="preserve"
   sodipodi:version="0.32"
   inkscape:version="0.44.1"
   sodipodi:docname="Alanin.svg"
   sodipodi:docbase="E:\Eigene Dateien"><metadata
   id="metadata50"><rdf:RDF><cc:Work
       rdf:about=""><dc:format>image/svg+xml</dc:format><dc:type
         rdf:resource="http://purl.org/dc/dcmitype/StillImage" /></cc:Work></rdf:RDF></metadata><defs
   id="defs48" /><sodipodi:namedview
   inkscape:window-height="573"
   inkscape:window-width="925"
   inkscape:pageshadow="2"
   inkscape:pageopacity="0.0"
   guidetolerance="10.0"
   gridtolerance="10.0"
   objecttolerance="10.0"
   borderopacity="1.0"
   bordercolor="#666666"
   pagecolor="#ffffff"
   id="base"
   inkscape:zoom="3.1192237"
   inkscape:cx="80.967003"
   inkscape:cy="60.591999"
   inkscape:window-x="88"
   inkscape:window-y="88"
   inkscape:current-layer="Layer_1" />
<g
   id="g3"
   transform="matrix(0.95,0,0,0.95,4.048325,3.0296)">
	<path
   d="M 0,57.134 L 0,39.946 L 2.281,39.946 L 2.281,47.009 L 11.172,47.009 L 11.172,39.946 L 13.453,39.946 L 13.453,57.134 L 11.172,57.134 L 11.172,49.04 L 2.281,49.04 L 2.281,57.134 L 0,57.134 z "
   id="path5" />
</g>
<g
   id="g7"
   transform="matrix(0.95,0,0,0.95,4.048325,3.0296)">
	<path
   d="M 14.462,58.228 L 16.04,58.009 C 16.223,58.905 16.532,59.552 16.968,59.947 C 17.405,60.343 17.94,60.541 18.575,60.541 C 19.328,60.541 19.961,60.283 20.474,59.768 C 20.987,59.253 21.243,58.615 21.243,57.854 C 21.243,57.127 21.005,56.529 20.527,56.057 C 20.05,55.586 19.444,55.35 18.708,55.35 C 18.407,55.35 18.033,55.409 17.586,55.526 L 17.763,54.135 C 17.869,54.147 17.954,54.153 18.019,54.153 C 18.693,54.153 19.3,53.977 19.84,53.627 C 20.38,53.276 20.65,52.735 20.65,52.004 C 20.65,51.425 20.453,50.945 20.059,50.566 C 19.665,50.186 19.157,49.996 18.534,49.996 C 17.917,49.996 17.402,50.19 16.991,50.578 C 16.579,50.967 16.315,51.549 16.198,52.324 L 14.62,52.043 C 14.813,50.981 15.254,50.158 15.94,49.574 C 16.626,48.991 17.48,48.699 18.501,48.699 C 19.205,48.699 19.854,48.849 20.446,49.151 C 21.038,49.452 21.491,49.863 21.806,50.383 C 22.119,50.904 22.277,51.456 22.277,52.041 C 22.277,52.597 22.128,53.103 21.829,53.559 C 21.53,54.015 21.088,54.377 20.502,54.647 C 21.264,54.823 21.856,55.187 22.281,55.742 C 22.705,56.295 22.918,56.988 22.918,57.82 C 22.918,58.945 22.507,59.899 21.685,60.681 C 20.863,61.464 19.824,61.855 18.568,61.855 C 17.435,61.855 16.494,61.519 15.746,60.845 C 14.994,60.171 14.567,59.298 14.462,58.228 z "
   id="path9" />
</g>
<g
   id="g11"
   transform="matrix(0.95,0,0,0.95,4.048325,3.0296)">
	<path
   d="M 37.039,51.106 L 39.32,51.68 C 38.844,53.55 37.987,54.976 36.751,55.957 C 35.514,56.939 34.001,57.43 32.214,57.43 C 30.364,57.43 28.86,57.053 27.701,56.298 C 26.542,55.543 25.66,54.451 25.055,53.02 C 24.45,51.589 24.148,50.053 24.148,48.411 C 24.148,46.62 24.489,45.058 25.172,43.725 C 25.855,42.391 26.826,41.379 28.087,40.687 C 29.347,39.995 30.733,39.649 32.247,39.649 C 33.964,39.649 35.407,40.087 36.577,40.963 C 37.748,41.84 38.563,43.072 39.023,44.66 L 36.789,45.187 C 36.391,43.937 35.814,43.027 35.058,42.457 C 34.301,41.887 33.349,41.602 32.203,41.602 C 30.885,41.602 29.783,41.918 28.897,42.551 C 28.012,43.184 27.39,44.033 27.031,45.1 C 26.672,46.167 26.493,47.266 26.493,48.399 C 26.493,49.86 26.705,51.135 27.13,52.225 C 27.555,53.315 28.215,54.129 29.112,54.668 C 30.009,55.207 30.979,55.477 32.024,55.477 C 33.295,55.477 34.37,55.11 35.251,54.375 C 36.132,53.64 36.727,52.552 37.039,51.106 z "
   id="path13" />
</g>
<path
   d="M 45.349575,54.4094 L 46.157075,52.9844 L 69.147075,66.2369 L 69.147075,67.1869 L 68.339575,67.6619 L 45.349575,54.4094 z "
   id="polygon15" />
<path
   d="M 69.954575,67.6619 L 69.147075,67.1869 L 69.147075,66.2369 L 101.77958,47.4269 L 101.77958,49.2794 L 69.954575,67.6619 z "
   id="polygon17" />
<g
   id="g19"
   transform="matrix(0.95,0,0,0.95,4.048325,3.0296)">
	<path
   d="M 129.031,68.618 C 129.031,65.766 129.797,63.533 131.329,61.919 C 132.861,60.306 134.839,59.499 137.262,59.499 C 138.849,59.499 140.28,59.878 141.553,60.636 C 142.826,61.394 143.798,62.451 144.467,63.807 C 145.135,65.163 145.469,66.701 145.469,68.419 C 145.469,70.161 145.117,71.721 144.414,73.096 C 143.71,74.472 142.713,75.513 141.424,76.22 C 140.134,76.927 138.742,77.281 137.25,77.281 C 135.632,77.281 134.186,76.89 132.912,76.109 C 131.638,75.328 130.673,74.261 130.016,72.909 C 129.359,71.557 129.031,70.126 129.031,68.618 z M 131.375,68.647 C 131.375,70.717 131.932,72.348 133.046,73.54 C 134.16,74.732 135.558,75.327 137.238,75.327 C 138.95,75.327 140.359,74.725 141.466,73.522 C 142.573,72.319 143.125,70.612 143.125,68.401 C 143.125,67.003 142.889,65.782 142.416,64.739 C 141.942,63.696 141.25,62.887 140.34,62.313 C 139.43,61.739 138.407,61.452 137.274,61.452 C 135.664,61.452 134.278,62.005 133.117,63.11 C 131.956,64.215 131.375,66.062 131.375,68.647 z "
   id="path21" />
	<path
   d="M 148.48,76.983 L 148.48,59.796 L 150.761,59.796 L 150.761,66.859 L 159.652,66.859 L 159.652,59.796 L 161.933,59.796 L 161.933,76.984 L 159.652,76.984 L 159.652,68.89 L 150.761,68.89 L 150.761,76.984 L 148.48,76.984 L 148.48,76.983 z "
   id="path23" />
</g>
<path
   d="M 101.77958,49.2794 L 101.77958,47.4269 L 126.28958,61.5344 L 125.48208,62.9594 L 101.77958,49.2794 z "
   id="polygon25" />
<g
   id="g27"
   transform="matrix(0.95,0,0,0.95,4.048325,3.0296)">
	<path
   d="M 94.631,9.119 C 94.631,6.267 95.397,4.034 96.929,2.42 C 98.461,0.807 100.439,0 102.862,0 C 104.449,0 105.88,0.379 107.153,1.137 C 108.426,1.895 109.398,2.952 110.067,4.308 C 110.735,5.664 111.069,7.202 111.069,8.92 C 111.069,10.662 110.717,12.222 110.014,13.597 C 109.31,14.973 108.313,16.014 107.024,16.721 C 105.734,17.428 104.342,17.782 102.85,17.782 C 101.232,17.782 99.786,17.391 98.512,16.61 C 97.238,15.829 96.273,14.762 95.616,13.41 C 94.959,12.058 94.631,10.627 94.631,9.119 z M 96.975,9.148 C 96.975,11.218 97.532,12.849 98.646,14.041 C 99.76,15.233 101.158,15.828 102.838,15.828 C 104.55,15.828 105.959,15.226 107.066,14.023 C 108.173,12.82 108.725,11.113 108.725,8.902 C 108.725,7.504 108.489,6.283 108.016,5.24 C 107.542,4.197 106.85,3.388 105.94,2.814 C 105.03,2.24 104.007,1.953 102.874,1.953 C 101.264,1.953 99.878,2.506 98.717,3.611 C 97.556,4.716 96.975,6.563 96.975,9.148 z "
   id="path29" />
</g>
<path
   d="M 98.122077,22.0619 L 99.736125,22.0619 L 99.736125,49.990951 L 98.122077,49.990951 L 98.122077,22.0619 z "
   id="rect31" />
<path
   d="M 103.82208,22.0619 L 105.43613,22.0619 L 105.43613,49.990951 L 103.82208,49.990951 L 103.82208,22.0619 z "
   id="rect33" />
<g
   id="g35"
   transform="matrix(0.95,0,0,0.95,4.048325,3.0296)">
	<path
   d="M 61.703,116.684 L 61.703,99.496 L 64.043,99.496 L 73.047,112.984 L 73.047,99.496 L 75.235,99.496 L 75.235,116.684 L 72.895,116.684 L 63.891,103.195 L 63.891,116.684 L 61.703,116.684 z "
   id="path37" />
	<path
   d="M 79.145,116.684 L 79.145,99.496 L 81.426,99.496 L 81.426,106.559 L 90.317,106.559 L 90.317,99.496 L 92.598,99.496 L 92.598,116.684 L 90.317,116.684 L 90.317,108.59 L 81.426,108.59 L 81.426,116.684 L 79.145,116.684 z "
   id="path39" />
</g>
<g
   id="g41"
   transform="matrix(0.95,0,0,0.95,4.048325,3.0296)">
	<path
   d="M 102.38,119.668 L 102.38,121.184 L 93.849,121.184 C 93.837,120.803 93.899,120.437 94.035,120.084 C 94.253,119.504 94.602,118.934 95.083,118.372 C 95.564,117.81 96.254,117.161 97.153,116.424 C 98.549,115.272 99.495,114.361 99.993,113.691 C 100.491,113.021 100.74,112.387 100.74,111.788 C 100.74,111.162 100.514,110.634 100.065,110.204 C 99.614,109.774 99.028,109.559 98.304,109.559 C 97.538,109.559 96.927,109.788 96.468,110.247 C 96.009,110.705 95.777,111.341 95.771,112.152 L 94.146,111.98 C 94.257,110.765 94.677,109.838 95.406,109.201 C 96.134,108.564 97.112,108.246 98.34,108.246 C 99.579,108.246 100.56,108.589 101.282,109.275 C 102.004,109.961 102.365,110.81 102.365,111.825 C 102.365,112.342 102.259,112.848 102.048,113.346 C 101.837,113.844 101.485,114.368 100.995,114.92 C 100.504,115.471 99.69,116.228 98.555,117.189 C 97.605,117.986 96.993,118.527 96.722,118.81 C 96.451,119.095 96.226,119.38 96.049,119.667 L 102.38,119.667 L 102.38,119.668 z "
   id="path43" />
</g>
<path
   d="M 69.954575,95.3544 L 68.339575,95.3544 L 68.339575,67.6619 L 69.147075,67.1869 L 69.954575,67.6619 L 69.954575,95.3544 z "
   id="polygon45" />
</svg>