<?xml version="1.0" encoding="UTF-8" standalone="no"?>
<!-- Generator: Adobe Illustrator 12.0.1, SVG Export Plug-In . SVG Version: 6.00 Build 51448)  -->
<svg
   xmlns:dc="http://purl.org/dc/elements/1.1/"
   xmlns:cc="http://web.resource.org/cc/"
   xmlns:rdf="http://www.w3.org/1999/02/22-rdf-syntax-ns#"
   xmlns:svg="http://www.w3.org/2000/svg"
   xmlns="http://www.w3.org/2000/svg"
   xmlns:sodipodi="http://sodipodi.sourceforge.net/DTD/sodipodi-0.dtd"
   xmlns:inkscape="http://www.inkscape.org/namespaces/inkscape"
   version="1.1"
   id="Layer_1"
   width="185.521"
   height="121.184"
   viewBox="0 0 185.521 121.184"
   style="overflow:visible;enable-background:new 0 0 185.521 121.184;"
   xml:space="preserve"
   sodipodi:version="0.32"
   inkscape:version="0.44.1"
   sodipodi:docname="Cystein.svg"
   sodipodi:docbase="E:\Eigene Dateien"><metadata
   id="metadata46"><rdf:RDF><cc:Work
       rdf:about=""><dc:format>image/svg+xml</dc:format><dc:type
         rdf:resource="http://purl.org/dc/dcmitype/StillImage" /></cc:Work></rdf:RDF></metadata><defs
   id="defs44" /><sodipodi:namedview
   inkscape:window-height="573"
   inkscape:window-width="925"
   inkscape:pageshadow="2"
   inkscape:pageopacity="0.0"
   guidetolerance="10.0"
   gridtolerance="10.0"
   objecttolerance="10.0"
   borderopacity="1.0"
   bordercolor="#666666"
   pagecolor="#ffffff"
   id="base"
   inkscape:zoom="3.1192237"
   inkscape:cx="92.760498"
   inkscape:cy="60.591999"
   inkscape:window-x="132"
   inkscape:window-y="132"
   inkscape:current-layer="Layer_1" />
<path
   d="M 59.464425,49.2794 L 59.464425,47.4269 L 92.145375,66.2369 L 92.145375,67.1869 L 91.336925,67.6619 L 59.464425,49.2794 z "
   id="polygon3" />
<path
   d="M 92.951925,67.6619 L 92.145375,67.1869 L 92.145375,66.2369 L 124.77693,47.4269 L 124.77693,49.2794 L 92.951925,67.6619 z "
   id="polygon5" />
<g
   id="g7"
   transform="matrix(0.95,0,0,0.95,4.638025,3.0296)">
	<path
   d="M 152.619,68.618 C 152.619,65.766 153.385,63.533 154.917,61.919 C 156.449,60.306 158.427,59.499 160.85,59.499 C 162.437,59.499 163.868,59.878 165.141,60.636 C 166.414,61.394 167.386,62.451 168.055,63.807 C 168.723,65.163 169.057,66.701 169.057,68.419 C 169.057,70.161 168.705,71.721 168.002,73.096 C 167.298,74.472 166.301,75.513 165.012,76.22 C 163.722,76.927 162.33,77.281 160.838,77.281 C 159.22,77.281 157.774,76.89 156.5,76.109 C 155.226,75.328 154.261,74.261 153.604,72.909 C 152.947,71.557 152.619,70.126 152.619,68.618 z M 154.962,68.647 C 154.962,70.717 155.519,72.348 156.633,73.54 C 157.747,74.732 159.145,75.327 160.825,75.327 C 162.537,75.327 163.946,74.725 165.053,73.522 C 166.16,72.319 166.712,70.612 166.712,68.401 C 166.712,67.003 166.476,65.782 166.003,64.739 C 165.529,63.696 164.837,62.887 163.927,62.313 C 163.017,61.739 161.994,61.452 160.861,61.452 C 159.251,61.452 157.865,62.005 156.704,63.11 C 155.543,64.215 154.962,66.062 154.962,68.647 z "
   id="path9" />
	<path
   d="M 172.068,76.983 L 172.068,59.796 L 174.349,59.796 L 174.349,66.859 L 183.24,66.859 L 183.24,59.796 L 185.521,59.796 L 185.521,76.984 L 183.24,76.984 L 183.24,68.89 L 174.349,68.89 L 174.349,76.984 L 172.068,76.984 L 172.068,76.983 z "
   id="path11" />
</g>
<path
   d="M 124.77693,49.2794 L 124.77693,47.4269 L 149.23942,61.5344 L 148.43288,62.9594 L 124.77693,49.2794 z "
   id="polygon13" />
<g
   id="g15"
   transform="matrix(0.95,0,0,0.95,4.638025,3.0296)">
	<path
   d="M 118.218,9.119 C 118.218,6.267 118.984,4.034 120.517,2.42 C 122.048,0.807 124.027,0 126.449,0 C 128.037,0 129.467,0.379 130.74,1.137 C 132.014,1.895 132.986,2.952 133.654,4.308 C 134.322,5.664 134.656,7.202 134.656,8.92 C 134.656,10.662 134.304,12.222 133.601,13.597 C 132.898,14.973 131.901,16.014 130.611,16.721 C 129.322,17.428 127.93,17.782 126.437,17.782 C 124.82,17.782 123.373,17.391 122.099,16.61 C 120.825,15.829 119.861,14.762 119.203,13.41 C 118.546,12.058 118.218,10.627 118.218,9.119 z M 120.562,9.148 C 120.562,11.218 121.119,12.849 122.234,14.041 C 123.347,15.232 124.746,15.828 126.425,15.828 C 128.138,15.828 129.546,15.226 130.654,14.023 C 131.759,12.82 132.312,11.113 132.312,8.902 C 132.312,7.504 132.076,6.283 131.603,5.24 C 131.13,4.197 130.438,3.388 129.527,2.814 C 128.617,2.24 127.595,1.953 126.461,1.953 C 124.852,1.953 123.465,2.506 122.305,3.611 C 121.142,4.717 120.562,6.563 120.562,9.148 z "
   id="path17" />
</g>
<path
   d="M 121.12038,22.0619 L 122.73443,22.0619 L 122.73443,49.9919 L 121.12038,49.9919 L 121.12038,22.0619 z "
   id="rect19" />
<path
   d="M 126.82038,22.0619 L 128.43443,22.0619 L 128.43443,49.9919 L 126.82038,49.9919 L 126.82038,22.0619 z "
   id="rect21" />
<g
   id="g23"
   transform="matrix(0.95,0,0,0.95,4.638025,3.0296)">
	<path
   d="M 85.291,116.684 L 85.291,99.496 L 87.631,99.496 L 96.635,112.984 L 96.635,99.496 L 98.823,99.496 L 98.823,116.684 L 96.483,116.684 L 87.479,103.195 L 87.479,116.684 L 85.291,116.684 z "
   id="path25" />
	<path
   d="M 102.732,116.684 L 102.732,99.496 L 105.013,99.496 L 105.013,106.559 L 113.904,106.559 L 113.904,99.496 L 116.185,99.496 L 116.185,116.684 L 113.904,116.684 L 113.904,108.59 L 105.013,108.59 L 105.013,116.684 L 102.732,116.684 z "
   id="path27" />
</g>
<g
   id="g29"
   transform="matrix(0.95,0,0,0.95,4.638025,3.0296)">
	<path
   d="M 125.966,119.668 L 125.966,121.184 L 117.435,121.184 C 117.423,120.803 117.486,120.437 117.621,120.084 C 117.84,119.504 118.189,118.934 118.67,118.372 C 119.151,117.81 119.84,117.161 120.74,116.424 C 122.135,115.272 123.082,114.361 123.58,113.691 C 124.078,113.021 124.326,112.387 124.326,111.788 C 124.326,111.162 124.101,110.634 123.651,110.204 C 123.201,109.774 122.615,109.559 121.89,109.559 C 121.124,109.559 120.513,109.788 120.054,110.247 C 119.595,110.705 119.363,111.341 119.357,112.152 L 117.732,111.98 C 117.843,110.765 118.263,109.838 118.992,109.201 C 119.721,108.564 120.699,108.246 121.926,108.246 C 123.165,108.246 124.147,108.589 124.868,109.275 C 125.59,109.961 125.951,110.81 125.951,111.825 C 125.951,112.342 125.846,112.848 125.635,113.346 C 125.423,113.844 125.072,114.368 124.582,114.92 C 124.09,115.471 123.277,116.228 122.141,117.189 C 121.191,117.986 120.58,118.527 120.309,118.81 C 120.038,119.095 119.813,119.38 119.635,119.667 L 125.966,119.667 L 125.966,119.668 z "
   id="path31" />
</g>
<path
   d="M 92.951925,95.3544 L 91.336925,95.3544 L 91.336925,67.6619 L 92.145375,67.1869 L 92.951925,67.6619 L 92.951925,95.3544 z "
   id="polygon33" />
<g
   id="g35"
   transform="matrix(0.95,0,0,0.95,4.638025,3.0296)">
	<path
   d="M 0,76.983 L 0,59.796 L 2.281,59.796 L 2.281,66.859 L 11.172,66.859 L 11.172,59.796 L 13.453,59.796 L 13.453,76.984 L 11.172,76.984 L 11.172,68.89 L 2.281,68.89 L 2.281,76.984 L 0,76.984 L 0,76.983 z "
   id="path37" />
	<path
   d="M 16.488,71.468 L 18.629,71.28 C 18.731,72.141 18.967,72.847 19.338,73.399 C 19.709,73.952 20.286,74.397 21.067,74.738 C 21.848,75.079 22.728,75.249 23.705,75.249 C 24.573,75.249 25.339,75.12 26.003,74.861 C 26.667,74.603 27.162,74.249 27.486,73.798 C 27.81,73.348 27.972,72.857 27.972,72.324 C 27.972,71.784 27.814,71.312 27.497,70.909 C 27.18,70.506 26.662,70.168 25.943,69.893 C 25.482,69.713 24.461,69.433 22.881,69.054 C 21.301,68.674 20.195,68.316 19.563,67.98 C 18.743,67.549 18.132,67.016 17.73,66.378 C 17.328,65.74 17.127,65.026 17.127,64.237 C 17.127,63.368 17.373,62.557 17.866,61.802 C 18.358,61.047 19.078,60.474 20.024,60.083 C 20.97,59.691 22.022,59.496 23.179,59.496 C 24.453,59.496 25.577,59.701 26.551,60.112 C 27.525,60.523 28.274,61.128 28.797,61.925 C 29.321,62.723 29.603,63.626 29.642,64.636 L 27.454,64.808 C 27.337,63.716 26.939,62.89 26.264,62.332 C 25.587,61.774 24.588,61.495 23.267,61.495 C 21.891,61.495 20.887,61.748 20.258,62.253 C 19.628,62.758 19.314,63.366 19.314,64.078 C 19.314,64.697 19.537,65.206 19.983,65.604 C 20.421,66.003 21.564,66.413 23.414,66.832 C 25.264,67.251 26.533,67.616 27.222,67.929 C 28.224,68.391 28.964,68.976 29.442,69.683 C 29.92,70.39 30.159,71.205 30.159,72.128 C 30.159,73.043 29.897,73.905 29.374,74.714 C 28.851,75.524 28.099,76.152 27.119,76.603 C 26.139,77.052 25.035,77.277 23.809,77.277 C 22.254,77.277 20.952,77.05 19.902,76.597 C 18.851,76.144 18.027,75.462 17.43,74.552 C 16.834,73.646 16.52,72.616 16.488,71.468 z "
   id="path39" />
</g>
<path
   d="M 35.286925,63.2444 L 34.480375,61.8194 L 59.464425,47.4269 L 59.464425,49.2794 L 35.286925,63.2444 z "
   id="polygon41" />
</svg>