<?xml version="1.0" encoding="UTF-8" standalone="no"?>
<!-- Generator: Adobe Illustrator 12.0.1, SVG Export Plug-In . SVG Version: 6.00 Build 51448)  -->
<svg
   xmlns:dc="http://purl.org/dc/elements/1.1/"
   xmlns:cc="http://web.resource.org/cc/"
   xmlns:rdf="http://www.w3.org/1999/02/22-rdf-syntax-ns#"
   xmlns:svg="http://www.w3.org/2000/svg"
   xmlns="http://www.w3.org/2000/svg"
   xmlns:sodipodi="http://sodipodi.sourceforge.net/DTD/sodipodi-0.dtd"
   xmlns:inkscape="http://www.inkscape.org/namespaces/inkscape"
   version="1.1"
   id="Layer_1"
   width="204.752"
   height="121.184"
   viewBox="0 0 204.752 121.184"
   style="overflow:visible;enable-background:new 0 0 204.752 121.184;"
   xml:space="preserve"
   sodipodi:version="0.32"
   inkscape:version="0.44.1"
   sodipodi:docname="Asparaginsäure.svg"
   sodipodi:docbase="E:\Eigene Dateien"><metadata
   id="metadata56"><rdf:RDF><cc:Work
       rdf:about=""><dc:format>image/svg+xml</dc:format><dc:type
         rdf:resource="http://purl.org/dc/dcmitype/StillImage" /></cc:Work></rdf:RDF></metadata><defs
   id="defs54" /><sodipodi:namedview
   inkscape:window-height="573"
   inkscape:window-width="925"
   inkscape:pageshadow="2"
   inkscape:pageopacity="0.0"
   guidetolerance="10.0"
   gridtolerance="10.0"
   objecttolerance="10.0"
   borderopacity="1.0"
   bordercolor="#666666"
   pagecolor="#ffffff"
   id="base"
   inkscape:zoom="3.1192237"
   inkscape:cx="102.376"
   inkscape:cy="60.591999"
   inkscape:window-x="66"
   inkscape:window-y="66"
   inkscape:current-layer="Layer_1" />
<path
   d="M 78.2156,49.2794 L 78.2156,47.4269 L 110.8956,66.2369 L 110.8956,67.1869 L 110.0881,67.6619 L 78.2156,49.2794 z "
   id="polygon3" />
<path
   d="M 111.7031,67.6619 L 110.8956,67.1869 L 110.8956,66.2369 L 143.5281,47.4269 L 143.5281,49.2794 L 111.7031,67.6619 z "
   id="polygon5" />
<g
   id="g7"
   transform="matrix(0.95,0,0,0.95,5.1188,3.0296)">
	<path
   d="M 171.85,68.618 C 171.85,65.766 172.616,63.533 174.148,61.919 C 175.68,60.306 177.658,59.499 180.081,59.499 C 181.668,59.499 183.099,59.878 184.372,60.636 C 185.645,61.394 186.617,62.451 187.286,63.807 C 187.954,65.163 188.288,66.701 188.288,68.419 C 188.288,70.161 187.936,71.721 187.233,73.096 C 186.529,74.472 185.532,75.513 184.243,76.22 C 182.953,76.927 181.561,77.281 180.069,77.281 C 178.451,77.281 177.005,76.89 175.731,76.109 C 174.457,75.328 173.492,74.261 172.835,72.909 C 172.178,71.557 171.85,70.126 171.85,68.618 z M 174.194,68.647 C 174.194,70.717 174.751,72.348 175.865,73.54 C 176.979,74.732 178.377,75.327 180.057,75.327 C 181.769,75.327 183.178,74.725 184.285,73.522 C 185.392,72.319 185.944,70.612 185.944,68.401 C 185.944,67.003 185.708,65.782 185.235,64.739 C 184.761,63.696 184.069,62.887 183.159,62.313 C 182.249,61.739 181.226,61.452 180.093,61.452 C 178.483,61.452 177.097,62.005 175.936,63.11 C 174.775,64.215 174.194,66.062 174.194,68.647 z "
   id="path9" />
	<path
   d="M 191.299,76.983 L 191.299,59.796 L 193.58,59.796 L 193.58,66.859 L 202.471,66.859 L 202.471,59.796 L 204.752,59.796 L 204.752,76.984 L 202.471,76.984 L 202.471,68.89 L 193.58,68.89 L 193.58,76.984 L 191.299,76.984 L 191.299,76.983 z "
   id="path11" />
</g>
<path
   d="M 143.5281,49.2794 L 143.5281,47.4269 L 167.9906,61.5344 L 167.1831,62.9594 L 143.5281,49.2794 z "
   id="polygon13" />
<g
   id="g15"
   transform="matrix(0.95,0,0,0.95,5.1188,3.0296)">
	<path
   d="M 137.45,9.119 C 137.45,6.267 138.216,4.034 139.749,2.42 C 141.28,0.807 143.258,0 145.68,0 C 147.268,0 148.698,0.379 149.971,1.137 C 151.245,1.895 152.217,2.952 152.885,4.308 C 153.553,5.664 153.887,7.202 153.887,8.92 C 153.887,10.662 153.535,12.222 152.832,13.597 C 152.129,14.973 151.132,16.014 149.842,16.721 C 148.553,17.428 147.161,17.782 145.668,17.782 C 144.051,17.782 142.604,17.391 141.33,16.61 C 140.056,15.829 139.092,14.762 138.434,13.41 C 137.778,12.058 137.45,10.627 137.45,9.119 z M 139.793,9.148 C 139.793,11.218 140.35,12.849 141.465,14.041 C 142.578,15.232 143.977,15.828 145.656,15.828 C 147.369,15.828 148.777,15.226 149.885,14.023 C 150.99,12.82 151.543,11.113 151.543,8.902 C 151.543,7.504 151.307,6.283 150.834,5.24 C 150.361,4.197 149.669,3.388 148.758,2.814 C 147.848,2.24 146.826,1.953 145.692,1.953 C 144.083,1.953 142.696,2.506 141.536,3.611 C 140.374,4.717 139.793,6.563 139.793,9.148 z "
   id="path17" />
</g>
<path
   d="M 139.87059,22.0619 L 141.48464,22.0619 L 141.48464,49.9919 L 139.87059,49.9919 L 139.87059,22.0619 z "
   id="rect19" />
<path
   d="M 145.57059,22.0619 L 147.18464,22.0619 L 147.18464,49.9919 L 145.57059,49.9919 L 145.57059,22.0619 z "
   id="rect21" />
<g
   id="g23"
   transform="matrix(0.95,0,0,0.95,5.1188,3.0296)">
	<path
   d="M 104.522,116.684 L 104.522,99.496 L 106.862,99.496 L 115.866,112.984 L 115.866,99.496 L 118.054,99.496 L 118.054,116.684 L 115.714,116.684 L 106.71,103.195 L 106.71,116.684 L 104.522,116.684 z "
   id="path25" />
	<path
   d="M 121.963,116.684 L 121.963,99.496 L 124.244,99.496 L 124.244,106.559 L 133.135,106.559 L 133.135,99.496 L 135.416,99.496 L 135.416,116.684 L 133.135,116.684 L 133.135,108.59 L 124.244,108.59 L 124.244,116.684 L 121.963,116.684 z "
   id="path27" />
</g>
<g
   id="g29"
   transform="matrix(0.95,0,0,0.95,5.1188,3.0296)">
	<path
   d="M 145.198,119.668 L 145.198,121.184 L 136.667,121.184 C 136.655,120.803 136.718,120.437 136.853,120.084 C 137.072,119.504 137.421,118.934 137.902,118.372 C 138.383,117.81 139.072,117.161 139.972,116.424 C 141.367,115.272 142.314,114.361 142.812,113.691 C 143.31,113.021 143.558,112.387 143.558,111.788 C 143.558,111.162 143.333,110.634 142.883,110.204 C 142.433,109.774 141.847,109.559 141.122,109.559 C 140.356,109.559 139.745,109.788 139.286,110.247 C 138.827,110.705 138.595,111.341 138.589,112.152 L 136.964,111.98 C 137.075,110.765 137.495,109.838 138.224,109.201 C 138.953,108.564 139.931,108.246 141.158,108.246 C 142.397,108.246 143.379,108.589 144.1,109.275 C 144.822,109.961 145.183,110.81 145.183,111.825 C 145.183,112.342 145.078,112.848 144.867,113.346 C 144.655,113.844 144.304,114.368 143.814,114.92 C 143.322,115.471 142.509,116.228 141.373,117.189 C 140.423,117.986 139.812,118.527 139.541,118.81 C 139.27,119.095 139.045,119.38 138.867,119.667 L 145.198,119.667 L 145.198,119.668 z "
   id="path31" />
</g>
<path
   d="M 111.7031,95.3544 L 110.0881,95.3544 L 110.0881,67.6619 L 110.8956,67.1869 L 111.7031,67.6619 L 111.7031,95.3544 z "
   id="polygon33" />
<path
   d="M 78.2156,47.4269 L 78.2156,49.2794 L 46.3906,67.6619 L 44.7756,66.7119 L 78.2156,47.4269 z "
   id="polygon35" />
<g
   id="g37"
   transform="matrix(0.95,0,0,0.95,5.1188,3.0296)">
	<path
   d="M 0,48.769 C 0,45.917 0.766,43.684 2.298,42.07 C 3.83,40.457 5.808,39.65 8.231,39.65 C 9.818,39.65 11.248,40.029 12.522,40.787 C 13.796,41.545 14.767,42.602 15.436,43.958 C 16.104,45.314 16.438,46.852 16.438,48.57 C 16.438,50.312 16.086,51.872 15.383,53.247 C 14.679,54.623 13.683,55.664 12.393,56.371 C 11.103,57.078 9.712,57.432 8.219,57.432 C 6.601,57.432 5.155,57.041 3.881,56.26 C 2.607,55.479 1.642,54.412 0.985,53.06 C 0.328,51.707 0,50.276 0,48.769 z M 2.344,48.798 C 2.344,50.868 2.901,52.499 4.015,53.691 C 5.129,54.883 6.527,55.478 8.207,55.478 C 9.919,55.478 11.328,54.876 12.435,53.673 C 13.541,52.47 14.094,50.763 14.094,48.552 C 14.094,47.154 13.858,45.933 13.385,44.89 C 12.912,43.847 12.22,43.038 11.309,42.464 C 10.398,41.89 9.376,41.603 8.243,41.603 C 6.633,41.603 5.247,42.156 4.086,43.261 C 2.925,44.366 2.344,46.212 2.344,48.798 z "
   id="path39" />
</g>
<path
   d="M 48.8131,64.8594 L 48.0056,66.2369 L 23.1631,51.9394 L 23.9706,50.5144 L 48.8131,64.8594 z "
   id="polygon41" />
<path
   d="M 45.9631,69.7519 L 45.1556,71.1769 L 20.35965,56.8319 L 21.1681,55.4069 L 45.9631,69.7519 z "
   id="polygon43" />
<g
   id="g45"
   transform="matrix(0.95,0,0,0.95,5.1188,3.0296)">
	<path
   d="M 34.35,108.318 C 34.35,105.466 35.116,103.233 36.648,101.619 C 38.18,100.006 40.158,99.199 42.581,99.199 C 44.168,99.199 45.598,99.578 46.872,100.336 C 48.146,101.094 49.117,102.151 49.786,103.507 C 50.454,104.863 50.788,106.401 50.788,108.119 C 50.788,109.861 50.436,111.421 49.733,112.796 C 49.029,114.172 48.033,115.213 46.743,115.92 C 45.453,116.627 44.062,116.981 42.569,116.981 C 40.951,116.981 39.505,116.59 38.231,115.809 C 36.957,115.028 35.992,113.961 35.335,112.609 C 34.678,111.257 34.35,109.826 34.35,108.318 z M 36.694,108.348 C 36.694,110.418 37.251,112.049 38.365,113.241 C 39.479,114.433 40.877,115.028 42.557,115.028 C 44.269,115.028 45.678,114.426 46.785,113.223 C 47.891,112.02 48.444,110.313 48.444,108.102 C 48.444,106.704 48.208,105.483 47.735,104.44 C 47.262,103.397 46.57,102.588 45.659,102.014 C 44.748,101.44 43.726,101.153 42.593,101.153 C 40.983,101.153 39.597,101.706 38.436,102.811 C 37.275,103.916 36.694,105.762 36.694,108.348 z "
   id="path47" />
	<path
   d="M 53.799,116.684 L 53.799,99.496 L 56.08,99.496 L 56.08,106.559 L 64.971,106.559 L 64.971,99.496 L 67.252,99.496 L 67.252,116.684 L 64.971,116.684 L 64.971,108.59 L 56.08,108.59 L 56.08,116.684 L 53.799,116.684 z "
   id="path49" />
</g>
<path
   d="M 46.3906,95.1169 L 44.7756,95.1169 L 44.7756,66.7119 L 46.3906,67.6619 L 46.3906,95.1169 z "
   id="polygon51" />
</svg>