<?xml version="1.0" encoding="UTF-8" standalone="no"?>
<!-- Generator: Adobe Illustrator 12.0.1, SVG Export Plug-In . SVG Version: 6.00 Build 51448)  -->
<svg
   xmlns:dc="http://purl.org/dc/elements/1.1/"
   xmlns:cc="http://web.resource.org/cc/"
   xmlns:rdf="http://www.w3.org/1999/02/22-rdf-syntax-ns#"
   xmlns:svg="http://www.w3.org/2000/svg"
   xmlns="http://www.w3.org/2000/svg"
   xmlns:sodipodi="http://sodipodi.sourceforge.net/DTD/sodipodi-0.dtd"
   xmlns:inkscape="http://www.inkscape.org/namespaces/inkscape"
   version="1.1"
   id="Layer_1"
   width="229.271"
   height="124.684"
   viewBox="0 0 229.271 124.684"
   style="overflow:visible;enable-background:new 0 0 229.271 124.684;"
   xml:space="preserve"
   sodipodi:version="0.32"
   inkscape:version="0.44.1"
   sodipodi:docname="Histidin.svg"
   sodipodi:docbase="E:\Eigene Dateien"><metadata
   id="metadata64"><rdf:RDF><cc:Work
       rdf:about=""><dc:format>image/svg+xml</dc:format><dc:type
         rdf:resource="http://purl.org/dc/dcmitype/StillImage" /></cc:Work></rdf:RDF></metadata><defs
   id="defs62" /><sodipodi:namedview
   inkscape:window-height="573"
   inkscape:window-width="925"
   inkscape:pageshadow="2"
   inkscape:pageopacity="0.0"
   guidetolerance="10.0"
   gridtolerance="10.0"
   objecttolerance="10.0"
   borderopacity="1.0"
   bordercolor="#666666"
   pagecolor="#ffffff"
   id="base"
   inkscape:zoom="3.0316641"
   inkscape:cx="114.6355"
   inkscape:cy="62.341999"
   inkscape:window-x="220"
   inkscape:window-y="220"
   inkscape:current-layer="Layer_1" />
<path
   d="M 102.12068,49.3669 L 102.12068,47.5144 L 134.80163,66.3244 L 134.80163,67.2744 L 133.99318,67.7494 L 102.12068,49.3669 z "
   id="polygon3" />
<path
   d="M 135.60817,67.7494 L 134.80163,67.2744 L 134.80163,66.3244 L 167.43317,47.5144 L 167.43317,49.3669 L 135.60817,67.7494 z "
   id="polygon5" />
<g
   id="g7"
   transform="matrix(0.95,0,0,0.95,5.731775,3.1171)">
	<path
   d="M 196.369,68.619 C 196.369,65.767 197.135,63.534 198.667,61.92 C 200.199,60.307 202.177,59.5 204.6,59.5 C 206.187,59.5 207.618,59.879 208.891,60.637 C 210.164,61.395 211.136,62.452 211.805,63.808 C 212.473,65.164 212.807,66.702 212.807,68.42 C 212.807,70.162 212.455,71.722 211.752,73.097 C 211.048,74.473 210.051,75.514 208.762,76.221 C 207.472,76.928 206.08,77.282 204.588,77.282 C 202.97,77.282 201.524,76.891 200.25,76.11 C 198.976,75.329 198.011,74.262 197.354,72.91 C 196.697,71.558 196.369,70.127 196.369,68.619 z M 198.712,68.648 C 198.712,70.718 199.269,72.349 200.383,73.541 C 201.497,74.733 202.895,75.328 204.575,75.328 C 206.287,75.328 207.696,74.726 208.803,73.523 C 209.91,72.32 210.462,70.613 210.462,68.402 C 210.462,67.004 210.226,65.783 209.753,64.74 C 209.279,63.697 208.587,62.888 207.677,62.314 C 206.767,61.74 205.744,61.453 204.611,61.453 C 203.001,61.453 201.615,62.006 200.454,63.111 C 199.293,64.216 198.712,66.063 198.712,68.648 z "
   id="path9" />
	<path
   d="M 215.818,76.984 L 215.818,59.797 L 218.099,59.797 L 218.099,66.86 L 226.99,66.86 L 226.99,59.797 L 229.271,59.797 L 229.271,76.985 L 226.99,76.985 L 226.99,68.891 L 218.099,68.891 L 218.099,76.985 L 215.818,76.985 L 215.818,76.984 z "
   id="path11" />
</g>
<path
   d="M 167.43317,49.3669 L 167.43317,47.5144 L 191.94318,61.6219 L 191.13663,63.0469 L 167.43317,49.3669 z "
   id="polygon13" />
<g
   id="g15"
   transform="matrix(0.95,0,0,0.95,5.731775,3.1171)">
	<path
   d="M 161.968,9.119 C 161.968,6.267 162.734,4.034 164.267,2.42 C 165.798,0.807 167.777,0 170.199,0 C 171.787,0 173.217,0.379 174.49,1.137 C 175.764,1.895 176.736,2.952 177.404,4.308 C 178.072,5.664 178.406,7.202 178.406,8.92 C 178.406,10.662 178.054,12.222 177.351,13.597 C 176.648,14.973 175.651,16.014 174.361,16.721 C 173.072,17.428 171.68,17.782 170.187,17.782 C 168.57,17.782 167.123,17.391 165.849,16.61 C 164.575,15.829 163.611,14.762 162.953,13.41 C 162.296,12.058 161.968,10.627 161.968,9.119 z M 164.312,9.148 C 164.312,11.218 164.869,12.849 165.984,14.041 C 167.097,15.232 168.496,15.828 170.175,15.828 C 171.888,15.828 173.296,15.226 174.404,14.023 C 175.509,12.82 176.062,11.113 176.062,8.902 C 176.062,7.504 175.826,6.283 175.353,5.24 C 174.88,4.197 174.188,3.388 173.277,2.814 C 172.367,2.24 171.345,1.953 170.211,1.953 C 168.602,1.953 167.215,2.506 166.055,3.611 C 164.892,4.717 164.312,6.563 164.312,9.148 z "
   id="path17" />
</g>
<path
   d="M 163.77663,22.1494 L 165.39068,22.1494 L 165.39068,50.0794 L 163.77663,50.0794 L 163.77663,22.1494 z "
   id="rect19" />
<path
   d="M 169.47663,22.1494 L 171.09068,22.1494 L 171.09068,50.0794 L 169.47663,50.0794 L 169.47663,22.1494 z "
   id="rect21" />
<g
   id="g23"
   transform="matrix(0.95,0,0,0.95,5.731775,3.1171)">
	<path
   d="M 129.041,116.684 L 129.041,99.496 L 131.381,99.496 L 140.385,112.984 L 140.385,99.496 L 142.573,99.496 L 142.573,116.684 L 140.233,116.684 L 131.229,103.195 L 131.229,116.684 L 129.041,116.684 z "
   id="path25" />
	<path
   d="M 146.482,116.684 L 146.482,99.496 L 148.763,99.496 L 148.763,106.559 L 157.654,106.559 L 157.654,99.496 L 159.935,99.496 L 159.935,116.684 L 157.654,116.684 L 157.654,108.59 L 148.763,108.59 L 148.763,116.684 L 146.482,116.684 z "
   id="path27" />
</g>
<g
   id="g29"
   transform="matrix(0.95,0,0,0.95,5.731775,3.1171)">
	<path
   d="M 169.716,119.668 L 169.716,121.184 L 161.185,121.184 C 161.173,120.803 161.236,120.437 161.371,120.084 C 161.59,119.504 161.939,118.934 162.42,118.372 C 162.901,117.81 163.59,117.161 164.49,116.424 C 165.885,115.272 166.832,114.361 167.33,113.691 C 167.828,113.021 168.076,112.387 168.076,111.788 C 168.076,111.162 167.851,110.634 167.401,110.204 C 166.951,109.774 166.365,109.559 165.64,109.559 C 164.874,109.559 164.263,109.788 163.804,110.247 C 163.345,110.705 163.113,111.341 163.107,112.152 L 161.482,111.98 C 161.593,110.765 162.013,109.838 162.742,109.201 C 163.471,108.564 164.449,108.246 165.676,108.246 C 166.915,108.246 167.897,108.589 168.618,109.275 C 169.34,109.961 169.701,110.81 169.701,111.825 C 169.701,112.342 169.596,112.848 169.385,113.346 C 169.173,113.844 168.822,114.368 168.332,114.92 C 167.84,115.471 167.027,116.228 165.891,117.189 C 164.941,117.986 164.33,118.527 164.059,118.81 C 163.788,119.095 163.563,119.38 163.385,119.667 L 169.716,119.667 L 169.716,119.668 z "
   id="path31" />
</g>
<path
   d="M 135.60817,95.4894 L 133.99318,95.4894 L 133.99318,67.7494 L 134.80163,67.2744 L 135.60817,67.7494 L 135.60817,95.4894 z "
   id="polygon33" />
<path
   d="M 70.249125,67.7969 L 69.489125,67.2744 L 69.440675,66.3719 L 102.12068,47.5144 L 102.12068,49.3669 L 70.249125,67.7969 z "
   id="polygon35" />
<g
   id="g37"
   transform="matrix(0.95,0,0,0.95,5.731775,3.1171)">
	<path
   d="M 24.041,60.834 L 24.041,43.646 L 26.381,43.646 L 35.385,57.134 L 35.385,43.646 L 37.573,43.646 L 37.573,60.834 L 35.233,60.834 L 26.229,47.345 L 26.229,60.834 L 24.041,60.834 z "
   id="path39" />
</g>
<g
   id="g41"
   transform="matrix(0.95,0,0,0.95,5.731775,3.1171)">
	<path
   d="M 0,124.684 L 0,107.496 L 2.281,107.496 L 2.281,114.559 L 11.172,114.559 L 11.172,107.496 L 13.453,107.496 L 13.453,124.684 L 11.172,124.684 L 11.172,116.59 L 2.281,116.59 L 2.281,124.684 L 0,124.684 z "
   id="path43" />
	<path
   d="M 17.223,124.684 L 17.223,107.496 L 19.563,107.496 L 28.567,120.984 L 28.567,107.496 L 30.755,107.496 L 30.755,124.684 L 28.415,124.684 L 19.411,111.195 L 19.411,124.684 L 17.223,124.684 z "
   id="path45" />
</g>
<path
   d="M 44.314125,56.9669 L 44.978175,55.4944 L 69.440675,66.3719 L 69.489125,67.2744 L 68.633175,67.7969 L 44.314125,56.9669 z "
   id="polygon47" />
<path
   d="M 10.826625,80.0519 L 8.830675,79.8619 L 25.693175,61.1469 L 26.880675,62.2394 L 10.826625,80.0519 z "
   id="polygon49" />
<path
   d="M 17.380675,81.2394 L 16.145675,80.1469 L 29.874125,64.9469 L 31.061625,65.9919 L 17.380675,81.2394 z "
   id="polygon51" />
<path
   d="M 23.508175,102.0444 L 22.083175,102.8519 L 8.830675,79.8619 L 10.826625,80.0519 L 23.508175,102.0444 z "
   id="polygon53" />
<path
   d="M 64.786625,104.0869 L 66.305675,105.4644 L 37.901625,111.4969 L 37.568175,109.8819 L 64.786625,104.0869 z "
   id="polygon55" />
<path
   d="M 68.633175,67.7969 L 69.489125,67.2744 L 70.249125,67.7969 L 66.305675,105.4644 L 64.786625,104.0869 L 68.633175,67.7969 z "
   id="polygon57" />
<path
   d="M 62.649125,70.6944 L 64.215675,70.8369 L 61.128175,100.1919 L 59.561625,100.0019 L 62.649125,70.6944 z "
   id="polygon59" />
</svg>