<?xml version="1.0" encoding="UTF-8" standalone="no"?>
<!-- Generator: Adobe Illustrator 12.0.1, SVG Export Plug-In . SVG Version: 6.00 Build 51448)  -->
<svg
   xmlns:dc="http://purl.org/dc/elements/1.1/"
   xmlns:cc="http://web.resource.org/cc/"
   xmlns:rdf="http://www.w3.org/1999/02/22-rdf-syntax-ns#"
   xmlns:svg="http://www.w3.org/2000/svg"
   xmlns="http://www.w3.org/2000/svg"
   xmlns:sodipodi="http://sodipodi.sourceforge.net/DTD/sodipodi-0.dtd"
   xmlns:inkscape="http://www.inkscape.org/namespaces/inkscape"
   version="1.1"
   id="Layer_1"
   width="265.033"
   height="121.184"
   viewBox="0 0 265.033 121.184"
   style="overflow:visible;enable-background:new 0 0 265.033 121.184;"
   xml:space="preserve"
   sodipodi:version="0.32"
   inkscape:version="0.44.1"
   sodipodi:docname="Glutamin.svg"
   sodipodi:docbase="E:\Eigene Dateien"><metadata
   id="metadata64"><rdf:RDF><cc:Work
       rdf:about=""><dc:format>image/svg+xml</dc:format><dc:type
         rdf:resource="http://purl.org/dc/dcmitype/StillImage" /></cc:Work></rdf:RDF></metadata><defs
   id="defs62" /><sodipodi:namedview
   inkscape:window-height="573"
   inkscape:window-width="925"
   inkscape:pageshadow="2"
   inkscape:pageopacity="0.0"
   guidetolerance="10.0"
   gridtolerance="10.0"
   objecttolerance="10.0"
   borderopacity="1.0"
   bordercolor="#666666"
   pagecolor="#ffffff"
   id="base"
   inkscape:zoom="3.1192237"
   inkscape:cx="132.51649"
   inkscape:cy="60.591999"
   inkscape:window-x="176"
   inkscape:window-y="176"
   inkscape:current-layer="Layer_1" />
<path
   d="M 136.98958,49.2794 L 136.98958,47.4269 L 169.66958,66.2369 L 169.66958,67.1869 L 168.86113,67.6619 L 136.98958,49.2794 z "
   id="polygon3" />
<path
   d="M 170.47708,67.6619 L 169.66958,67.1869 L 169.66958,66.2369 L 202.30208,47.4269 L 202.30208,49.2794 L 170.47708,67.6619 z "
   id="polygon5" />
<g
   id="g7"
   transform="matrix(0.95,0,0,0.95,6.625825,3.0296)">
	<path
   d="M 232.131,68.619 C 232.131,65.767 232.897,63.534 234.429,61.92 C 235.961,60.307 237.939,59.5 240.362,59.5 C 241.949,59.5 243.38,59.879 244.653,60.637 C 245.926,61.395 246.898,62.452 247.567,63.808 C 248.235,65.164 248.569,66.702 248.569,68.42 C 248.569,70.162 248.217,71.722 247.514,73.097 C 246.81,74.473 245.813,75.514 244.524,76.221 C 243.234,76.928 241.842,77.282 240.35,77.282 C 238.732,77.282 237.286,76.891 236.012,76.11 C 234.738,75.329 233.773,74.262 233.116,72.91 C 232.459,71.558 232.131,70.127 232.131,68.619 z M 234.475,68.648 C 234.475,70.718 235.032,72.349 236.146,73.541 C 237.26,74.733 238.658,75.328 240.338,75.328 C 242.05,75.328 243.459,74.726 244.566,73.523 C 245.673,72.32 246.225,70.613 246.225,68.402 C 246.225,67.004 245.989,65.783 245.516,64.74 C 245.042,63.697 244.35,62.888 243.44,62.314 C 242.53,61.74 241.507,61.453 240.374,61.453 C 238.764,61.453 237.378,62.006 236.217,63.111 C 235.056,64.216 234.475,66.063 234.475,68.648 z "
   id="path9" />
	<path
   d="M 251.58,76.984 L 251.58,59.797 L 253.861,59.797 L 253.861,66.86 L 262.752,66.86 L 262.752,59.797 L 265.033,59.797 L 265.033,76.985 L 262.752,76.985 L 262.752,68.891 L 253.861,68.891 L 253.861,76.985 L 251.58,76.985 L 251.58,76.984 z "
   id="path11" />
</g>
<path
   d="M 202.30208,49.2794 L 202.30208,47.4269 L 226.76458,61.5344 L 225.95708,62.9594 L 202.30208,49.2794 z "
   id="polygon13" />
<g
   id="g15"
   transform="matrix(0.95,0,0,0.95,6.625825,3.0296)">
	<path
   d="M 197.73,9.119 C 197.73,6.267 198.496,4.034 200.029,2.42 C 201.56,0.807 203.539,0 205.961,0 C 207.549,0 208.979,0.379 210.252,1.137 C 211.526,1.895 212.498,2.952 213.166,4.308 C 213.834,5.664 214.168,7.202 214.168,8.92 C 214.168,10.662 213.816,12.222 213.113,13.597 C 212.41,14.973 211.413,16.014 210.123,16.721 C 208.834,17.428 207.442,17.782 205.949,17.782 C 204.332,17.782 202.885,17.391 201.611,16.61 C 200.337,15.829 199.373,14.762 198.715,13.41 C 198.059,12.058 197.73,10.627 197.73,9.119 z M 200.074,9.148 C 200.074,11.218 200.631,12.849 201.746,14.041 C 202.859,15.232 204.258,15.828 205.937,15.828 C 207.65,15.828 209.058,15.226 210.166,14.023 C 211.271,12.82 211.824,11.113 211.824,8.902 C 211.824,7.504 211.588,6.283 211.115,5.24 C 210.642,4.197 209.95,3.388 209.039,2.814 C 208.129,2.24 207.107,1.953 205.973,1.953 C 204.364,1.953 202.977,2.506 201.817,3.611 C 200.654,4.717 200.074,6.563 200.074,9.148 z "
   id="path17" />
</g>
<path
   d="M 198.64458,22.0619 L 200.25863,22.0619 L 200.25863,49.9919 L 198.64458,49.9919 L 198.64458,22.0619 z "
   id="rect19" />
<path
   d="M 204.34458,22.0619 L 205.95863,22.0619 L 205.95863,49.9919 L 204.34458,49.9919 L 204.34458,22.0619 z "
   id="rect21" />
<g
   id="g23"
   transform="matrix(0.95,0,0,0.95,6.625825,3.0296)">
	<path
   d="M 164.803,116.684 L 164.803,99.496 L 167.143,99.496 L 176.147,112.984 L 176.147,99.496 L 178.335,99.496 L 178.335,116.684 L 175.995,116.684 L 166.991,103.195 L 166.991,116.684 L 164.803,116.684 z "
   id="path25" />
	<path
   d="M 182.244,116.684 L 182.244,99.496 L 184.525,99.496 L 184.525,106.559 L 193.416,106.559 L 193.416,99.496 L 195.697,99.496 L 195.697,116.684 L 193.416,116.684 L 193.416,108.59 L 184.525,108.59 L 184.525,116.684 L 182.244,116.684 z "
   id="path27" />
</g>
<g
   id="g29"
   transform="matrix(0.95,0,0,0.95,6.625825,3.0296)">
	<path
   d="M 205.479,119.668 L 205.479,121.184 L 196.948,121.184 C 196.936,120.803 196.999,120.437 197.134,120.084 C 197.353,119.504 197.702,118.934 198.183,118.372 C 198.664,117.81 199.353,117.161 200.253,116.424 C 201.648,115.272 202.595,114.361 203.093,113.691 C 203.591,113.021 203.839,112.387 203.839,111.788 C 203.839,111.162 203.614,110.634 203.164,110.204 C 202.714,109.774 202.128,109.559 201.403,109.559 C 200.637,109.559 200.026,109.788 199.567,110.247 C 199.108,110.705 198.876,111.341 198.87,112.152 L 197.245,111.98 C 197.356,110.765 197.776,109.838 198.505,109.201 C 199.234,108.564 200.212,108.246 201.439,108.246 C 202.678,108.246 203.66,108.589 204.381,109.275 C 205.103,109.961 205.464,110.81 205.464,111.825 C 205.464,112.342 205.359,112.848 205.148,113.346 C 204.936,113.844 204.585,114.368 204.095,114.92 C 203.603,115.471 202.79,116.228 201.654,117.189 C 200.704,117.986 200.093,118.527 199.822,118.81 C 199.551,119.095 199.326,119.38 199.148,119.667 L 205.479,119.667 L 205.479,119.668 z "
   id="path31" />
</g>
<path
   d="M 170.47708,95.4019 L 168.86113,95.4019 L 168.86113,67.6619 L 169.66958,67.1869 L 170.47708,67.6619 L 170.47708,95.4019 z "
   id="polygon33" />
<path
   d="M 136.98958,47.4269 L 136.98958,49.2794 L 104.35708,68.1369 L 104.35708,66.2369 L 136.98958,47.4269 z "
   id="polygon35" />
<path
   d="M 104.35708,66.2369 L 104.35708,68.1369 L 71.723625,49.2794 L 71.723625,47.4269 L 104.35708,66.2369 z "
   id="polygon37" />
<g
   id="g39"
   transform="matrix(0.95,0,0,0.95,6.625825,3.0296)">
	<path
   d="M 0,76.984 L 0,59.797 L 2.281,59.797 L 2.281,66.86 L 11.172,66.86 L 11.172,59.797 L 13.453,59.797 L 13.453,76.985 L 11.172,76.985 L 11.172,68.891 L 2.281,68.891 L 2.281,76.985 L 0,76.985 L 0,76.984 z "
   id="path41" />
</g>
<g
   id="g43"
   transform="matrix(0.95,0,0,0.95,6.625825,3.0296)">
	<path
   d="M 22.773,79.969 L 22.773,81.485 L 14.242,81.485 C 14.23,81.104 14.292,80.738 14.428,80.385 C 14.646,79.805 14.995,79.235 15.476,78.673 C 15.956,78.111 16.646,77.462 17.546,76.725 C 18.942,75.573 19.888,74.662 20.386,73.992 C 20.884,73.322 21.133,72.688 21.133,72.089 C 21.133,71.463 20.908,70.935 20.458,70.505 C 20.008,70.075 19.421,69.86 18.698,69.86 C 17.932,69.86 17.321,70.089 16.862,70.548 C 16.403,71.006 16.171,71.642 16.165,72.453 L 14.54,72.281 C 14.651,71.066 15.071,70.139 15.8,69.502 C 16.528,68.865 17.506,68.547 18.734,68.547 C 19.973,68.547 20.954,68.89 21.676,69.576 C 22.398,70.262 22.759,71.111 22.759,72.126 C 22.759,72.643 22.653,73.149 22.442,73.647 C 22.231,74.145 21.879,74.669 21.389,75.221 C 20.898,75.772 20.085,76.529 18.949,77.49 C 17.998,78.287 17.387,78.828 17.116,79.111 C 16.845,79.396 16.62,79.681 16.443,79.968 L 22.773,79.968 L 22.773,79.969 z "
   id="path45" />
</g>
<g
   id="g47"
   transform="matrix(0.95,0,0,0.95,6.625825,3.0296)">
	<path
   d="M 24.772,76.984 L 24.772,59.797 L 27.112,59.797 L 36.116,73.285 L 36.116,59.797 L 38.304,59.797 L 38.304,76.985 L 35.964,76.985 L 26.96,63.495 L 26.96,76.984 L 24.772,76.984 z "
   id="path49" />
</g>
<path
   d="M 71.723625,47.4269 L 71.723625,49.2794 L 49.067075,62.3419 L 48.259575,60.9169 L 71.723625,47.4269 z "
   id="polygon51" />
<g
   id="g53"
   transform="matrix(0.95,0,0,0.95,6.625825,3.0296)">
	<path
   d="M 60.281,9.119 C 60.281,6.267 61.047,4.034 62.579,2.42 C 64.111,0.807 66.089,0 68.512,0 C 70.099,0 71.529,0.379 72.803,1.137 C 74.077,1.895 75.048,2.952 75.717,4.308 C 76.385,5.664 76.719,7.202 76.719,8.92 C 76.719,10.662 76.367,12.222 75.664,13.597 C 74.96,14.973 73.964,16.014 72.674,16.721 C 71.384,17.428 69.993,17.782 68.5,17.782 C 66.882,17.782 65.436,17.391 64.162,16.61 C 62.888,15.829 61.923,14.762 61.266,13.41 C 60.609,12.058 60.281,10.627 60.281,9.119 z M 62.625,9.148 C 62.625,11.218 63.182,12.849 64.296,14.041 C 65.41,15.233 66.808,15.828 68.488,15.828 C 70.2,15.828 71.609,15.226 72.716,14.023 C 73.822,12.82 74.375,11.113 74.375,8.902 C 74.375,7.504 74.139,6.283 73.666,5.24 C 73.193,4.197 72.5,3.389 71.59,2.814 C 70.68,2.239 69.657,1.953 68.524,1.953 C 66.914,1.953 65.528,2.506 64.367,3.611 C 63.206,4.716 62.625,6.563 62.625,9.148 z "
   id="path55" />
</g>
<path
   d="M 68.067078,22.0619 L 69.682078,22.0619 L 69.682078,49.9919 L 68.067078,49.9919 L 68.067078,22.0619 z "
   id="rect57" />
<path
   d="M 73.719575,22.0619 L 75.334575,22.0619 L 75.334575,49.9919 L 73.719575,49.9919 L 73.719575,22.0619 z "
   id="rect59" />
</svg>