<?xml version="1.0" encoding="utf-8" standalone="no"?>
<!DOCTYPE svg PUBLIC "-//W3C//DTD SVG 1.1//EN"
  "http://www.w3.org/Graphics/SVG/1.1/DTD/svg11.dtd">
<!-- Created with matplotlib (http://matplotlib.org/) -->
<svg height="360pt" version="1.1" viewBox="0 0 360 360" width="360pt" xmlns="http://www.w3.org/2000/svg" xmlns:xlink="http://www.w3.org/1999/xlink">
 <defs>
  <style type="text/css">
*{stroke-linecap:butt;stroke-linejoin:round;}
  </style>
 </defs>
 <g id="figure_1">
  <g id="patch_1">
   <path d="M 0 360 
L 360 360 
L 360 0 
L 0 0 
z
" style="fill:#ffffff;"/>
  </g>
  <g id="axes_1">
   <g id="PathCollection_1">
    <defs>
     <path d="M 0 3 
C 0.795609 3 1.55874 2.683901 2.12132 2.12132 
C 2.683901 1.55874 3 0.795609 3 0 
C 3 -0.795609 2.683901 -1.55874 2.12132 -2.12132 
C 1.55874 -2.683901 0.795609 -3 0 -3 
C -0.795609 -3 -1.55874 -2.683901 -2.12132 -2.12132 
C -2.683901 -1.55874 -3 -0.795609 -3 0 
C -3 0.795609 -2.683901 1.55874 -2.12132 2.12132 
C -1.55874 2.683901 -0.795609 3 0 3 
z
" id="m57ae61ef9c" style="stroke:#0000ff;"/>
    </defs>
    <g clip-path="url(#p055e99d6e6)">
     <use style="fill:#0000ff;stroke:#0000ff;" x="161.996176" xlink:href="#m57ae61ef9c" y="173.238193"/>
    </g>
   </g>
   <g id="line2d_1">
    <path clip-path="url(#p055e99d6e6)" d="M 184.5 63.810744 
L 190.533773 63.968744 
L 196.551009 64.44231 
L 202.535213 65.230146 
L 208.469984 66.330091 
L 214.339055 67.73913 
L 220.126339 69.453402 
L 225.815974 71.468207 
L 231.392365 73.778024 
L 236.840227 76.376521 
L 242.144628 79.256575 
L 247.291029 82.410294 
L 252.265325 85.829032 
L 257.05388 89.50342 
L 261.64357 93.423386 
L 266.021815 97.578185 
L 270.176614 101.95643 
L 274.09658 106.54612 
L 277.770968 111.334675 
L 281.189706 116.308971 
L 284.343425 121.455372 
L 287.223479 126.759773 
L 289.821976 132.207635 
L 292.131793 137.784026 
L 294.146598 143.473661 
L 295.86087 149.260945 
L 297.269909 155.130016 
L 298.369854 161.064787 
L 299.15769 167.048991 
L 299.631256 173.066227 
L 299.789256 179.1 
L 299.631256 185.133773 
L 299.15769 191.151009 
L 298.369854 197.135213 
L 297.269909 203.069984 
L 295.86087 208.939055 
L 294.146598 214.726339 
L 292.131793 220.415974 
L 289.821976 225.992365 
L 287.223479 231.440227 
L 284.343425 236.744628 
L 281.189706 241.891029 
L 277.770968 246.865325 
L 274.09658 251.65388 
L 270.176614 256.24357 
L 266.021815 260.621815 
L 261.64357 264.776614 
L 257.05388 268.69658 
L 252.265325 272.370968 
L 247.291029 275.789706 
L 242.144628 278.943425 
L 236.840227 281.823479 
L 231.392365 284.421976 
L 225.815974 286.731793 
L 220.126339 288.746598 
L 214.339055 290.46087 
L 208.469984 291.869909 
L 202.535213 292.969854 
L 196.551009 293.75769 
L 190.533773 294.231256 
L 184.5 294.389256 
L 178.466227 294.231256 
L 172.448991 293.75769 
L 166.464787 292.969854 
L 160.530016 291.869909 
L 154.660945 290.46087 
L 148.873661 288.746598 
L 143.184026 286.731793 
L 137.607635 284.421976 
L 132.159773 281.823479 
L 126.855372 278.943425 
L 121.708971 275.789706 
L 116.734675 272.370968 
L 111.94612 268.69658 
L 107.35643 264.776614 
L 102.978185 260.621815 
L 98.823386 256.24357 
L 94.90342 251.65388 
L 91.229032 246.865325 
L 87.810294 241.891029 
L 84.656575 236.744628 
L 81.776521 231.440227 
L 79.178024 225.992365 
L 76.868207 220.415974 
L 74.853402 214.726339 
L 73.13913 208.939055 
L 71.730091 203.069984 
L 70.630146 197.135213 
L 69.84231 191.151009 
L 69.368744 185.133773 
L 69.210744 179.1 
L 69.368744 173.066227 
L 69.84231 167.048991 
L 70.630146 161.064787 
L 71.730091 155.130016 
L 73.13913 149.260945 
L 74.853402 143.473661 
L 76.868207 137.784026 
L 79.178024 132.207635 
L 81.776521 126.759773 
L 84.656575 121.455372 
L 87.810294 116.308971 
L 91.229032 111.334675 
L 94.90342 106.54612 
L 98.823386 101.95643 
L 102.978185 97.578185 
L 107.35643 93.423386 
L 111.94612 89.50342 
L 116.734675 85.829032 
L 121.708971 82.410294 
L 126.855372 79.256575 
L 132.159773 76.376521 
L 137.607635 73.778024 
L 143.184026 71.468207 
L 148.873661 69.453402 
L 154.660945 67.73913 
L 160.530016 66.330091 
L 166.464787 65.230146 
L 172.448991 64.44231 
L 178.466227 63.968744 
L 184.5 63.810744 
L 184.5 63.810744 
" style="fill:none;stroke:#000000;stroke-linecap:square;stroke-width:1.5;"/>
   </g>
   <g id="line2d_2">
    <defs>
     <path d="M -3 0 
L 3 0 
M 0 3 
L 0 -3 
" id="m0d1745d5e9" style="stroke:#000000;"/>
    </defs>
    <g clip-path="url(#p055e99d6e6)">
     <use style="stroke:#000000;" x="184.5" xlink:href="#m0d1745d5e9" y="74.297575"/>
     <use style="stroke:#000000;" x="184.5" xlink:href="#m0d1745d5e9" y="85.582016"/>
     <use style="stroke:#000000;" x="184.5" xlink:href="#m0d1745d5e9" y="97.578185"/>
     <use style="stroke:#000000;" x="184.5" xlink:href="#m0d1745d5e9" y="110.194785"/>
     <use style="stroke:#000000;" x="184.5" xlink:href="#m0d1745d5e9" y="123.335794"/>
     <use style="stroke:#000000;" x="184.5" xlink:href="#m0d1745d5e9" y="136.901203"/>
     <use style="stroke:#000000;" x="184.5" xlink:href="#m0d1745d5e9" y="150.787771"/>
     <use style="stroke:#000000;" x="184.5" xlink:href="#m0d1745d5e9" y="164.889811"/>
     <use style="stroke:#000000;" x="184.5" xlink:href="#m0d1745d5e9" y="179.1"/>
    </g>
   </g>
   <g id="line2d_3">
    <g clip-path="url(#p055e99d6e6)">
     <use style="stroke:#000000;" x="289.302425" xlink:href="#m0d1745d5e9" y="179.1"/>
     <use style="stroke:#000000;" x="278.017984" xlink:href="#m0d1745d5e9" y="179.1"/>
     <use style="stroke:#000000;" x="266.021815" xlink:href="#m0d1745d5e9" y="179.1"/>
     <use style="stroke:#000000;" x="253.405215" xlink:href="#m0d1745d5e9" y="179.1"/>
     <use style="stroke:#000000;" x="240.264206" xlink:href="#m0d1745d5e9" y="179.1"/>
     <use style="stroke:#000000;" x="226.698797" xlink:href="#m0d1745d5e9" y="179.1"/>
     <use style="stroke:#000000;" x="212.812229" xlink:href="#m0d1745d5e9" y="179.1"/>
     <use style="stroke:#000000;" x="198.710189" xlink:href="#m0d1745d5e9" y="179.1"/>
    </g>
   </g>
   <g id="line2d_4">
    <g clip-path="url(#p055e99d6e6)">
     <use style="stroke:#000000;" x="184.5" xlink:href="#m0d1745d5e9" y="283.902425"/>
     <use style="stroke:#000000;" x="184.5" xlink:href="#m0d1745d5e9" y="272.617984"/>
     <use style="stroke:#000000;" x="184.5" xlink:href="#m0d1745d5e9" y="260.621815"/>
     <use style="stroke:#000000;" x="184.5" xlink:href="#m0d1745d5e9" y="248.005215"/>
     <use style="stroke:#000000;" x="184.5" xlink:href="#m0d1745d5e9" y="234.864206"/>
     <use style="stroke:#000000;" x="184.5" xlink:href="#m0d1745d5e9" y="221.298797"/>
     <use style="stroke:#000000;" x="184.5" xlink:href="#m0d1745d5e9" y="207.412229"/>
     <use style="stroke:#000000;" x="184.5" xlink:href="#m0d1745d5e9" y="193.310189"/>
    </g>
   </g>
   <g id="line2d_5">
    <g clip-path="url(#p055e99d6e6)">
     <use style="stroke:#000000;" x="79.697575" xlink:href="#m0d1745d5e9" y="179.1"/>
     <use style="stroke:#000000;" x="90.982016" xlink:href="#m0d1745d5e9" y="179.1"/>
     <use style="stroke:#000000;" x="102.978185" xlink:href="#m0d1745d5e9" y="179.1"/>
     <use style="stroke:#000000;" x="115.594785" xlink:href="#m0d1745d5e9" y="179.1"/>
     <use style="stroke:#000000;" x="128.735794" xlink:href="#m0d1745d5e9" y="179.1"/>
     <use style="stroke:#000000;" x="142.301203" xlink:href="#m0d1745d5e9" y="179.1"/>
     <use style="stroke:#000000;" x="156.187771" xlink:href="#m0d1745d5e9" y="179.1"/>
     <use style="stroke:#000000;" x="170.289811" xlink:href="#m0d1745d5e9" y="179.1"/>
    </g>
   </g>
   <g id="line2d_6">
    <path clip-path="url(#p055e99d6e6)" d="M 184.5 63.810744 
L 184.5 64.821209 
L 184.5 65.840378 
L 184.5 66.868171 
" style="fill:none;stroke:#000000;stroke-linecap:square;stroke-width:1.5;"/>
   </g>
   <g id="line2d_7">
    <path clip-path="url(#p055e99d6e6)" d="M 204.519769 65.562247 
L 204.344304 66.557361 
L 204.167327 67.561046 
L 203.988853 68.573225 
" style="fill:none;stroke:#000000;stroke-linecap:square;stroke-width:1.5;"/>
   </g>
   <g id="line2d_8">
    <path clip-path="url(#p055e99d6e6)" d="M 223.931248 70.763537 
L 223.585648 71.713064 
L 223.237072 72.670769 
L 222.885546 73.636579 
" style="fill:none;stroke:#000000;stroke-linecap:square;stroke-width:1.5;"/>
   </g>
   <g id="line2d_9">
    <path clip-path="url(#p055e99d6e6)" d="M 242.144628 79.256575 
L 241.639395 80.131664 
L 241.129811 81.01429 
L 240.615914 81.904385 
" style="fill:none;stroke:#000000;stroke-linecap:square;stroke-width:1.5;"/>
   </g>
   <g id="line2d_10">
    <path clip-path="url(#p055e99d6e6)" d="M 258.606505 90.783306 
L 257.956991 91.557368 
L 257.301882 92.338096 
L 256.641229 93.125431 
" style="fill:none;stroke:#000000;stroke-linecap:square;stroke-width:1.5;"/>
   </g>
   <g id="line2d_11">
    <path clip-path="url(#p055e99d6e6)" d="M 272.816694 104.993495 
L 272.042632 105.643009 
L 271.261904 106.298118 
L 270.474569 106.958771 
" style="fill:none;stroke:#000000;stroke-linecap:square;stroke-width:1.5;"/>
   </g>
   <g id="line2d_12">
    <path clip-path="url(#p055e99d6e6)" d="M 284.343425 121.455372 
L 283.468336 121.960605 
L 282.58571 122.470189 
L 281.695615 122.984086 
" style="fill:none;stroke:#000000;stroke-linecap:square;stroke-width:1.5;"/>
   </g>
   <g id="line2d_13">
    <path clip-path="url(#p055e99d6e6)" d="M 292.836463 139.668752 
L 291.886936 140.014352 
L 290.929231 140.362928 
L 289.963421 140.714454 
" style="fill:none;stroke:#000000;stroke-linecap:square;stroke-width:1.5;"/>
   </g>
   <g id="line2d_14">
    <path clip-path="url(#p055e99d6e6)" d="M 298.037753 159.080231 
L 297.042639 159.255696 
L 296.038954 159.432673 
L 295.026775 159.611147 
" style="fill:none;stroke:#000000;stroke-linecap:square;stroke-width:1.5;"/>
   </g>
   <g id="line2d_15">
    <path clip-path="url(#p055e99d6e6)" d="M 299.789256 179.1 
L 298.778791 179.1 
L 297.759622 179.1 
L 296.731829 179.1 
" style="fill:none;stroke:#000000;stroke-linecap:square;stroke-width:1.5;"/>
   </g>
   <g id="line2d_16">
    <path clip-path="url(#p055e99d6e6)" d="M 298.037753 199.119769 
L 297.042639 198.944304 
L 296.038954 198.767327 
L 295.026775 198.588853 
" style="fill:none;stroke:#000000;stroke-linecap:square;stroke-width:1.5;"/>
   </g>
   <g id="line2d_17">
    <path clip-path="url(#p055e99d6e6)" d="M 292.836463 218.531248 
L 291.886936 218.185648 
L 290.929231 217.837072 
L 289.963421 217.485546 
" style="fill:none;stroke:#000000;stroke-linecap:square;stroke-width:1.5;"/>
   </g>
   <g id="line2d_18">
    <path clip-path="url(#p055e99d6e6)" d="M 284.343425 236.744628 
L 283.468336 236.239395 
L 282.58571 235.729811 
L 281.695615 235.215914 
" style="fill:none;stroke:#000000;stroke-linecap:square;stroke-width:1.5;"/>
   </g>
   <g id="line2d_19">
    <path clip-path="url(#p055e99d6e6)" d="M 272.816694 253.206505 
L 272.042632 252.556991 
L 271.261904 251.901882 
L 270.474569 251.241229 
" style="fill:none;stroke:#000000;stroke-linecap:square;stroke-width:1.5;"/>
   </g>
   <g id="line2d_20">
    <path clip-path="url(#p055e99d6e6)" d="M 258.606505 267.416694 
L 257.956991 266.642632 
L 257.301882 265.861904 
L 256.641229 265.074569 
" style="fill:none;stroke:#000000;stroke-linecap:square;stroke-width:1.5;"/>
   </g>
   <g id="line2d_21">
    <path clip-path="url(#p055e99d6e6)" d="M 242.144628 278.943425 
L 241.639395 278.068336 
L 241.129811 277.18571 
L 240.615914 276.295615 
" style="fill:none;stroke:#000000;stroke-linecap:square;stroke-width:1.5;"/>
   </g>
   <g id="line2d_22">
    <path clip-path="url(#p055e99d6e6)" d="M 223.931248 287.436463 
L 223.585648 286.486936 
L 223.237072 285.529231 
L 222.885546 284.563421 
" style="fill:none;stroke:#000000;stroke-linecap:square;stroke-width:1.5;"/>
   </g>
   <g id="line2d_23">
    <path clip-path="url(#p055e99d6e6)" d="M 204.519769 292.637753 
L 204.344304 291.642639 
L 204.167327 290.638954 
L 203.988853 289.626775 
" style="fill:none;stroke:#000000;stroke-linecap:square;stroke-width:1.5;"/>
   </g>
   <g id="line2d_24">
    <path clip-path="url(#p055e99d6e6)" d="M 184.5 294.389256 
L 184.5 293.378791 
L 184.5 292.359622 
L 184.5 291.331829 
" style="fill:none;stroke:#000000;stroke-linecap:square;stroke-width:1.5;"/>
   </g>
   <g id="line2d_25">
    <path clip-path="url(#p055e99d6e6)" d="M 164.480231 292.637753 
L 164.655696 291.642639 
L 164.832673 290.638954 
L 165.011147 289.626775 
" style="fill:none;stroke:#000000;stroke-linecap:square;stroke-width:1.5;"/>
   </g>
   <g id="line2d_26">
    <path clip-path="url(#p055e99d6e6)" d="M 145.068752 287.436463 
L 145.414352 286.486936 
L 145.762928 285.529231 
L 146.114454 284.563421 
" style="fill:none;stroke:#000000;stroke-linecap:square;stroke-width:1.5;"/>
   </g>
   <g id="line2d_27">
    <path clip-path="url(#p055e99d6e6)" d="M 126.855372 278.943425 
L 127.360605 278.068336 
L 127.870189 277.18571 
L 128.384086 276.295615 
" style="fill:none;stroke:#000000;stroke-linecap:square;stroke-width:1.5;"/>
   </g>
   <g id="line2d_28">
    <path clip-path="url(#p055e99d6e6)" d="M 110.393495 267.416694 
L 111.043009 266.642632 
L 111.698118 265.861904 
L 112.358771 265.074569 
" style="fill:none;stroke:#000000;stroke-linecap:square;stroke-width:1.5;"/>
   </g>
   <g id="line2d_29">
    <path clip-path="url(#p055e99d6e6)" d="M 96.183306 253.206505 
L 96.957368 252.556991 
L 97.738096 251.901882 
L 98.525431 251.241229 
" style="fill:none;stroke:#000000;stroke-linecap:square;stroke-width:1.5;"/>
   </g>
   <g id="line2d_30">
    <path clip-path="url(#p055e99d6e6)" d="M 84.656575 236.744628 
L 85.531664 236.239395 
L 86.41429 235.729811 
L 87.304385 235.215914 
" style="fill:none;stroke:#000000;stroke-linecap:square;stroke-width:1.5;"/>
   </g>
   <g id="line2d_31">
    <path clip-path="url(#p055e99d6e6)" d="M 76.163537 218.531248 
L 77.113064 218.185648 
L 78.070769 217.837072 
L 79.036579 217.485546 
" style="fill:none;stroke:#000000;stroke-linecap:square;stroke-width:1.5;"/>
   </g>
   <g id="line2d_32">
    <path clip-path="url(#p055e99d6e6)" d="M 70.962247 199.119769 
L 71.957361 198.944304 
L 72.961046 198.767327 
L 73.973225 198.588853 
" style="fill:none;stroke:#000000;stroke-linecap:square;stroke-width:1.5;"/>
   </g>
   <g id="line2d_33">
    <path clip-path="url(#p055e99d6e6)" d="M 69.210744 179.1 
L 70.221209 179.1 
L 71.240378 179.1 
L 72.268171 179.1 
" style="fill:none;stroke:#000000;stroke-linecap:square;stroke-width:1.5;"/>
   </g>
   <g id="line2d_34">
    <path clip-path="url(#p055e99d6e6)" d="M 70.962247 159.080231 
L 71.957361 159.255696 
L 72.961046 159.432673 
L 73.973225 159.611147 
" style="fill:none;stroke:#000000;stroke-linecap:square;stroke-width:1.5;"/>
   </g>
   <g id="line2d_35">
    <path clip-path="url(#p055e99d6e6)" d="M 76.163537 139.668752 
L 77.113064 140.014352 
L 78.070769 140.362928 
L 79.036579 140.714454 
" style="fill:none;stroke:#000000;stroke-linecap:square;stroke-width:1.5;"/>
   </g>
   <g id="line2d_36">
    <path clip-path="url(#p055e99d6e6)" d="M 84.656575 121.455372 
L 85.531664 121.960605 
L 86.41429 122.470189 
L 87.304385 122.984086 
" style="fill:none;stroke:#000000;stroke-linecap:square;stroke-width:1.5;"/>
   </g>
   <g id="line2d_37">
    <path clip-path="url(#p055e99d6e6)" d="M 96.183306 104.993495 
L 96.957368 105.643009 
L 97.738096 106.298118 
L 98.525431 106.958771 
" style="fill:none;stroke:#000000;stroke-linecap:square;stroke-width:1.5;"/>
   </g>
   <g id="line2d_38">
    <path clip-path="url(#p055e99d6e6)" d="M 110.393495 90.783306 
L 111.043009 91.557368 
L 111.698118 92.338096 
L 112.358771 93.125431 
" style="fill:none;stroke:#000000;stroke-linecap:square;stroke-width:1.5;"/>
   </g>
   <g id="line2d_39">
    <path clip-path="url(#p055e99d6e6)" d="M 126.855372 79.256575 
L 127.360605 80.131664 
L 127.870189 81.01429 
L 128.384086 81.904385 
" style="fill:none;stroke:#000000;stroke-linecap:square;stroke-width:1.5;"/>
   </g>
   <g id="line2d_40">
    <path clip-path="url(#p055e99d6e6)" d="M 145.068752 70.763537 
L 145.414352 71.713064 
L 145.762928 72.670769 
L 146.114454 73.636579 
" style="fill:none;stroke:#000000;stroke-linecap:square;stroke-width:1.5;"/>
   </g>
   <g id="line2d_41">
    <path clip-path="url(#p055e99d6e6)" d="M 164.480231 65.562247 
L 164.655696 66.557361 
L 164.832673 67.561046 
L 165.011147 68.573225 
" style="fill:none;stroke:#000000;stroke-linecap:square;stroke-width:1.5;"/>
   </g>
   <g id="line2d_42">
    <path clip-path="url(#p055e99d6e6)" d="M 57.681818 305.918182 
L 311.318182 305.918182 
L 311.318182 52.281818 
L 57.681818 52.281818 
L 57.681818 305.918182 
" style="fill:none;stroke:#000000;stroke-linecap:square;stroke-width:0.5;"/>
   </g>
   <g id="text_1">
    <!-- mc01d -->
    <defs>
     <path d="M 52 44.1875 
Q 55.375 50.25 60.0625 53.125 
Q 64.75 56 71.09375 56 
Q 79.640625 56 84.28125 50.015625 
Q 88.921875 44.046875 88.921875 33.015625 
L 88.921875 0 
L 79.890625 0 
L 79.890625 32.71875 
Q 79.890625 40.578125 77.09375 44.375 
Q 74.3125 48.1875 68.609375 48.1875 
Q 61.625 48.1875 57.5625 43.546875 
Q 53.515625 38.921875 53.515625 30.90625 
L 53.515625 0 
L 44.484375 0 
L 44.484375 32.71875 
Q 44.484375 40.625 41.703125 44.40625 
Q 38.921875 48.1875 33.109375 48.1875 
Q 26.21875 48.1875 22.15625 43.53125 
Q 18.109375 38.875 18.109375 30.90625 
L 18.109375 0 
L 9.078125 0 
L 9.078125 54.6875 
L 18.109375 54.6875 
L 18.109375 46.1875 
Q 21.1875 51.21875 25.484375 53.609375 
Q 29.78125 56 35.6875 56 
Q 41.65625 56 45.828125 52.96875 
Q 50 49.953125 52 44.1875 
z
" id="DejaVuSans-6d"/>
     <path d="M 48.78125 52.59375 
L 48.78125 44.1875 
Q 44.96875 46.296875 41.140625 47.34375 
Q 37.3125 48.390625 33.40625 48.390625 
Q 24.65625 48.390625 19.8125 42.84375 
Q 14.984375 37.3125 14.984375 27.296875 
Q 14.984375 17.28125 19.8125 11.734375 
Q 24.65625 6.203125 33.40625 6.203125 
Q 37.3125 6.203125 41.140625 7.25 
Q 44.96875 8.296875 48.78125 10.40625 
L 48.78125 2.09375 
Q 45.015625 0.34375 40.984375 -0.53125 
Q 36.96875 -1.421875 32.421875 -1.421875 
Q 20.0625 -1.421875 12.78125 6.34375 
Q 5.515625 14.109375 5.515625 27.296875 
Q 5.515625 40.671875 12.859375 48.328125 
Q 20.21875 56 33.015625 56 
Q 37.15625 56 41.109375 55.140625 
Q 45.0625 54.296875 48.78125 52.59375 
z
" id="DejaVuSans-63"/>
     <path d="M 31.78125 66.40625 
Q 24.171875 66.40625 20.328125 58.90625 
Q 16.5 51.421875 16.5 36.375 
Q 16.5 21.390625 20.328125 13.890625 
Q 24.171875 6.390625 31.78125 6.390625 
Q 39.453125 6.390625 43.28125 13.890625 
Q 47.125 21.390625 47.125 36.375 
Q 47.125 51.421875 43.28125 58.90625 
Q 39.453125 66.40625 31.78125 66.40625 
z
M 31.78125 74.21875 
Q 44.046875 74.21875 50.515625 64.515625 
Q 56.984375 54.828125 56.984375 36.375 
Q 56.984375 17.96875 50.515625 8.265625 
Q 44.046875 -1.421875 31.78125 -1.421875 
Q 19.53125 -1.421875 13.0625 8.265625 
Q 6.59375 17.96875 6.59375 36.375 
Q 6.59375 54.828125 13.0625 64.515625 
Q 19.53125 74.21875 31.78125 74.21875 
z
" id="DejaVuSans-30"/>
     <path d="M 12.40625 8.296875 
L 28.515625 8.296875 
L 28.515625 63.921875 
L 10.984375 60.40625 
L 10.984375 69.390625 
L 28.421875 72.90625 
L 38.28125 72.90625 
L 38.28125 8.296875 
L 54.390625 8.296875 
L 54.390625 0 
L 12.40625 0 
z
" id="DejaVuSans-31"/>
     <path d="M 45.40625 46.390625 
L 45.40625 75.984375 
L 54.390625 75.984375 
L 54.390625 0 
L 45.40625 0 
L 45.40625 8.203125 
Q 42.578125 3.328125 38.25 0.953125 
Q 33.9375 -1.421875 27.875 -1.421875 
Q 17.96875 -1.421875 11.734375 6.484375 
Q 5.515625 14.40625 5.515625 27.296875 
Q 5.515625 40.1875 11.734375 48.09375 
Q 17.96875 56 27.875 56 
Q 33.9375 56 38.25 53.625 
Q 42.578125 51.265625 45.40625 46.390625 
z
M 14.796875 27.296875 
Q 14.796875 17.390625 18.875 11.75 
Q 22.953125 6.109375 30.078125 6.109375 
Q 37.203125 6.109375 41.296875 11.75 
Q 45.40625 17.390625 45.40625 27.296875 
Q 45.40625 37.203125 41.296875 42.84375 
Q 37.203125 48.484375 30.078125 48.484375 
Q 22.953125 48.484375 18.875 42.84375 
Q 14.796875 37.203125 14.796875 27.296875 
z
" id="DejaVuSans-64"/>
    </defs>
    <g transform="translate(57.681818 46.517355)scale(0.1 -0.1)">
     <use xlink:href="#DejaVuSans-6d"/>
     <use x="97.412109" xlink:href="#DejaVuSans-63"/>
     <use x="152.392578" xlink:href="#DejaVuSans-30"/>
     <use x="216.015625" xlink:href="#DejaVuSans-31"/>
     <use x="279.638672" xlink:href="#DejaVuSans-64"/>
    </g>
   </g>
  </g>
  <g id="text_2">
   <!-- pmagpy-4.2.17 -->
   <defs>
    <path d="M 18.109375 8.203125 
L 18.109375 -20.796875 
L 9.078125 -20.796875 
L 9.078125 54.6875 
L 18.109375 54.6875 
L 18.109375 46.390625 
Q 20.953125 51.265625 25.265625 53.625 
Q 29.59375 56 35.59375 56 
Q 45.5625 56 51.78125 48.09375 
Q 58.015625 40.1875 58.015625 27.296875 
Q 58.015625 14.40625 51.78125 6.484375 
Q 45.5625 -1.421875 35.59375 -1.421875 
Q 29.59375 -1.421875 25.265625 0.953125 
Q 20.953125 3.328125 18.109375 8.203125 
z
M 48.6875 27.296875 
Q 48.6875 37.203125 44.609375 42.84375 
Q 40.53125 48.484375 33.40625 48.484375 
Q 26.265625 48.484375 22.1875 42.84375 
Q 18.109375 37.203125 18.109375 27.296875 
Q 18.109375 17.390625 22.1875 11.75 
Q 26.265625 6.109375 33.40625 6.109375 
Q 40.53125 6.109375 44.609375 11.75 
Q 48.6875 17.390625 48.6875 27.296875 
z
" id="DejaVuSans-70"/>
    <path d="M 34.28125 27.484375 
Q 23.390625 27.484375 19.1875 25 
Q 14.984375 22.515625 14.984375 16.5 
Q 14.984375 11.71875 18.140625 8.90625 
Q 21.296875 6.109375 26.703125 6.109375 
Q 34.1875 6.109375 38.703125 11.40625 
Q 43.21875 16.703125 43.21875 25.484375 
L 43.21875 27.484375 
z
M 52.203125 31.203125 
L 52.203125 0 
L 43.21875 0 
L 43.21875 8.296875 
Q 40.140625 3.328125 35.546875 0.953125 
Q 30.953125 -1.421875 24.3125 -1.421875 
Q 15.921875 -1.421875 10.953125 3.296875 
Q 6 8.015625 6 15.921875 
Q 6 25.140625 12.171875 29.828125 
Q 18.359375 34.515625 30.609375 34.515625 
L 43.21875 34.515625 
L 43.21875 35.40625 
Q 43.21875 41.609375 39.140625 45 
Q 35.0625 48.390625 27.6875 48.390625 
Q 23 48.390625 18.546875 47.265625 
Q 14.109375 46.140625 10.015625 43.890625 
L 10.015625 52.203125 
Q 14.9375 54.109375 19.578125 55.046875 
Q 24.21875 56 28.609375 56 
Q 40.484375 56 46.34375 49.84375 
Q 52.203125 43.703125 52.203125 31.203125 
z
" id="DejaVuSans-61"/>
    <path d="M 45.40625 27.984375 
Q 45.40625 37.75 41.375 43.109375 
Q 37.359375 48.484375 30.078125 48.484375 
Q 22.859375 48.484375 18.828125 43.109375 
Q 14.796875 37.75 14.796875 27.984375 
Q 14.796875 18.265625 18.828125 12.890625 
Q 22.859375 7.515625 30.078125 7.515625 
Q 37.359375 7.515625 41.375 12.890625 
Q 45.40625 18.265625 45.40625 27.984375 
z
M 54.390625 6.78125 
Q 54.390625 -7.171875 48.1875 -13.984375 
Q 42 -20.796875 29.203125 -20.796875 
Q 24.46875 -20.796875 20.265625 -20.09375 
Q 16.0625 -19.390625 12.109375 -17.921875 
L 12.109375 -9.1875 
Q 16.0625 -11.328125 19.921875 -12.34375 
Q 23.78125 -13.375 27.78125 -13.375 
Q 36.625 -13.375 41.015625 -8.765625 
Q 45.40625 -4.15625 45.40625 5.171875 
L 45.40625 9.625 
Q 42.625 4.78125 38.28125 2.390625 
Q 33.9375 0 27.875 0 
Q 17.828125 0 11.671875 7.65625 
Q 5.515625 15.328125 5.515625 27.984375 
Q 5.515625 40.671875 11.671875 48.328125 
Q 17.828125 56 27.875 56 
Q 33.9375 56 38.28125 53.609375 
Q 42.625 51.21875 45.40625 46.390625 
L 45.40625 54.6875 
L 54.390625 54.6875 
z
" id="DejaVuSans-67"/>
    <path d="M 32.171875 -5.078125 
Q 28.375 -14.84375 24.75 -17.8125 
Q 21.140625 -20.796875 15.09375 -20.796875 
L 7.90625 -20.796875 
L 7.90625 -13.28125 
L 13.1875 -13.28125 
Q 16.890625 -13.28125 18.9375 -11.515625 
Q 21 -9.765625 23.484375 -3.21875 
L 25.09375 0.875 
L 2.984375 54.6875 
L 12.5 54.6875 
L 29.59375 11.921875 
L 46.6875 54.6875 
L 56.203125 54.6875 
z
" id="DejaVuSans-79"/>
    <path d="M 4.890625 31.390625 
L 31.203125 31.390625 
L 31.203125 23.390625 
L 4.890625 23.390625 
z
" id="DejaVuSans-2d"/>
    <path d="M 37.796875 64.3125 
L 12.890625 25.390625 
L 37.796875 25.390625 
z
M 35.203125 72.90625 
L 47.609375 72.90625 
L 47.609375 25.390625 
L 58.015625 25.390625 
L 58.015625 17.1875 
L 47.609375 17.1875 
L 47.609375 0 
L 37.796875 0 
L 37.796875 17.1875 
L 4.890625 17.1875 
L 4.890625 26.703125 
z
" id="DejaVuSans-34"/>
    <path d="M 10.6875 12.40625 
L 21 12.40625 
L 21 0 
L 10.6875 0 
z
" id="DejaVuSans-2e"/>
    <path d="M 19.1875 8.296875 
L 53.609375 8.296875 
L 53.609375 0 
L 7.328125 0 
L 7.328125 8.296875 
Q 12.9375 14.109375 22.625 23.890625 
Q 32.328125 33.6875 34.8125 36.53125 
Q 39.546875 41.84375 41.421875 45.53125 
Q 43.3125 49.21875 43.3125 52.78125 
Q 43.3125 58.59375 39.234375 62.25 
Q 35.15625 65.921875 28.609375 65.921875 
Q 23.96875 65.921875 18.8125 64.3125 
Q 13.671875 62.703125 7.8125 59.421875 
L 7.8125 69.390625 
Q 13.765625 71.78125 18.9375 73 
Q 24.125 74.21875 28.421875 74.21875 
Q 39.75 74.21875 46.484375 68.546875 
Q 53.21875 62.890625 53.21875 53.421875 
Q 53.21875 48.921875 51.53125 44.890625 
Q 49.859375 40.875 45.40625 35.40625 
Q 44.1875 33.984375 37.640625 27.21875 
Q 31.109375 20.453125 19.1875 8.296875 
z
" id="DejaVuSans-32"/>
    <path d="M 8.203125 72.90625 
L 55.078125 72.90625 
L 55.078125 68.703125 
L 28.609375 0 
L 18.3125 0 
L 43.21875 64.59375 
L 8.203125 64.59375 
z
" id="DejaVuSans-37"/>
   </defs>
   <g transform="translate(7.2 356.4)scale(0.1 -0.1)">
    <use xlink:href="#DejaVuSans-70"/>
    <use x="63.476562" xlink:href="#DejaVuSans-6d"/>
    <use x="160.888672" xlink:href="#DejaVuSans-61"/>
    <use x="222.167969" xlink:href="#DejaVuSans-67"/>
    <use x="285.644531" xlink:href="#DejaVuSans-70"/>
    <use x="349.121094" xlink:href="#DejaVuSans-79"/>
    <use x="408.285156" xlink:href="#DejaVuSans-2d"/>
    <use x="444.369141" xlink:href="#DejaVuSans-34"/>
    <use x="507.992188" xlink:href="#DejaVuSans-2e"/>
    <use x="539.779297" xlink:href="#DejaVuSans-32"/>
    <use x="603.402344" xlink:href="#DejaVuSans-2e"/>
    <use x="635.189453" xlink:href="#DejaVuSans-31"/>
    <use x="698.8125" xlink:href="#DejaVuSans-37"/>
   </g>
  </g>
 </g>
 <defs>
  <clipPath id="p055e99d6e6">
   <rect height="271.8" width="279" x="45" y="43.2"/>
  </clipPath>
 </defs>
</svg>
