<?xml version="1.0" encoding="UTF-8"?>
<!DOCTYPE svg PUBLIC "-//W3C//DTD SVG 1.1//EN" "http://www.w3.org/Graphics/SVG/1.1/DTD/svg11.dtd">
<!-- Creator: CorelDRAW X5 -->
<svg xmlns="http://www.w3.org/2000/svg" xml:space="preserve" width="152.546mm" height="145.835mm" style="shape-rendering:geometricPrecision; text-rendering:geometricPrecision; image-rendering:optimizeQuality; fill-rule:evenodd; clip-rule:evenodd"
viewBox="0 0 179.27 171.383"
 xmlns:xlink="http://www.w3.org/1999/xlink">
 <defs>
  <style type="text/css">
   <![CDATA[
    .str0 {stroke:#428BCA;stroke-width:9.94996}
    .str1 {stroke:#D9534F;stroke-width:9.94996}
    .fil0 {fill:none}
   ]]>
  </style>
 </defs>
 <g id="Layer_x0020_1">
  <metadata id="CorelCorpID_0Corel-Layer"/>
  <g id="_234152752">
   <path id="_234152632" class="fil0 str0" d="M104.433 45.52c11.2953,-5.04191 19.7301,-5.00642 24.2364,-0.873047 4.50626,4.13325 5.0841,12.3644 0.665274,23.7134 -4.41882,11.3493 -18.4206,16.1939 -28.7183,26.9353 -10.2978,10.7416 -16.8919,27.3804 -28.1872,32.4224 -11.2953,5.04191 -19.7301,5.00642 -24.2364,0.873047 -4.50614,-4.13325 -5.0841,-12.3643 -0.665274,-23.7135 4.41882,-11.349 12.9977,-23.6676 23.2955,-34.4091 10.2978,-10.7415 22.3148,-19.9064 33.61,-24.9484z"/>
   <path id="_234152464" class="fil0 str1" d="M47.5279 104.878c4.41882,-11.349 12.9977,-23.6676 23.2955,-34.4091 10.2978,-10.7415 22.3148,-19.9064 33.61,-24.9484m24.9016 22.8404c-4.41882,11.3493 -18.4206,16.1939 -28.7183,26.9353 -10.2978,10.7416 -16.8919,27.3804 -28.1872,32.4224"/>
   <path id="_234152296" class="fil0 str0" d="M146.363 80.327c11.2953,-5.04203 19.73,-5.00654 24.2363,-0.873165 4.50626,4.13325 5.0841,12.3644 0.665274,23.7135 -4.41882,11.3491 -18.4205,16.1937 -28.7183,26.9353 -10.2978,10.7415 -16.8919,27.3802 -28.1871,32.4223 -11.2953,5.04203 -19.7301,5.00642 -24.2364,0.873047 -4.50626,-4.13325 -5.0841,-12.3643 -0.665274,-23.7134 4.41882,-11.3491 12.9977,-23.6677 23.2955,-34.4091 10.2977,-10.7416 22.3147,-19.9065 33.61,-24.9484z"/>
   <path id="_234152128" class="fil0 str1" d="M89.4574 139.685c4.41882,-11.3491 12.9977,-23.6677 23.2955,-34.4091 10.2977,-10.7416 22.3147,-19.9065 33.61,-24.9484m24.9015 22.8404c-4.41882,11.3491 -18.4205,16.1937 -28.7183,26.9353 -10.2978,10.7415 -16.8919,27.3802 -28.1871,32.4223"/>
   <path id="_234151960" class="fil0 str0" d="M64.9107 8.85833c11.2952,-5.04203 19.73,-5.00642 24.2363,-0.873165 4.50626,4.13337 5.0841,12.3644 0.665274,23.7135 -4.41882,11.3493 -18.4205,16.1937 -28.7183,26.9353 -10.2978,10.7416 -16.8919,27.3802 -28.1872,32.4223 -11.2952,5.04203 -19.73,5.00642 -24.2363,0.873165 -4.50626,-4.13325 -5.0841,-12.3643 -0.665274,-23.7135 4.41882,-11.3491 12.9977,-23.6676 23.2954,-34.4091 10.2978,-10.7416 22.3148,-19.9064 33.6101,-24.9484z"/>
   <path id="_234151792" class="fil0 str1" d="M8.00514 68.2159c4.41882,-11.3491 12.9977,-23.6676 23.2954,-34.4091 10.2978,-10.7416 22.3148,-19.9064 33.6101,-24.9484m24.9015 22.8404c-4.41882,11.3493 -18.4205,16.1937 -28.7183,26.9353 -10.2978,10.7416 -16.8919,27.3802 -28.1872,32.4223"/>
  </g>
 </g>
</svg>
